<ttFont>
    <TTGlyph name=".notdef" xMin="81" yMin="0" xMax="603" yMax="660">
      <contour>
        <pt x="81" y="660" on="1"/>
        <pt x="603" y="660" on="1"/>
        <pt x="603" y="0" on="1"/>
        <pt x="81" y="0" on="1"/>
      </contour>
      <contour>
        <pt x="344" y="410" on="1"/>
        <pt x="388" y="505" on="1"/>
        <pt x="425" y="574" on="1"/>
        <pt x="259" y="574" on="1"/>
        <pt x="296" y="505" on="1"/>
        <pt x="340" y="410" on="1"/>
      </contour>
      <contour>
        <pt x="274" y="340" on="1"/>
        <pt x="174" y="534" on="1"/>
        <pt x="174" y="148" on="1"/>
      </contour>
      <contour>
        <pt x="509" y="534" on="1"/>
        <pt x="409" y="340" on="1"/>
        <pt x="509" y="148" on="1"/>
      </contour>
      <contour>
        <pt x="431" y="86" on="1"/>
        <pt x="387" y="172" on="1"/>
        <pt x="344" y="271" on="1"/>
        <pt x="340" y="271" on="1"/>
        <pt x="297" y="172" on="1"/>
        <pt x="252" y="86" on="1"/>
      </contour>
    </TTGlyph>
    <TTGlyph name="A" xMin="-5" yMin="0" xMax="573" yMax="653">
      <contour>
        <pt x="384" y="163" on="1"/>
        <pt x="179" y="163" on="1"/>
        <pt x="135" y="0" on="1"/>
        <pt x="-5" y="0" on="1"/>
        <pt x="203" y="653" on="1"/>
        <pt x="366" y="653" on="1"/>
        <pt x="573" y="0" on="1"/>
        <pt x="428" y="0" on="1"/>
      </contour>
      <contour>
        <pt x="356" y="269" on="1"/>
        <pt x="338" y="336" on="1"/>
        <pt x="326" y="380" on="0"/>
        <pt x="302" y="474" on="1"/>
        <pt x="283" y="548" on="1"/>
        <pt x="279" y="548" on="1"/>
        <pt x="249" y="419" on="0"/>
        <pt x="226" y="336" on="1"/>
        <pt x="208" y="269" on="1"/>
      </contour>
    </TTGlyph>
    <TTGlyph name="AE" xMin="-10" yMin="0" xMax="790" yMax="653">
      <contour>
        <pt x="790" y="115" on="1"/>
        <pt x="790" y="0" on="1"/>
        <pt x="389" y="0" on="1"/>
        <pt x="389" y="156" on="1"/>
        <pt x="207" y="156" on="1"/>
        <pt x="134" y="0" on="1"/>
        <pt x="-10" y="0" on="1"/>
        <pt x="305" y="653" on="1"/>
        <pt x="780" y="653" on="1"/>
        <pt x="780" y="538" on="1"/>
        <pt x="526" y="538" on="1"/>
        <pt x="526" y="395" on="1"/>
        <pt x="740" y="395" on="1"/>
        <pt x="740" y="280" on="1"/>
        <pt x="526" y="280" on="1"/>
        <pt x="526" y="115" on="1"/>
      </contour>
      <contour>
        <pt x="389" y="262" on="1"/>
        <pt x="389" y="549" on="1"/>
        <pt x="385" y="549" on="1"/>
        <pt x="352" y="474" on="1"/>
        <pt x="329" y="421" on="0"/>
        <pt x="301" y="359" on="1"/>
        <pt x="256" y="262" on="1"/>
      </contour>
    </TTGlyph>
    <TTGlyph name="Aacute" xMin="-5" yMin="0" xMax="573" yMax="890">
      <component glyphName="A" x="0" y="0" flags="0x0"/>
      <component glyphName="acutecomb.cap" x="281" y="0" flags="0x0"/>
    </TTGlyph>
    <TTGlyph name="Abreve" xMin="-5" yMin="0" xMax="573" yMax="847">
      <component glyphName="A" x="0" y="0" flags="0x0"/>
      <component glyphName="uni0306.cap" x="281" y="0" flags="0x0"/>
    </TTGlyph>
    <TTGlyph name="Acircumflex" xMin="-5" yMin="0" xMax="573" yMax="836">
      <component glyphName="A" x="0" y="0" flags="0x0"/>
      <component glyphName="uni0302.cap" x="281" y="0" flags="0x0"/>
    </TTGlyph>
    <TTGlyph name="Adieresis" xMin="-5" yMin="0" xMax="573" yMax="836">
      <component glyphName="A" x="0" y="0" flags="0x0"/>
      <component glyphName="uni0308.cap" x="281" y="0" flags="0x0"/>
    </TTGlyph>
    <TTGlyph name="Agrave" xMin="-5" yMin="0" xMax="573" yMax="890">
      <component glyphName="A" x="0" y="0" flags="0x0"/>
      <component glyphName="gravecomb.cap" x="281" y="0" flags="0x0"/>
    </TTGlyph>
    <TTGlyph name="Amacron" xMin="-5" yMin="0" xMax="573" yMax="812">
      <component glyphName="A" x="0" y="0" flags="0x0"/>
      <component glyphName="uni0304.cap" x="281" y="0" flags="0x0"/>
    </TTGlyph>
    <TTGlyph name="Aring" xMin="-5" yMin="0" xMax="573" yMax="892">
      <component glyphName="A" x="0" y="0" flags="0x0"/>
      <component glyphName="uni030A.cap" x="281" y="0" flags="0x0"/>
    </TTGlyph>
    <TTGlyph name="Atilde" xMin="-5" yMin="0" xMax="573" yMax="850">
      <component glyphName="A" x="0" y="0" flags="0x0"/>
      <component glyphName="tildecomb.cap" x="281" y="0" flags="0x0"/>
    </TTGlyph>
    <TTGlyph name="B" xMin="79" yMin="0" xMax="569" yMax="653">
      <contour>
        <pt x="79" y="653" on="1"/>
        <pt x="298" y="653" on="1"/>
        <pt x="536" y="653" on="0"/>
        <pt x="536" y="491" on="1"/>
        <pt x="536" y="445" on="0"/>
        <pt x="488" y="365" on="0"/>
        <pt x="448" y="350" on="1"/>
        <pt x="448" y="346" on="1"/>
        <pt x="503" y="332" on="0"/>
        <pt x="569" y="255" on="0"/>
        <pt x="569" y="192" on="1"/>
        <pt x="569" y="97" on="0"/>
        <pt x="429" y="0" on="0"/>
        <pt x="316" y="0" on="1"/>
        <pt x="79" y="0" on="1"/>
      </contour>
      <contour>
        <pt x="290" y="389" on="1"/>
        <pt x="347" y="389" on="0"/>
        <pt x="402" y="432" on="0"/>
        <pt x="402" y="471" on="1"/>
        <pt x="402" y="511" on="0"/>
        <pt x="348" y="547" on="0"/>
        <pt x="291" y="547" on="1"/>
        <pt x="216" y="547" on="1"/>
        <pt x="216" y="389" on="1"/>
      </contour>
      <contour>
        <pt x="304" y="106" on="1"/>
        <pt x="435" y="106" on="0"/>
        <pt x="435" y="201" on="1"/>
        <pt x="435" y="246" on="0"/>
        <pt x="370" y="287" on="0"/>
        <pt x="304" y="287" on="1"/>
        <pt x="216" y="287" on="1"/>
        <pt x="216" y="106" on="1"/>
      </contour>
    </TTGlyph>
    <TTGlyph name="C" xMin="47" yMin="-12" xMax="557" yMax="665">
      <contour>
        <pt x="264" y="-12" on="0"/>
        <pt x="127" y="66" on="0"/>
        <pt x="47" y="217" on="0"/>
        <pt x="47" y="323" on="1"/>
        <pt x="47" y="428" on="0"/>
        <pt x="129" y="583" on="0"/>
        <pt x="269" y="665" on="0"/>
        <pt x="352" y="665" on="1"/>
        <pt x="411" y="665" on="0"/>
        <pt x="510" y="618" on="0"/>
        <pt x="546" y="581" on="1"/>
        <pt x="473" y="493" on="1"/>
        <pt x="446" y="519" on="0"/>
        <pt x="389" y="546" on="0"/>
        <pt x="355" y="546" on="1"/>
        <pt x="307" y="546" on="0"/>
        <pt x="231" y="493" on="0"/>
        <pt x="188" y="394" on="0"/>
        <pt x="188" y="328" on="1"/>
        <pt x="188" y="225" on="0"/>
        <pt x="277" y="107" on="0"/>
        <pt x="353" y="107" on="1"/>
        <pt x="428" y="107" on="0"/>
        <pt x="484" y="170" on="1"/>
        <pt x="557" y="84" on="1"/>
        <pt x="475" y="-12" on="0"/>
        <pt x="348" y="-12" on="1"/>
      </contour>
    </TTGlyph>
    <TTGlyph name="Ccaron" xMin="47" yMin="-12" xMax="557" yMax="851">
      <component glyphName="C" x="0" y="0" flags="0x0"/>
      <component glyphName="uni030C.cap" x="341" y="0" flags="0x0"/>
    </TTGlyph>
    <TTGlyph name="Ccedilla" xMin="47" yMin="-12" xMax="557" yMax="665">
      <contour>
        <pt x="264" y="-12" on="0"/>
        <pt x="127" y="66" on="0"/>
        <pt x="47" y="217" on="0"/>
        <pt x="47" y="323" on="1"/>
        <pt x="47" y="428" on="0"/>
        <pt x="129" y="583" on="0"/>
        <pt x="269" y="665" on="0"/>
        <pt x="352" y="665" on="1"/>
        <pt x="411" y="665" on="0"/>
        <pt x="510" y="618" on="0"/>
        <pt x="546" y="581" on="1"/>
        <pt x="473" y="493" on="1"/>
        <pt x="446" y="519" on="0"/>
        <pt x="389" y="546" on="0"/>
        <pt x="355" y="546" on="1"/>
        <pt x="307" y="546" on="0"/>
        <pt x="231" y="493" on="0"/>
        <pt x="188" y="394" on="0"/>
        <pt x="188" y="328" on="1"/>
        <pt x="188" y="225" on="0"/>
        <pt x="277" y="107" on="0"/>
        <pt x="353" y="107" on="1"/>
        <pt x="428" y="107" on="0"/>
        <pt x="484" y="170" on="1"/>
        <pt x="557" y="84" on="1"/>
        <pt x="475" y="-12" on="0"/>
        <pt x="348" y="-12" on="1"/>
      </contour>
    </TTGlyph>
    <TTGlyph name="D" xMin="79" yMin="0" xMax="585" yMax="653">
      <contour>
        <pt x="79" y="653" on="1"/>
        <pt x="260" y="653" on="1"/>
        <pt x="414" y="653" on="0"/>
        <pt x="585" y="491" on="0"/>
        <pt x="585" y="329" on="1"/>
        <pt x="585" y="167" on="0"/>
        <pt x="416" y="0" on="0"/>
        <pt x="268" y="0" on="1"/>
        <pt x="79" y="0" on="1"/>
      </contour>
      <contour>
        <pt x="252" y="111" on="1"/>
        <pt x="444" y="111" on="0"/>
        <pt x="444" y="329" on="1"/>
        <pt x="444" y="442" on="0"/>
        <pt x="345" y="542" on="0"/>
        <pt x="252" y="542" on="1"/>
        <pt x="216" y="542" on="1"/>
        <pt x="216" y="111" on="1"/>
      </contour>
    </TTGlyph>
    <TTGlyph name="E" xMin="79" yMin="0" xMax="493" yMax="653">
      <contour>
        <pt x="79" y="653" on="1"/>
        <pt x="483" y="653" on="1"/>
        <pt x="483" y="538" on="1"/>
        <pt x="216" y="538" on="1"/>
        <pt x="216" y="395" on="1"/>
        <pt x="443" y="395" on="1"/>
        <pt x="443" y="280" on="1"/>
        <pt x="216" y="280" on="1"/>
        <pt x="216" y="115" on="1"/>
        <pt x="493" y="115" on="1"/>
        <pt x="493" y="0" on="1"/>
        <pt x="79" y="0" on="1"/>
      </contour>
    </TTGlyph>
    <TTGlyph name="Eacute" xMin="79" yMin="0" xMax="493" yMax="890">
      <component glyphName="E" x="0" y="0" flags="0x0"/>
      <component glyphName="acutecomb.cap" x="288" y="0" flags="0x0"/>
    </TTGlyph>
    <TTGlyph name="Ebreve" xMin="79" yMin="0" xMax="493" yMax="847">
      <component glyphName="E" x="0" y="0" flags="0x0"/>
      <component glyphName="uni0306.cap" x="288" y="0" flags="0x0"/>
    </TTGlyph>
    <TTGlyph name="Ecircumflex" xMin="79" yMin="0" xMax="493" yMax="836">
      <component glyphName="E" x="0" y="0" flags="0x0"/>
      <component glyphName="uni0302.cap" x="288" y="0" flags="0x0"/>
    </TTGlyph>
    <TTGlyph name="Edieresis" xMin="79" yMin="0" xMax="493" yMax="836">
      <component glyphName="E" x="0" y="0" flags="0x0"/>
      <component glyphName="uni0308.cap" x="288" y="0" flags="0x0"/>
    </TTGlyph>
    <TTGlyph name="Egrave" xMin="79" yMin="0" xMax="493" yMax="890">
      <component glyphName="E" x="0" y="0" flags="0x0"/>
      <component glyphName="gravecomb.cap" x="288" y="0" flags="0x0"/>
    </TTGlyph>
    <TTGlyph name="Emacron" xMin="79" yMin="0" xMax="493" yMax="812">
      <component glyphName="E" x="0" y="0" flags="0x0"/>
      <component glyphName="uni0304.cap" x="288" y="0" flags="0x0"/>
    </TTGlyph>
    <TTGlyph name="Eogonek" xMin="79" yMin="-222" xMax="512" yMax="653">
      <contour>
        <pt x="364" y="-222" on="0"/>
        <pt x="300" y="-172" on="0"/>
        <pt x="300" y="-128" on="1"/>
        <pt x="300" y="-87" on="0"/>
        <pt x="347" y="-20" on="0"/>
        <pt x="378" y="0" on="1"/>
        <pt x="79" y="0" on="1"/>
        <pt x="79" y="653" on="1"/>
        <pt x="483" y="653" on="1"/>
        <pt x="483" y="538" on="1"/>
        <pt x="216" y="538" on="1"/>
        <pt x="216" y="395" on="1"/>
        <pt x="443" y="395" on="1"/>
        <pt x="443" y="280" on="1"/>
        <pt x="216" y="280" on="1"/>
        <pt x="216" y="115" on="1"/>
        <pt x="493" y="115" on="1"/>
        <pt x="493" y="0" on="1"/>
        <pt x="488" y="0" on="1"/>
        <pt x="454" y="-2" on="0"/>
        <pt x="401" y="-58" on="0"/>
        <pt x="401" y="-93" on="1"/>
        <pt x="401" y="-112" on="0"/>
        <pt x="426" y="-132" on="0"/>
        <pt x="444" y="-132" on="1"/>
        <pt x="460" y="-132" on="0"/>
        <pt x="480" y="-118" on="1"/>
        <pt x="512" y="-188" on="1"/>
        <pt x="494" y="-202" on="0"/>
        <pt x="437" y="-222" on="0"/>
        <pt x="412" y="-222" on="1"/>
      </contour>
    </TTGlyph>
    <TTGlyph name="Eth" xMin="27" yMin="0" xMax="610" yMax="653">
      <contour>
        <pt x="439" y="653" on="0"/>
        <pt x="610" y="491" on="0"/>
        <pt x="610" y="329" on="1"/>
        <pt x="610" y="167" on="0"/>
        <pt x="441" y="0" on="0"/>
        <pt x="293" y="0" on="1"/>
        <pt x="104" y="0" on="1"/>
        <pt x="104" y="305" on="1"/>
        <pt x="27" y="305" on="1"/>
        <pt x="27" y="367" on="1"/>
        <pt x="104" y="372" on="1"/>
        <pt x="104" y="653" on="1"/>
        <pt x="285" y="653" on="1"/>
      </contour>
      <contour>
        <pt x="469" y="111" on="0"/>
        <pt x="469" y="329" on="1"/>
        <pt x="469" y="442" on="0"/>
        <pt x="370" y="542" on="0"/>
        <pt x="277" y="542" on="1"/>
        <pt x="241" y="542" on="1"/>
        <pt x="241" y="372" on="1"/>
        <pt x="369" y="372" on="1"/>
        <pt x="369" y="305" on="1"/>
        <pt x="241" y="305" on="1"/>
        <pt x="241" y="111" on="1"/>
        <pt x="277" y="111" on="1"/>
      </contour>
    </TTGlyph>
    <TTGlyph name="Euro" xMin="21" yMin="-12" xMax="514" yMax="648">
      <contour>
        <pt x="514" y="81" on="1"/>
        <pt x="440" y="-12" on="0"/>
        <pt x="334" y="-12" on="1"/>
        <pt x="239" y="-12" on="0"/>
        <pt x="104" y="108" on="0"/>
        <pt x="83" y="219" on="1"/>
        <pt x="21" y="219" on="1"/>
        <pt x="21" y="283" on="1"/>
        <pt x="76" y="287" on="1"/>
        <pt x="75" y="296" on="0"/>
        <pt x="75" y="315" on="1"/>
        <pt x="75" y="333" on="0"/>
        <pt x="76" y="342" on="1"/>
        <pt x="21" y="342" on="1"/>
        <pt x="21" y="406" on="1"/>
        <pt x="84" y="411" on="1"/>
        <pt x="106" y="523" on="0"/>
        <pt x="245" y="648" on="0"/>
        <pt x="345" y="648" on="1"/>
        <pt x="390" y="648" on="0"/>
        <pt x="474" y="607" on="0"/>
        <pt x="506" y="570" on="1"/>
        <pt x="430" y="496" on="1"/>
        <pt x="408" y="518" on="0"/>
        <pt x="366" y="542" on="0"/>
        <pt x="341" y="542" on="1"/>
        <pt x="295" y="542" on="0"/>
        <pt x="234" y="475" on="0"/>
        <pt x="221" y="412" on="1"/>
        <pt x="442" y="412" on="1"/>
        <pt x="442" y="342" on="1"/>
        <pt x="213" y="342" on="1"/>
        <pt x="213" y="319" on="1"/>
        <pt x="213" y="299" on="0"/>
        <pt x="214" y="289" on="1"/>
        <pt x="402" y="289" on="1"/>
        <pt x="402" y="219" on="1"/>
        <pt x="223" y="219" on="1"/>
        <pt x="236" y="159" on="0"/>
        <pt x="297" y="94" on="0"/>
        <pt x="342" y="94" on="1"/>
        <pt x="371" y="94" on="0"/>
        <pt x="417" y="123" on="0"/>
        <pt x="438" y="151" on="1"/>
      </contour>
    </TTGlyph>
    <TTGlyph name="Euro.001" xMin="21" yMin="-12" xMax="514" yMax="648">
      <contour>
        <pt x="514" y="81" on="1"/>
        <pt x="440" y="-12" on="0"/>
        <pt x="334" y="-12" on="1"/>
        <pt x="239" y="-12" on="0"/>
        <pt x="104" y="108" on="0"/>
        <pt x="83" y="219" on="1"/>
        <pt x="21" y="219" on="1"/>
        <pt x="21" y="283" on="1"/>
        <pt x="76" y="287" on="1"/>
        <pt x="75" y="296" on="0"/>
        <pt x="75" y="315" on="1"/>
        <pt x="75" y="333" on="0"/>
        <pt x="76" y="342" on="1"/>
        <pt x="21" y="342" on="1"/>
        <pt x="21" y="406" on="1"/>
        <pt x="84" y="411" on="1"/>
        <pt x="106" y="523" on="0"/>
        <pt x="245" y="648" on="0"/>
        <pt x="345" y="648" on="1"/>
        <pt x="390" y="648" on="0"/>
        <pt x="474" y="607" on="0"/>
        <pt x="506" y="570" on="1"/>
        <pt x="430" y="496" on="1"/>
        <pt x="408" y="518" on="0"/>
        <pt x="366" y="542" on="0"/>
        <pt x="341" y="542" on="1"/>
        <pt x="295" y="542" on="0"/>
        <pt x="234" y="475" on="0"/>
        <pt x="221" y="412" on="1"/>
        <pt x="442" y="412" on="1"/>
        <pt x="442" y="342" on="1"/>
        <pt x="213" y="342" on="1"/>
        <pt x="213" y="319" on="1"/>
        <pt x="213" y="299" on="0"/>
        <pt x="214" y="289" on="1"/>
        <pt x="402" y="289" on="1"/>
        <pt x="402" y="219" on="1"/>
        <pt x="223" y="219" on="1"/>
        <pt x="236" y="159" on="0"/>
        <pt x="297" y="94" on="0"/>
        <pt x="342" y="94" on="1"/>
        <pt x="371" y="94" on="0"/>
        <pt x="417" y="123" on="0"/>
        <pt x="438" y="151" on="1"/>
      </contour>
    </TTGlyph>
    <TTGlyph name="Euro.lat" xMin="21" yMin="-12" xMax="514" yMax="648">
      <contour>
        <pt x="514" y="81" on="1"/>
        <pt x="440" y="-12" on="0"/>
        <pt x="334" y="-12" on="1"/>
        <pt x="239" y="-12" on="0"/>
        <pt x="104" y="108" on="0"/>
        <pt x="83" y="219" on="1"/>
        <pt x="21" y="219" on="1"/>
        <pt x="21" y="283" on="1"/>
        <pt x="76" y="287" on="1"/>
        <pt x="75" y="296" on="0"/>
        <pt x="75" y="315" on="1"/>
        <pt x="75" y="333" on="0"/>
        <pt x="76" y="342" on="1"/>
        <pt x="21" y="342" on="1"/>
        <pt x="21" y="406" on="1"/>
        <pt x="84" y="411" on="1"/>
        <pt x="106" y="523" on="0"/>
        <pt x="245" y="648" on="0"/>
        <pt x="345" y="648" on="1"/>
        <pt x="390" y="648" on="0"/>
        <pt x="474" y="607" on="0"/>
        <pt x="506" y="570" on="1"/>
        <pt x="430" y="496" on="1"/>
        <pt x="408" y="518" on="0"/>
        <pt x="366" y="542" on="0"/>
        <pt x="341" y="542" on="1"/>
        <pt x="295" y="542" on="0"/>
        <pt x="234" y="475" on="0"/>
        <pt x="221" y="412" on="1"/>
        <pt x="442" y="412" on="1"/>
        <pt x="442" y="342" on="1"/>
        <pt x="213" y="342" on="1"/>
        <pt x="213" y="319" on="1"/>
        <pt x="213" y="299" on="0"/>
        <pt x="214" y="289" on="1"/>
        <pt x="402" y="289" on="1"/>
        <pt x="402" y="219" on="1"/>
        <pt x="223" y="219" on="1"/>
        <pt x="236" y="159" on="0"/>
        <pt x="297" y="94" on="0"/>
        <pt x="342" y="94" on="1"/>
        <pt x="371" y="94" on="0"/>
        <pt x="417" y="123" on="0"/>
        <pt x="438" y="151" on="1"/>
      </contour>
    </TTGlyph>
    <TTGlyph name="Euro.lat.001" xMin="21" yMin="-12" xMax="514" yMax="648">
      <contour>
        <pt x="514" y="81" on="1"/>
        <pt x="440" y="-12" on="0"/>
        <pt x="334" y="-12" on="1"/>
        <pt x="239" y="-12" on="0"/>
        <pt x="104" y="108" on="0"/>
        <pt x="83" y="219" on="1"/>
        <pt x="21" y="219" on="1"/>
        <pt x="21" y="283" on="1"/>
        <pt x="76" y="287" on="1"/>
        <pt x="75" y="296" on="0"/>
        <pt x="75" y="315" on="1"/>
        <pt x="75" y="333" on="0"/>
        <pt x="76" y="342" on="1"/>
        <pt x="21" y="342" on="1"/>
        <pt x="21" y="406" on="1"/>
        <pt x="84" y="411" on="1"/>
        <pt x="106" y="523" on="0"/>
        <pt x="245" y="648" on="0"/>
        <pt x="345" y="648" on="1"/>
        <pt x="390" y="648" on="0"/>
        <pt x="474" y="607" on="0"/>
        <pt x="506" y="570" on="1"/>
        <pt x="430" y="496" on="1"/>
        <pt x="408" y="518" on="0"/>
        <pt x="366" y="542" on="0"/>
        <pt x="341" y="542" on="1"/>
        <pt x="295" y="542" on="0"/>
        <pt x="234" y="475" on="0"/>
        <pt x="221" y="412" on="1"/>
        <pt x="442" y="412" on="1"/>
        <pt x="442" y="342" on="1"/>
        <pt x="213" y="342" on="1"/>
        <pt x="213" y="319" on="1"/>
        <pt x="213" y="299" on="0"/>
        <pt x="214" y="289" on="1"/>
        <pt x="402" y="289" on="1"/>
        <pt x="402" y="219" on="1"/>
        <pt x="223" y="219" on="1"/>
        <pt x="236" y="159" on="0"/>
        <pt x="297" y="94" on="0"/>
        <pt x="342" y="94" on="1"/>
        <pt x="371" y="94" on="0"/>
        <pt x="417" y="123" on="0"/>
        <pt x="438" y="151" on="1"/>
      </contour>
    </TTGlyph>
    <TTGlyph name="F" xMin="79" yMin="0" xMax="485" yMax="653">
      <contour>
        <pt x="79" y="653" on="1"/>
        <pt x="485" y="653" on="1"/>
        <pt x="485" y="538" on="1"/>
        <pt x="216" y="538" on="1"/>
        <pt x="216" y="375" on="1"/>
        <pt x="446" y="375" on="1"/>
        <pt x="446" y="260" on="1"/>
        <pt x="216" y="260" on="1"/>
        <pt x="216" y="0" on="1"/>
        <pt x="79" y="0" on="1"/>
      </contour>
    </TTGlyph>
    <TTGlyph name="G" xMin="47" yMin="-12" xMax="576" yMax="665">
      <contour>
        <pt x="272" y="-12" on="0"/>
        <pt x="129" y="66" on="0"/>
        <pt x="47" y="217" on="0"/>
        <pt x="47" y="323" on="1"/>
        <pt x="47" y="428" on="0"/>
        <pt x="131" y="583" on="0"/>
        <pt x="274" y="665" on="0"/>
        <pt x="362" y="665" on="1"/>
        <pt x="481" y="665" on="0"/>
        <pt x="565" y="581" on="1"/>
        <pt x="493" y="493" on="1"/>
        <pt x="465" y="519" on="0"/>
        <pt x="406" y="546" on="0"/>
        <pt x="367" y="546" on="1"/>
        <pt x="286" y="546" on="0"/>
        <pt x="188" y="429" on="0"/>
        <pt x="188" y="328" on="1"/>
        <pt x="188" y="222" on="0"/>
        <pt x="284" y="107" on="0"/>
        <pt x="377" y="107" on="1"/>
        <pt x="399" y="107" on="0"/>
        <pt x="441" y="119" on="0"/>
        <pt x="454" y="129" on="1"/>
        <pt x="454" y="251" on="1"/>
        <pt x="341" y="251" on="1"/>
        <pt x="341" y="363" on="1"/>
        <pt x="576" y="363" on="1"/>
        <pt x="576" y="67" on="1"/>
        <pt x="540" y="32" on="0"/>
        <pt x="428" y="-12" on="0"/>
        <pt x="363" y="-12" on="1"/>
      </contour>
    </TTGlyph>
    <TTGlyph name="Gcaron" xMin="47" yMin="-12" xMax="576" yMax="851">
      <component glyphName="G" x="0" y="0" flags="0x0"/>
      <component glyphName="uni030C.cap" x="365" y="0" flags="0x0"/>
    </TTGlyph>
    <TTGlyph name="Gdotaccent" xMin="47" yMin="-12" xMax="576" yMax="850">
      <component glyphName="G" x="0" y="0" flags="0x0"/>
      <component glyphName="uni0307.cap" x="365" y="0" flags="0x0"/>
    </TTGlyph>
    <TTGlyph name="H" xMin="79" yMin="0" xMax="591" yMax="653">
      <contour>
        <pt x="79" y="653" on="1"/>
        <pt x="216" y="653" on="1"/>
        <pt x="216" y="398" on="1"/>
        <pt x="454" y="398" on="1"/>
        <pt x="454" y="653" on="1"/>
        <pt x="591" y="653" on="1"/>
        <pt x="591" y="0" on="1"/>
        <pt x="454" y="0" on="1"/>
        <pt x="454" y="278" on="1"/>
        <pt x="216" y="278" on="1"/>
        <pt x="216" y="0" on="1"/>
        <pt x="79" y="0" on="1"/>
      </contour>
    </TTGlyph>
    <TTGlyph name="Hbar" xMin="26" yMin="0" xMax="682" yMax="653">
      <contour>
        <pt x="682" y="487" on="1"/>
        <pt x="611" y="487" on="1"/>
        <pt x="611" y="0" on="1"/>
        <pt x="474" y="0" on="1"/>
        <pt x="474" y="278" on="1"/>
        <pt x="236" y="278" on="1"/>
        <pt x="236" y="0" on="1"/>
        <pt x="99" y="0" on="1"/>
        <pt x="99" y="487" on="1"/>
        <pt x="26" y="487" on="1"/>
        <pt x="26" y="549" on="1"/>
        <pt x="99" y="554" on="1"/>
        <pt x="99" y="653" on="1"/>
        <pt x="236" y="653" on="1"/>
        <pt x="236" y="554" on="1"/>
        <pt x="474" y="554" on="1"/>
        <pt x="474" y="653" on="1"/>
        <pt x="611" y="653" on="1"/>
        <pt x="611" y="554" on="1"/>
        <pt x="682" y="554" on="1"/>
      </contour>
      <contour>
        <pt x="474" y="487" on="1"/>
        <pt x="236" y="487" on="1"/>
        <pt x="236" y="398" on="1"/>
        <pt x="474" y="398" on="1"/>
      </contour>
    </TTGlyph>
    <TTGlyph name="I" xMin="79" yMin="0" xMax="216" yMax="653">
      <contour>
        <pt x="79" y="653" on="1"/>
        <pt x="216" y="653" on="1"/>
        <pt x="216" y="0" on="1"/>
        <pt x="79" y="0" on="1"/>
      </contour>
    </TTGlyph>
    <TTGlyph name="Iacute" xMin="76" yMin="0" xMax="315" yMax="890">
      <component glyphName="I" x="0" y="0" flags="0x0"/>
      <component glyphName="acutecomb.cap" x="148" y="0" flags="0x0"/>
    </TTGlyph>
    <TTGlyph name="Icircumflex" xMin="-18" yMin="0" xMax="314" yMax="836">
      <component glyphName="I" x="0" y="0" flags="0x0"/>
      <component glyphName="uni0302.cap" x="148" y="0" flags="0x0"/>
    </TTGlyph>
    <TTGlyph name="Idieresis" xMin="-28" yMin="0" xMax="324" yMax="836">
      <component glyphName="I" x="0" y="0" flags="0x0"/>
      <component glyphName="uni0308.cap" x="148" y="0" flags="0x0"/>
    </TTGlyph>
    <TTGlyph name="Igrave" xMin="-19" yMin="0" xMax="220" yMax="890">
      <component glyphName="I" x="0" y="0" flags="0x0"/>
      <component glyphName="gravecomb.cap" x="148" y="0" flags="0x0"/>
    </TTGlyph>
    <TTGlyph name="Imacron" xMin="-1" yMin="0" xMax="296" yMax="812">
      <component glyphName="I" x="0" y="0" flags="0x0"/>
      <component glyphName="uni0304.cap" x="148" y="0" flags="0x0"/>
    </TTGlyph>
    <TTGlyph name="J" xMin="18" yMin="-12" xMax="428" yMax="653">
      <contour>
        <pt x="152" y="-12" on="0"/>
        <pt x="51" y="46" on="0"/>
        <pt x="18" y="104" on="1"/>
        <pt x="112" y="173" on="1"/>
        <pt x="130" y="140" on="0"/>
        <pt x="179" y="107" on="0"/>
        <pt x="206" y="107" on="1"/>
        <pt x="250" y="107" on="0"/>
        <pt x="291" y="160" on="0"/>
        <pt x="291" y="225" on="1"/>
        <pt x="291" y="653" on="1"/>
        <pt x="428" y="653" on="1"/>
        <pt x="428" y="213" on="1"/>
        <pt x="428" y="115" on="0"/>
        <pt x="325" y="-12" on="0"/>
        <pt x="224" y="-12" on="1"/>
      </contour>
    </TTGlyph>
    <TTGlyph name="K" xMin="79" yMin="0" xMax="613" yMax="653">
      <contour>
        <pt x="79" y="653" on="1"/>
        <pt x="216" y="653" on="1"/>
        <pt x="216" y="376" on="1"/>
        <pt x="220" y="376" on="1"/>
        <pt x="427" y="653" on="1"/>
        <pt x="578" y="653" on="1"/>
        <pt x="379" y="394" on="1"/>
        <pt x="613" y="0" on="1"/>
        <pt x="463" y="0" on="1"/>
        <pt x="298" y="286" on="1"/>
        <pt x="216" y="180" on="1"/>
        <pt x="216" y="0" on="1"/>
        <pt x="79" y="0" on="1"/>
      </contour>
    </TTGlyph>
    <TTGlyph name="L" xMin="79" yMin="0" xMax="478" yMax="653">
      <contour>
        <pt x="79" y="653" on="1"/>
        <pt x="216" y="653" on="1"/>
        <pt x="216" y="115" on="1"/>
        <pt x="478" y="115" on="1"/>
        <pt x="478" y="0" on="1"/>
        <pt x="79" y="0" on="1"/>
      </contour>
    </TTGlyph>
    <TTGlyph name="Lslash" xMin="-21" yMin="0" xMax="485" yMax="653">
      <contour>
        <pt x="485" y="115" on="1"/>
        <pt x="485" y="0" on="1"/>
        <pt x="86" y="0" on="1"/>
        <pt x="86" y="215" on="1"/>
        <pt x="26" y="180" on="1"/>
        <pt x="-21" y="262" on="1"/>
        <pt x="86" y="323" on="1"/>
        <pt x="86" y="653" on="1"/>
        <pt x="223" y="653" on="1"/>
        <pt x="223" y="384" on="1"/>
        <pt x="383" y="473" on="1"/>
        <pt x="430" y="390" on="1"/>
        <pt x="223" y="278" on="1"/>
        <pt x="223" y="115" on="1"/>
      </contour>
    </TTGlyph>
    <TTGlyph name="M" xMin="79" yMin="0" xMax="678" yMax="653">
      <contour>
        <pt x="79" y="653" on="1"/>
        <pt x="230" y="653" on="1"/>
        <pt x="339" y="353" on="1"/>
        <pt x="354" y="310" on="0"/>
        <pt x="365" y="271" on="1"/>
        <pt x="378" y="230" on="1"/>
        <pt x="382" y="230" on="1"/>
        <pt x="400" y="287" on="1"/>
        <pt x="416" y="341" on="0"/>
        <pt x="421" y="353" on="1"/>
        <pt x="527" y="653" on="1"/>
        <pt x="678" y="653" on="1"/>
        <pt x="678" y="0" on="1"/>
        <pt x="553" y="0" on="1"/>
        <pt x="553" y="259" on="1"/>
        <pt x="553" y="314" on="0"/>
        <pt x="566" y="437" on="1"/>
        <pt x="570" y="476" on="1"/>
        <pt x="566" y="476" on="1"/>
        <pt x="513" y="323" on="1"/>
        <pt x="416" y="58" on="1"/>
        <pt x="338" y="58" on="1"/>
        <pt x="241" y="323" on="1"/>
        <pt x="189" y="476" on="1"/>
        <pt x="185" y="476" on="1"/>
        <pt x="189" y="437" on="1"/>
        <pt x="202" y="314" on="0"/>
        <pt x="202" y="259" on="1"/>
        <pt x="202" y="0" on="1"/>
        <pt x="79" y="0" on="1"/>
      </contour>
    </TTGlyph>
    <TTGlyph name="N" xMin="79" yMin="0" xMax="583" yMax="653">
      <contour>
        <pt x="79" y="653" on="1"/>
        <pt x="220" y="653" on="1"/>
        <pt x="401" y="314" on="1"/>
        <pt x="466" y="172" on="1"/>
        <pt x="470" y="172" on="1"/>
        <pt x="469" y="189" on="0"/>
        <pt x="465" y="225" on="1"/>
        <pt x="453" y="341" on="0"/>
        <pt x="453" y="405" on="1"/>
        <pt x="453" y="653" on="1"/>
        <pt x="583" y="653" on="1"/>
        <pt x="583" y="0" on="1"/>
        <pt x="443" y="0" on="1"/>
        <pt x="262" y="339" on="1"/>
        <pt x="196" y="481" on="1"/>
        <pt x="192" y="481" on="1"/>
        <pt x="193" y="469" on="0"/>
        <pt x="197" y="436" on="1"/>
        <pt x="202" y="390" on="0"/>
        <pt x="210" y="289" on="0"/>
        <pt x="210" y="250" on="1"/>
        <pt x="210" y="0" on="1"/>
        <pt x="79" y="0" on="1"/>
      </contour>
    </TTGlyph>
    <TTGlyph name="Ntilde" xMin="79" yMin="0" xMax="583" yMax="850">
      <component glyphName="N" x="0" y="0" flags="0x0"/>
      <component glyphName="tildecomb.cap" x="333" y="0" flags="0x0"/>
    </TTGlyph>
    <TTGlyph name="O" xMin="47" yMin="-12" xMax="634" yMax="665">
      <contour>
        <pt x="254" y="-12" on="0"/>
        <pt x="121" y="70" on="0"/>
        <pt x="47" y="225" on="0"/>
        <pt x="47" y="329" on="1"/>
        <pt x="47" y="434" on="0"/>
        <pt x="121" y="585" on="0"/>
        <pt x="254" y="665" on="0"/>
        <pt x="341" y="665" on="1"/>
        <pt x="428" y="665" on="0"/>
        <pt x="561" y="585" on="0"/>
        <pt x="634" y="433" on="0"/>
        <pt x="634" y="329" on="1"/>
        <pt x="634" y="225" on="0"/>
        <pt x="561" y="70" on="0"/>
        <pt x="428" y="-12" on="0"/>
        <pt x="341" y="-12" on="1"/>
      </contour>
      <contour>
        <pt x="410" y="107" on="0"/>
        <pt x="493" y="227" on="0"/>
        <pt x="493" y="329" on="1"/>
        <pt x="493" y="431" on="0"/>
        <pt x="411" y="546" on="0"/>
        <pt x="340" y="546" on="1"/>
        <pt x="270" y="546" on="0"/>
        <pt x="187" y="430" on="0"/>
        <pt x="187" y="329" on="1"/>
        <pt x="187" y="227" on="0"/>
        <pt x="270" y="107" on="0"/>
        <pt x="340" y="107" on="1"/>
      </contour>
    </TTGlyph>
    <TTGlyph name="OE" xMin="47" yMin="0" xMax="815" yMax="653">
      <contour>
        <pt x="277" y="0" on="0"/>
        <pt x="130" y="74" on="0"/>
        <pt x="47" y="222" on="0"/>
        <pt x="47" y="329" on="1"/>
        <pt x="47" y="490" on="0"/>
        <pt x="227" y="653" on="0"/>
        <pt x="380" y="653" on="1"/>
        <pt x="805" y="653" on="1"/>
        <pt x="805" y="538" on="1"/>
        <pt x="553" y="538" on="1"/>
        <pt x="553" y="395" on="1"/>
        <pt x="765" y="395" on="1"/>
        <pt x="765" y="280" on="1"/>
        <pt x="553" y="280" on="1"/>
        <pt x="553" y="115" on="1"/>
        <pt x="815" y="115" on="1"/>
        <pt x="815" y="0" on="1"/>
        <pt x="372" y="0" on="1"/>
      </contour>
      <contour>
        <pt x="415" y="111" on="1"/>
        <pt x="415" y="542" on="1"/>
        <pt x="388" y="542" on="1"/>
        <pt x="291" y="542" on="0"/>
        <pt x="187" y="443" on="0"/>
        <pt x="187" y="329" on="1"/>
        <pt x="187" y="111" on="0"/>
        <pt x="388" y="111" on="1"/>
      </contour>
    </TTGlyph>
    <TTGlyph name="Oacute" xMin="47" yMin="-12" xMax="634" yMax="890">
      <component glyphName="O" x="0" y="0" flags="0x0"/>
      <component glyphName="acutecomb.cap" x="341" y="0" flags="0x0"/>
    </TTGlyph>
    <TTGlyph name="Obreve" xMin="47" yMin="-12" xMax="634" yMax="847">
      <component glyphName="O" x="0" y="0" flags="0x0"/>
      <component glyphName="uni0306.cap" x="341" y="0" flags="0x0"/>
    </TTGlyph>
    <TTGlyph name="Ocircumflex" xMin="47" yMin="-12" xMax="634" yMax="836">
      <component glyphName="O" x="0" y="0" flags="0x0"/>
      <component glyphName="uni0302.cap" x="341" y="0" flags="0x0"/>
    </TTGlyph>
    <TTGlyph name="Odieresis" xMin="47" yMin="-12" xMax="634" yMax="836">
      <component glyphName="O" x="0" y="0" flags="0x0"/>
      <component glyphName="uni0308.cap" x="341" y="0" flags="0x0"/>
    </TTGlyph>
    <TTGlyph name="Ograve" xMin="47" yMin="-12" xMax="634" yMax="890">
      <component glyphName="O" x="0" y="0" flags="0x0"/>
      <component glyphName="gravecomb.cap" x="341" y="0" flags="0x0"/>
    </TTGlyph>
    <TTGlyph name="Omacron" xMin="47" yMin="-12" xMax="634" yMax="812">
      <component glyphName="O" x="0" y="0" flags="0x0"/>
      <component glyphName="uni0304.cap" x="341" y="0" flags="0x0"/>
    </TTGlyph>
    <TTGlyph name="Oslash" xMin="41" yMin="-40" xMax="653" yMax="692">
      <contour>
        <pt x="579" y="544" on="1"/>
        <pt x="635" y="458" on="0"/>
        <pt x="635" y="329" on="1"/>
        <pt x="635" y="225" on="0"/>
        <pt x="562" y="70" on="0"/>
        <pt x="429" y="-12" on="0"/>
        <pt x="342" y="-12" on="1"/>
        <pt x="245" y="-12" on="0"/>
        <pt x="175" y="38" on="1"/>
        <pt x="113" y="-40" on="1"/>
        <pt x="41" y="16" on="1"/>
        <pt x="111" y="103" on="1"/>
        <pt x="48" y="193" on="0"/>
        <pt x="48" y="329" on="1"/>
        <pt x="48" y="434" on="0"/>
        <pt x="122" y="585" on="0"/>
        <pt x="255" y="665" on="0"/>
        <pt x="342" y="665" on="1"/>
        <pt x="444" y="665" on="0"/>
        <pt x="517" y="610" on="1"/>
        <pt x="582" y="692" on="1"/>
        <pt x="653" y="637" on="1"/>
      </contour>
      <contour>
        <pt x="188" y="270" on="0"/>
        <pt x="204" y="220" on="1"/>
        <pt x="435" y="509" on="1"/>
        <pt x="398" y="546" on="0"/>
        <pt x="341" y="546" on="1"/>
        <pt x="271" y="546" on="0"/>
        <pt x="188" y="430" on="0"/>
        <pt x="188" y="329" on="1"/>
      </contour>
      <contour>
        <pt x="494" y="381" on="0"/>
        <pt x="483" y="423" on="1"/>
        <pt x="255" y="138" on="1"/>
        <pt x="292" y="107" on="0"/>
        <pt x="341" y="107" on="1"/>
        <pt x="411" y="107" on="0"/>
        <pt x="494" y="227" on="0"/>
        <pt x="494" y="329" on="1"/>
      </contour>
    </TTGlyph>
    <TTGlyph name="Otilde" xMin="47" yMin="-12" xMax="634" yMax="850">
      <component glyphName="O" x="0" y="0" flags="0x0"/>
      <component glyphName="tildecomb.cap" x="341" y="0" flags="0x0"/>
    </TTGlyph>
    <TTGlyph name="P" xMin="79" yMin="0" xMax="554" yMax="653">
      <contour>
        <pt x="79" y="653" on="1"/>
        <pt x="297" y="653" on="1"/>
        <pt x="415" y="653" on="0"/>
        <pt x="554" y="556" on="0"/>
        <pt x="554" y="446" on="1"/>
        <pt x="554" y="338" on="0"/>
        <pt x="412" y="228" on="0"/>
        <pt x="301" y="228" on="1"/>
        <pt x="216" y="228" on="1"/>
        <pt x="216" y="0" on="1"/>
        <pt x="79" y="0" on="1"/>
      </contour>
      <contour>
        <pt x="292" y="337" on="1"/>
        <pt x="420" y="337" on="0"/>
        <pt x="420" y="446" on="1"/>
        <pt x="420" y="498" on="0"/>
        <pt x="355" y="544" on="0"/>
        <pt x="288" y="544" on="1"/>
        <pt x="216" y="544" on="1"/>
        <pt x="216" y="337" on="1"/>
      </contour>
    </TTGlyph>
    <TTGlyph name="Q" xMin="47" yMin="-179" xMax="665" yMax="665">
      <contour>
        <pt x="665" y="-159" on="1"/>
        <pt x="647" y="-168" on="0"/>
        <pt x="588" y="-179" on="0"/>
        <pt x="553" y="-179" on="1"/>
        <pt x="455" y="-179" on="0"/>
        <pt x="313" y="-85" on="0"/>
        <pt x="278" y="-6" on="1"/>
        <pt x="172" y="15" on="0"/>
        <pt x="47" y="192" on="0"/>
        <pt x="47" y="329" on="1"/>
        <pt x="47" y="434" on="0"/>
        <pt x="121" y="585" on="0"/>
        <pt x="254" y="665" on="0"/>
        <pt x="341" y="665" on="1"/>
        <pt x="428" y="665" on="0"/>
        <pt x="561" y="585" on="0"/>
        <pt x="634" y="433" on="0"/>
        <pt x="634" y="329" on="1"/>
        <pt x="634" y="198" on="0"/>
        <pt x="521" y="25" on="0"/>
        <pt x="423" y="-2" on="1"/>
        <pt x="444" y="-36" on="0"/>
        <pt x="522" y="-69" on="0"/>
        <pt x="569" y="-69" on="1"/>
        <pt x="606" y="-69" on="0"/>
        <pt x="641" y="-58" on="1"/>
      </contour>
      <contour>
        <pt x="187" y="222" on="0"/>
        <pt x="270" y="100" on="0"/>
        <pt x="340" y="100" on="1"/>
        <pt x="411" y="100" on="0"/>
        <pt x="493" y="222" on="0"/>
        <pt x="493" y="329" on="1"/>
        <pt x="493" y="431" on="0"/>
        <pt x="411" y="546" on="0"/>
        <pt x="340" y="546" on="1"/>
        <pt x="270" y="546" on="0"/>
        <pt x="187" y="430" on="0"/>
        <pt x="187" y="329" on="1"/>
      </contour>
    </TTGlyph>
    <TTGlyph name="R" xMin="79" yMin="0" xMax="587" yMax="653">
      <contour>
        <pt x="433" y="0" on="1"/>
        <pt x="303" y="242" on="1"/>
        <pt x="216" y="242" on="1"/>
        <pt x="216" y="0" on="1"/>
        <pt x="79" y="0" on="1"/>
        <pt x="79" y="653" on="1"/>
        <pt x="309" y="653" on="1"/>
        <pt x="423" y="653" on="0"/>
        <pt x="557" y="560" on="0"/>
        <pt x="557" y="453" on="1"/>
        <pt x="557" y="383" on="0"/>
        <pt x="493" y="288" on="0"/>
        <pt x="436" y="265" on="1"/>
        <pt x="587" y="0" on="1"/>
      </contour>
      <contour>
        <pt x="216" y="351" on="1"/>
        <pt x="297" y="351" on="1"/>
        <pt x="359" y="351" on="0"/>
        <pt x="423" y="402" on="0"/>
        <pt x="423" y="453" on="1"/>
        <pt x="423" y="502" on="0"/>
        <pt x="361" y="544" on="0"/>
        <pt x="297" y="544" on="1"/>
        <pt x="216" y="544" on="1"/>
      </contour>
    </TTGlyph>
    <TTGlyph name="S" xMin="36" yMin="-12" xMax="518" yMax="665">
      <contour>
        <pt x="210" y="-12" on="0"/>
        <pt x="84" y="37" on="0"/>
        <pt x="36" y="83" on="1"/>
        <pt x="115" y="177" on="1"/>
        <pt x="151" y="145" on="0"/>
        <pt x="238" y="107" on="0"/>
        <pt x="279" y="107" on="1"/>
        <pt x="327" y="107" on="0"/>
        <pt x="378" y="144" on="0"/>
        <pt x="378" y="177" on="1"/>
        <pt x="378" y="198" on="0"/>
        <pt x="355" y="226" on="0"/>
        <pt x="320" y="244" on="0"/>
        <pt x="281" y="260" on="1"/>
        <pt x="195" y="297" on="1"/>
        <pt x="137" y="321" on="0"/>
        <pt x="63" y="408" on="0"/>
        <pt x="63" y="474" on="1"/>
        <pt x="63" y="527" on="0"/>
        <pt x="122" y="614" on="0"/>
        <pt x="226" y="665" on="0"/>
        <pt x="291" y="665" on="1"/>
        <pt x="348" y="665" on="0"/>
        <pt x="458" y="620" on="0"/>
        <pt x="498" y="580" on="1"/>
        <pt x="429" y="493" on="1"/>
        <pt x="395" y="520" on="0"/>
        <pt x="329" y="546" on="0"/>
        <pt x="291" y="546" on="1"/>
        <pt x="250" y="546" on="0"/>
        <pt x="202" y="512" on="0"/>
        <pt x="202" y="482" on="1"/>
        <pt x="202" y="461" on="0"/>
        <pt x="227" y="433" on="0"/>
        <pt x="264" y="415" on="0"/>
        <pt x="303" y="399" on="1"/>
        <pt x="387" y="365" on="1"/>
        <pt x="450" y="339" on="0"/>
        <pt x="518" y="254" on="0"/>
        <pt x="518" y="188" on="1"/>
        <pt x="518" y="133" on="0"/>
        <pt x="460" y="42" on="0"/>
        <pt x="350" y="-12" on="0"/>
        <pt x="276" y="-12" on="1"/>
      </contour>
    </TTGlyph>
    <TTGlyph name="Sacute" xMin="36" yMin="-12" xMax="518" yMax="890">
      <component glyphName="S" x="0" y="0" flags="0x0"/>
      <component glyphName="acutecomb.cap" x="289" y="0" flags="0x0"/>
    </TTGlyph>
    <TTGlyph name="Scaron" xMin="36" yMin="-12" xMax="518" yMax="851">
      <component glyphName="S" x="0" y="0" flags="0x0"/>
      <component glyphName="uni030C.cap" x="289" y="0" flags="0x0"/>
    </TTGlyph>
    <TTGlyph name="T" xMin="25" yMin="0" xMax="527" yMax="653">
      <contour>
        <pt x="208" y="538" on="1"/>
        <pt x="25" y="538" on="1"/>
        <pt x="25" y="653" on="1"/>
        <pt x="527" y="653" on="1"/>
        <pt x="527" y="538" on="1"/>
        <pt x="345" y="538" on="1"/>
        <pt x="345" y="0" on="1"/>
        <pt x="208" y="0" on="1"/>
      </contour>
    </TTGlyph>
    <TTGlyph name="Thorn" xMin="79" yMin="0" xMax="564" yMax="653">
      <contour>
        <pt x="79" y="653" on="1"/>
        <pt x="216" y="653" on="1"/>
        <pt x="216" y="552" on="1"/>
        <pt x="311" y="552" on="1"/>
        <pt x="427" y="552" on="0"/>
        <pt x="564" y="455" on="0"/>
        <pt x="564" y="345" on="1"/>
        <pt x="564" y="237" on="0"/>
        <pt x="422" y="127" on="0"/>
        <pt x="311" y="127" on="1"/>
        <pt x="216" y="127" on="1"/>
        <pt x="216" y="0" on="1"/>
        <pt x="79" y="0" on="1"/>
      </contour>
      <contour>
        <pt x="302" y="236" on="1"/>
        <pt x="430" y="236" on="0"/>
        <pt x="430" y="345" on="1"/>
        <pt x="430" y="398" on="0"/>
        <pt x="367" y="443" on="0"/>
        <pt x="302" y="443" on="1"/>
        <pt x="216" y="443" on="1"/>
        <pt x="216" y="236" on="1"/>
      </contour>
    </TTGlyph>
    <TTGlyph name="U" xMin="75" yMin="-12" xMax="586" yMax="653">
      <contour>
        <pt x="75" y="-12" on="0"/>
        <pt x="75" y="297" on="1"/>
        <pt x="75" y="653" on="1"/>
        <pt x="212" y="653" on="1"/>
        <pt x="212" y="284" on="1"/>
        <pt x="212" y="189" on="0"/>
        <pt x="273" y="107" on="0"/>
        <pt x="332" y="107" on="1"/>
        <pt x="391" y="107" on="0"/>
        <pt x="454" y="189" on="0"/>
        <pt x="454" y="284" on="1"/>
        <pt x="454" y="653" on="1"/>
        <pt x="586" y="653" on="1"/>
        <pt x="586" y="297" on="1"/>
        <pt x="586" y="138" on="0"/>
        <pt x="457" y="-12" on="0"/>
        <pt x="332" y="-12" on="1"/>
      </contour>
    </TTGlyph>
    <TTGlyph name="Uacute" xMin="75" yMin="-12" xMax="586" yMax="890">
      <component glyphName="U" x="0" y="0" flags="0x0"/>
      <component glyphName="acutecomb.cap" x="331" y="0" flags="0x0"/>
    </TTGlyph>
    <TTGlyph name="Ucircumflex" xMin="75" yMin="-12" xMax="586" yMax="836">
      <component glyphName="U" x="0" y="0" flags="0x0"/>
      <component glyphName="uni0302.cap" x="331" y="0" flags="0x0"/>
    </TTGlyph>
    <TTGlyph name="Udieresis" xMin="75" yMin="-12" xMax="586" yMax="836">
      <component glyphName="U" x="0" y="0" flags="0x0"/>
      <component glyphName="uni0308.cap" x="331" y="0" flags="0x0"/>
    </TTGlyph>
    <TTGlyph name="Ugrave" xMin="75" yMin="-12" xMax="586" yMax="890">
      <component glyphName="U" x="0" y="0" flags="0x0"/>
      <component glyphName="gravecomb.cap" x="331" y="0" flags="0x0"/>
    </TTGlyph>
    <TTGlyph name="Umacron" xMin="75" yMin="-12" xMax="586" yMax="812">
      <component glyphName="U" x="0" y="0" flags="0x0"/>
      <component glyphName="uni0304.cap" x="331" y="0" flags="0x0"/>
    </TTGlyph>
    <TTGlyph name="V" xMin="-6" yMin="0" xMax="556" yMax="653">
      <contour>
        <pt x="-6" y="653" on="1"/>
        <pt x="139" y="653" on="1"/>
        <pt x="222" y="341" on="1"/>
        <pt x="237" y="287" on="0"/>
        <pt x="249" y="236" on="1"/>
        <pt x="281" y="110" on="0"/>
        <pt x="276" y="130" on="1"/>
        <pt x="280" y="130" on="1"/>
        <pt x="285" y="148" on="0"/>
        <pt x="314" y="261" on="1"/>
        <pt x="334" y="341" on="1"/>
        <pt x="416" y="653" on="1"/>
        <pt x="556" y="653" on="1"/>
        <pt x="357" y="0" on="1"/>
        <pt x="193" y="0" on="1"/>
      </contour>
    </TTGlyph>
    <TTGlyph name="W" xMin="15" yMin="0" xMax="794" yMax="653">
      <contour>
        <pt x="15" y="653" on="1"/>
        <pt x="156" y="653" on="1"/>
        <pt x="205" y="340" on="1"/>
        <pt x="233" y="133" on="1"/>
        <pt x="237" y="133" on="1"/>
        <pt x="277" y="340" on="1"/>
        <pt x="351" y="653" on="1"/>
        <pt x="468" y="653" on="1"/>
        <pt x="541" y="340" on="1"/>
        <pt x="564" y="224" on="1"/>
        <pt x="582" y="133" on="1"/>
        <pt x="586" y="133" on="1"/>
        <pt x="605" y="280" on="0"/>
        <pt x="614" y="340" on="1"/>
        <pt x="663" y="653" on="1"/>
        <pt x="794" y="653" on="1"/>
        <pt x="675" y="0" on="1"/>
        <pt x="503" y="0" on="1"/>
        <pt x="434" y="312" on="1"/>
        <pt x="418" y="387" on="0"/>
        <pt x="407" y="463" on="1"/>
        <pt x="403" y="463" on="1"/>
        <pt x="395" y="417" on="1"/>
        <pt x="383" y="347" on="0"/>
        <pt x="375" y="312" on="1"/>
        <pt x="308" y="0" on="1"/>
        <pt x="139" y="0" on="1"/>
      </contour>
    </TTGlyph>
    <TTGlyph name="X" xMin="12" yMin="0" xMax="547" yMax="653">
      <contour>
        <pt x="194" y="336" on="1"/>
        <pt x="23" y="653" on="1"/>
        <pt x="176" y="653" on="1"/>
        <pt x="238" y="522" on="1"/>
        <pt x="247" y="504" on="0"/>
        <pt x="269" y="456" on="1"/>
        <pt x="286" y="419" on="1"/>
        <pt x="290" y="419" on="1"/>
        <pt x="304" y="458" on="0"/>
        <pt x="332" y="522" on="1"/>
        <pt x="390" y="653" on="1"/>
        <pt x="536" y="653" on="1"/>
        <pt x="365" y="330" on="1"/>
        <pt x="547" y="0" on="1"/>
        <pt x="394" y="0" on="1"/>
        <pt x="325" y="140" on="1"/>
        <pt x="306" y="177" on="0"/>
        <pt x="275" y="247" on="1"/>
        <pt x="271" y="247" on="1"/>
        <pt x="259" y="218" on="0"/>
        <pt x="225" y="140" on="1"/>
        <pt x="158" y="0" on="1"/>
        <pt x="12" y="0" on="1"/>
      </contour>
    </TTGlyph>
    <TTGlyph name="Y" xMin="-7" yMin="0" xMax="523" yMax="653">
      <contour>
        <pt x="190" y="236" on="1"/>
        <pt x="-7" y="653" on="1"/>
        <pt x="140" y="653" on="1"/>
        <pt x="202" y="497" on="1"/>
        <pt x="219" y="449" on="0"/>
        <pt x="236" y="408" on="1"/>
        <pt x="257" y="353" on="1"/>
        <pt x="261" y="353" on="1"/>
        <pt x="285" y="414" on="0"/>
        <pt x="293" y="433" on="1"/>
        <pt x="298" y="446" on="0"/>
        <pt x="311" y="478" on="0"/>
        <pt x="318" y="497" on="1"/>
        <pt x="380" y="653" on="1"/>
        <pt x="523" y="653" on="1"/>
        <pt x="327" y="236" on="1"/>
        <pt x="327" y="0" on="1"/>
        <pt x="190" y="0" on="1"/>
      </contour>
    </TTGlyph>
    <TTGlyph name="Yacute" xMin="-7" yMin="0" xMax="523" yMax="890">
      <component glyphName="Y" x="0" y="0" flags="0x0"/>
      <component glyphName="acutecomb.cap" x="259" y="0" flags="0x0"/>
    </TTGlyph>
    <TTGlyph name="Ydieresis" xMin="-7" yMin="0" xMax="523" yMax="836">
      <component glyphName="Y" x="0" y="0" flags="0x0"/>
      <component glyphName="uni0308.cap" x="259" y="0" flags="0x0"/>
    </TTGlyph>
    <TTGlyph name="Z" xMin="37" yMin="0" xMax="506" yMax="653">
      <contour>
        <pt x="37" y="83" on="1"/>
        <pt x="335" y="538" on="1"/>
        <pt x="65" y="538" on="1"/>
        <pt x="65" y="653" on="1"/>
        <pt x="504" y="653" on="1"/>
        <pt x="504" y="570" on="1"/>
        <pt x="206" y="115" on="1"/>
        <pt x="506" y="115" on="1"/>
        <pt x="506" y="0" on="1"/>
        <pt x="37" y="0" on="1"/>
      </contour>
    </TTGlyph>
    <TTGlyph name="ZWJ" xMin="-150" yMin="785" xMax="151" yMax="894">
      <contour>
        <pt x="-150" y="894" on="1"/>
        <pt x="151" y="894" on="1"/>
        <pt x="151" y="785" on="1"/>
        <pt x="117" y="785" on="1"/>
        <pt x="117" y="858" on="1"/>
        <pt x="-116" y="858" on="1"/>
        <pt x="-116" y="785" on="1"/>
        <pt x="-150" y="785" on="1"/>
      </contour>
    </TTGlyph>
    <TTGlyph name="ZWNJ" xMin="-104" yMin="767" xMax="103" yMax="984">
      <contour>
        <pt x="-104" y="792" on="1"/>
        <pt x="-26" y="875" on="1"/>
        <pt x="-104" y="957" on="1"/>
        <pt x="-81" y="984" on="1"/>
        <pt x="0" y="900" on="1"/>
        <pt x="79" y="982" on="1"/>
        <pt x="103" y="957" on="1"/>
        <pt x="24" y="875" on="1"/>
        <pt x="103" y="792" on="1"/>
        <pt x="79" y="768" on="1"/>
        <pt x="0" y="848" on="1"/>
        <pt x="-81" y="767" on="1"/>
      </contour>
    </TTGlyph>
    <TTGlyph name="Zcaron" xMin="37" yMin="0" xMax="506" yMax="851">
      <component glyphName="Z" x="0" y="0" flags="0x0"/>
      <component glyphName="uni030C.cap" x="283" y="0" flags="0x0"/>
    </TTGlyph>
    <TTGlyph name="a" xMin="43" yMin="-12" xMax="462" yMax="507">
      <contour>
        <pt x="124" y="-12" on="0"/>
        <pt x="43" y="72" on="0"/>
        <pt x="43" y="136" on="1"/>
        <pt x="43" y="215" on="0"/>
        <pt x="178" y="302" on="0"/>
        <pt x="326" y="318" on="1"/>
        <pt x="321" y="398" on="0"/>
        <pt x="244" y="398" on="1"/>
        <pt x="213" y="398" on="0"/>
        <pt x="149" y="374" on="0"/>
        <pt x="110" y="352" on="1"/>
        <pt x="61" y="442" on="1"/>
        <pt x="166" y="507" on="0"/>
        <pt x="270" y="507" on="1"/>
        <pt x="364" y="507" on="0"/>
        <pt x="462" y="396" on="0"/>
        <pt x="462" y="286" on="1"/>
        <pt x="462" y="0" on="1"/>
        <pt x="351" y="0" on="1"/>
        <pt x="341" y="52" on="1"/>
        <pt x="337" y="52" on="1"/>
        <pt x="264" y="-12" on="0"/>
        <pt x="190" y="-12" on="1"/>
      </contour>
      <contour>
        <pt x="260" y="94" on="0"/>
        <pt x="301" y="116" on="0"/>
        <pt x="326" y="140" on="1"/>
        <pt x="326" y="235" on="1"/>
        <pt x="245" y="224" on="0"/>
        <pt x="174" y="180" on="0"/>
        <pt x="174" y="147" on="1"/>
        <pt x="174" y="121" on="0"/>
        <pt x="207" y="94" on="0"/>
        <pt x="236" y="94" on="1"/>
      </contour>
    </TTGlyph>
    <TTGlyph name="a.sups" xMin="30" yMin="371" xMax="316" yMax="715">
      <contour>
        <pt x="86" y="371" on="0"/>
        <pt x="30" y="428" on="0"/>
        <pt x="30" y="470" on="1"/>
        <pt x="30" y="523" on="0"/>
        <pt x="120" y="580" on="0"/>
        <pt x="219" y="589" on="1"/>
        <pt x="217" y="613" on="0"/>
        <pt x="193" y="638" on="0"/>
        <pt x="168" y="638" on="1"/>
        <pt x="129" y="638" on="0"/>
        <pt x="76" y="607" on="1"/>
        <pt x="41" y="671" on="1"/>
        <pt x="115" y="715" on="0"/>
        <pt x="185" y="715" on="1"/>
        <pt x="248" y="715" on="0"/>
        <pt x="316" y="641" on="0"/>
        <pt x="316" y="569" on="1"/>
        <pt x="316" y="379" on="1"/>
        <pt x="238" y="379" on="1"/>
        <pt x="229" y="413" on="1"/>
        <pt x="225" y="413" on="1"/>
        <pt x="181" y="371" on="0"/>
        <pt x="131" y="371" on="1"/>
      </contour>
      <contour>
        <pt x="178" y="445" on="0"/>
        <pt x="204" y="459" on="0"/>
        <pt x="219" y="473" on="1"/>
        <pt x="219" y="533" on="1"/>
        <pt x="123" y="522" on="0"/>
        <pt x="123" y="478" on="1"/>
        <pt x="123" y="462" on="0"/>
        <pt x="144" y="445" on="0"/>
        <pt x="163" y="445" on="1"/>
      </contour>
    </TTGlyph>
    <TTGlyph name="aacute" xMin="43" yMin="-12" xMax="467" yMax="819">
      <component glyphName="a" x="0" y="0" flags="0x0"/>
      <component glyphName="acutecomb" x="283" y="0" flags="0x0"/>
    </TTGlyph>
    <TTGlyph name="abreve" xMin="43" yMin="-12" xMax="462" yMax="741">
      <component glyphName="a" x="0" y="0" flags="0x0"/>
      <component glyphName="uni0306" x="283" y="0" flags="0x0"/>
    </TTGlyph>
    <TTGlyph name="acircumflex" xMin="43" yMin="-12" xMax="462" yMax="744">
      <component glyphName="a" x="0" y="0" flags="0x0"/>
      <component glyphName="uni0302" x="283" y="0" flags="0x0"/>
    </TTGlyph>
    <TTGlyph name="acute" xMin="216" yMin="573" xMax="461" yMax="819">
      <component glyphName="acutecomb" x="277" y="0" flags="0x0"/>
    </TTGlyph>
    <TTGlyph name="acutecomb" xMin="-61" yMin="573" xMax="184" yMax="819">
      <contour>
        <pt x="-61" y="640" on="1"/>
        <pt x="91" y="819" on="1"/>
        <pt x="184" y="729" on="1"/>
        <pt x="7" y="573" on="1"/>
      </contour>
    </TTGlyph>
    <TTGlyph name="acutecomb.cap" xMin="-72" yMin="683" xMax="167" yMax="890">
      <contour>
        <pt x="-72" y="752" on="1"/>
        <pt x="94" y="890" on="1"/>
        <pt x="167" y="801" on="1"/>
        <pt x="-12" y="683" on="1"/>
      </contour>
    </TTGlyph>
    <TTGlyph name="adieresis" xMin="43" yMin="-12" xMax="462" yMax="708">
      <component glyphName="a" x="0" y="0" flags="0x0"/>
      <component glyphName="uni0308" x="283" y="0" flags="0x0"/>
    </TTGlyph>
    <TTGlyph name="ae" xMin="48" yMin="-12" xMax="749" yMax="507">
      <contour>
        <pt x="129" y="-12" on="0"/>
        <pt x="48" y="72" on="0"/>
        <pt x="48" y="136" on="1"/>
        <pt x="48" y="215" on="0"/>
        <pt x="181" y="302" on="0"/>
        <pt x="328" y="318" on="1"/>
        <pt x="326" y="356" on="0"/>
        <pt x="289" y="398" on="0"/>
        <pt x="247" y="398" on="1"/>
        <pt x="218" y="398" on="0"/>
        <pt x="154" y="374" on="0"/>
        <pt x="115" y="352" on="1"/>
        <pt x="66" y="442" on="1"/>
        <pt x="171" y="507" on="0"/>
        <pt x="266" y="507" on="1"/>
        <pt x="312" y="507" on="0"/>
        <pt x="383" y="465" on="0"/>
        <pt x="404" y="427" on="1"/>
        <pt x="437" y="467" on="0"/>
        <pt x="509" y="507" on="0"/>
        <pt x="553" y="507" on="1"/>
        <pt x="647" y="507" on="0"/>
        <pt x="749" y="373" on="0"/>
        <pt x="749" y="267" on="1"/>
        <pt x="749" y="232" on="0"/>
        <pt x="743" y="208" on="1"/>
        <pt x="452" y="208" on="1"/>
        <pt x="459" y="154" on="0"/>
        <pt x="527" y="96" on="0"/>
        <pt x="576" y="96" on="1"/>
        <pt x="603" y="96" on="0"/>
        <pt x="652" y="114" on="0"/>
        <pt x="683" y="132" on="1"/>
        <pt x="730" y="43" on="1"/>
        <pt x="693" y="17" on="0"/>
        <pt x="603" y="-12" on="0"/>
        <pt x="558" y="-12" on="1"/>
        <pt x="457" y="-12" on="0"/>
        <pt x="387" y="68" on="1"/>
        <pt x="336" y="26" on="0"/>
        <pt x="244" y="-12" on="0"/>
        <pt x="195" y="-12" on="1"/>
      </contour>
      <contour>
        <pt x="632" y="293" on="1"/>
        <pt x="632" y="344" on="0"/>
        <pt x="591" y="402" on="0"/>
        <pt x="549" y="402" on="1"/>
        <pt x="511" y="402" on="0"/>
        <pt x="459" y="346" on="0"/>
        <pt x="452" y="293" on="1"/>
      </contour>
      <contour>
        <pt x="267" y="94" on="0"/>
        <pt x="320" y="119" on="0"/>
        <pt x="342" y="142" on="1"/>
        <pt x="330" y="175" on="0"/>
        <pt x="328" y="213" on="1"/>
        <pt x="326" y="235" on="1"/>
        <pt x="179" y="214" on="0"/>
        <pt x="179" y="147" on="1"/>
        <pt x="179" y="121" on="0"/>
        <pt x="212" y="94" on="0"/>
        <pt x="241" y="94" on="1"/>
      </contour>
    </TTGlyph>
    <TTGlyph name="agrave" xMin="43" yMin="-12" xMax="462" yMax="819">
      <component glyphName="a" x="0" y="0" flags="0x0"/>
      <component glyphName="gravecomb" x="283" y="0" flags="0x0"/>
    </TTGlyph>
    <TTGlyph name="alphalatin" xMin="40" yMin="-12" xMax="536" yMax="507">
      <contour>
        <pt x="150" y="-12" on="0"/>
        <pt x="40" y="126" on="0"/>
        <pt x="40" y="247" on="1"/>
        <pt x="40" y="325" on="0"/>
        <pt x="99" y="443" on="0"/>
        <pt x="196" y="507" on="0"/>
        <pt x="250" y="507" on="1"/>
        <pt x="287" y="507" on="0"/>
        <pt x="350" y="478" on="0"/>
        <pt x="380" y="446" on="1"/>
        <pt x="384" y="446" on="1"/>
        <pt x="395" y="495" on="1"/>
        <pt x="502" y="495" on="1"/>
        <pt x="502" y="132" on="1"/>
        <pt x="502" y="99" on="0"/>
        <pt x="522" y="99" on="1"/>
        <pt x="529" y="99" on="0"/>
        <pt x="536" y="101" on="1"/>
        <pt x="534" y="-2" on="1"/>
        <pt x="514" y="-12" on="0"/>
        <pt x="478" y="-12" on="1"/>
        <pt x="443" y="-12" on="0"/>
        <pt x="396" y="23" on="0"/>
        <pt x="385" y="55" on="1"/>
        <pt x="382" y="55" on="1"/>
        <pt x="355" y="26" on="0"/>
        <pt x="280" y="-12" on="0"/>
        <pt x="243" y="-12" on="1"/>
      </contour>
      <contour>
        <pt x="328" y="100" on="0"/>
        <pt x="366" y="148" on="1"/>
        <pt x="366" y="360" on="1"/>
        <pt x="327" y="395" on="0"/>
        <pt x="278" y="395" on="1"/>
        <pt x="236" y="395" on="0"/>
        <pt x="180" y="319" on="0"/>
        <pt x="180" y="249" on="1"/>
        <pt x="180" y="174" on="0"/>
        <pt x="231" y="100" on="0"/>
        <pt x="278" y="100" on="1"/>
      </contour>
    </TTGlyph>
    <TTGlyph name="amacron" xMin="43" yMin="-12" xMax="462" yMax="681">
      <component glyphName="a" x="0" y="0" flags="0x0"/>
      <component glyphName="uni0304" x="283" y="0" flags="0x0"/>
    </TTGlyph>
    <TTGlyph name="ampersand" xMin="26" yMin="-12" xMax="640" yMax="665">
      <contour>
        <pt x="607" y="-12" on="1"/>
        <pt x="525" y="5" on="0"/>
        <pt x="443" y="56" on="1"/>
        <pt x="354" y="-12" on="0"/>
        <pt x="241" y="-12" on="1"/>
        <pt x="174" y="-12" on="0"/>
        <pt x="76" y="38" on="0"/>
        <pt x="26" y="123" on="0"/>
        <pt x="26" y="174" on="1"/>
        <pt x="26" y="236" on="0"/>
        <pt x="90" y="322" on="0"/>
        <pt x="147" y="358" on="1"/>
        <pt x="106" y="435" on="0"/>
        <pt x="106" y="497" on="1"/>
        <pt x="106" y="543" on="0"/>
        <pt x="149" y="620" on="0"/>
        <pt x="228" y="665" on="0"/>
        <pt x="280" y="665" on="1"/>
        <pt x="351" y="665" on="0"/>
        <pt x="435" y="586" on="0"/>
        <pt x="435" y="520" on="1"/>
        <pt x="435" y="462" on="0"/>
        <pt x="362" y="377" on="0"/>
        <pt x="296" y="333" on="1"/>
        <pt x="351" y="265" on="0"/>
        <pt x="433" y="204" on="1"/>
        <pt x="486" y="275" on="0"/>
        <pt x="511" y="366" on="1"/>
        <pt x="636" y="366" on="1"/>
        <pt x="597" y="241" on="0"/>
        <pt x="526" y="143" on="1"/>
        <pt x="592" y="106" on="0"/>
        <pt x="640" y="99" on="1"/>
      </contour>
      <contour>
        <pt x="219" y="458" on="0"/>
        <pt x="242" y="414" on="1"/>
        <pt x="285" y="439" on="0"/>
        <pt x="330" y="488" on="0"/>
        <pt x="330" y="520" on="1"/>
        <pt x="330" y="545" on="0"/>
        <pt x="306" y="574" on="0"/>
        <pt x="282" y="574" on="1"/>
        <pt x="255" y="574" on="0"/>
        <pt x="219" y="532" on="0"/>
        <pt x="219" y="497" on="1"/>
      </contour>
      <contour>
        <pt x="156" y="142" on="0"/>
        <pt x="213" y="93" on="0"/>
        <pt x="258" y="93" on="1"/>
        <pt x="302" y="93" on="0"/>
        <pt x="348" y="123" on="1"/>
        <pt x="267" y="189" on="0"/>
        <pt x="206" y="268" on="1"/>
        <pt x="182" y="247" on="0"/>
        <pt x="156" y="205" on="0"/>
        <pt x="156" y="182" on="1"/>
      </contour>
    </TTGlyph>
    <TTGlyph name="ampersand.lat" xMin="26" yMin="-12" xMax="640" yMax="665">
      <contour>
        <pt x="607" y="-12" on="1"/>
        <pt x="525" y="5" on="0"/>
        <pt x="443" y="56" on="1"/>
        <pt x="354" y="-12" on="0"/>
        <pt x="241" y="-12" on="1"/>
        <pt x="174" y="-12" on="0"/>
        <pt x="76" y="38" on="0"/>
        <pt x="26" y="123" on="0"/>
        <pt x="26" y="174" on="1"/>
        <pt x="26" y="236" on="0"/>
        <pt x="90" y="322" on="0"/>
        <pt x="147" y="358" on="1"/>
        <pt x="106" y="435" on="0"/>
        <pt x="106" y="497" on="1"/>
        <pt x="106" y="543" on="0"/>
        <pt x="149" y="620" on="0"/>
        <pt x="228" y="665" on="0"/>
        <pt x="280" y="665" on="1"/>
        <pt x="351" y="665" on="0"/>
        <pt x="435" y="586" on="0"/>
        <pt x="435" y="520" on="1"/>
        <pt x="435" y="462" on="0"/>
        <pt x="362" y="377" on="0"/>
        <pt x="296" y="333" on="1"/>
        <pt x="351" y="265" on="0"/>
        <pt x="433" y="204" on="1"/>
        <pt x="486" y="275" on="0"/>
        <pt x="511" y="366" on="1"/>
        <pt x="636" y="366" on="1"/>
        <pt x="597" y="241" on="0"/>
        <pt x="526" y="143" on="1"/>
        <pt x="592" y="106" on="0"/>
        <pt x="640" y="99" on="1"/>
      </contour>
      <contour>
        <pt x="219" y="458" on="0"/>
        <pt x="242" y="414" on="1"/>
        <pt x="285" y="439" on="0"/>
        <pt x="330" y="488" on="0"/>
        <pt x="330" y="520" on="1"/>
        <pt x="330" y="545" on="0"/>
        <pt x="306" y="574" on="0"/>
        <pt x="282" y="574" on="1"/>
        <pt x="255" y="574" on="0"/>
        <pt x="219" y="532" on="0"/>
        <pt x="219" y="497" on="1"/>
      </contour>
      <contour>
        <pt x="156" y="142" on="0"/>
        <pt x="213" y="93" on="0"/>
        <pt x="258" y="93" on="1"/>
        <pt x="302" y="93" on="0"/>
        <pt x="348" y="123" on="1"/>
        <pt x="267" y="189" on="0"/>
        <pt x="206" y="268" on="1"/>
        <pt x="182" y="247" on="0"/>
        <pt x="156" y="205" on="0"/>
        <pt x="156" y="182" on="1"/>
      </contour>
    </TTGlyph>
    <TTGlyph name="approxequal" xMin="30" yMin="128" xMax="493" yMax="532">
      <component glyphName="asciitilde" x="0" y="115" flags="0x4"/>
      <component glyphName="asciitilde" x="0" y="-115" flags="0x4"/>
    </TTGlyph>
    <TTGlyph name="aring" xMin="43" yMin="-12" xMax="462" yMax="769">
      <component glyphName="a" x="0" y="0" flags="0x0"/>
      <component glyphName="uni030A" x="283" y="0" flags="0x0"/>
    </TTGlyph>
    <TTGlyph name="asciicircum" xMin="51" yMin="276" xMax="471" yMax="670">
      <contour>
        <pt x="206" y="670" on="1"/>
        <pt x="317" y="670" on="1"/>
        <pt x="471" y="276" on="1"/>
        <pt x="358" y="276" on="1"/>
        <pt x="309" y="412" on="1"/>
        <pt x="263" y="547" on="1"/>
        <pt x="259" y="547" on="1"/>
        <pt x="213" y="412" on="1"/>
        <pt x="164" y="276" on="1"/>
        <pt x="51" y="276" on="1"/>
      </contour>
    </TTGlyph>
    <TTGlyph name="asciicircum.lat" xMin="51" yMin="276" xMax="471" yMax="670">
      <contour>
        <pt x="206" y="670" on="1"/>
        <pt x="317" y="670" on="1"/>
        <pt x="471" y="276" on="1"/>
        <pt x="358" y="276" on="1"/>
        <pt x="309" y="412" on="1"/>
        <pt x="263" y="547" on="1"/>
        <pt x="259" y="547" on="1"/>
        <pt x="213" y="412" on="1"/>
        <pt x="164" y="276" on="1"/>
        <pt x="51" y="276" on="1"/>
      </contour>
    </TTGlyph>
    <TTGlyph name="asciitilde" xMin="30" yMin="243" xMax="493" yMax="417">
      <contour>
        <pt x="317" y="243" on="0"/>
        <pt x="272" y="266" on="0"/>
        <pt x="243" y="287" on="1"/>
        <pt x="220" y="304" on="0"/>
        <pt x="191" y="320" on="0"/>
        <pt x="174" y="320" on="1"/>
        <pt x="134" y="320" on="0"/>
        <pt x="102" y="262" on="1"/>
        <pt x="30" y="316" on="1"/>
        <pt x="94" y="417" on="0"/>
        <pt x="176" y="417" on="1"/>
        <pt x="206" y="417" on="0"/>
        <pt x="251" y="394" on="0"/>
        <pt x="280" y="373" on="1"/>
        <pt x="303" y="356" on="0"/>
        <pt x="332" y="340" on="0"/>
        <pt x="349" y="340" on="1"/>
        <pt x="389" y="340" on="0"/>
        <pt x="422" y="398" on="1"/>
        <pt x="493" y="344" on="1"/>
        <pt x="428" y="243" on="0"/>
        <pt x="347" y="243" on="1"/>
      </contour>
    </TTGlyph>
    <TTGlyph name="asterisk" xMin="41" yMin="360" xMax="410" yMax="712">
      <contour>
        <pt x="89" y="403" on="1"/>
        <pt x="147" y="504" on="1"/>
        <pt x="41" y="552" on="1"/>
        <pt x="63" y="620" on="1"/>
        <pt x="177" y="596" on="1"/>
        <pt x="189" y="712" on="1"/>
        <pt x="262" y="712" on="1"/>
        <pt x="274" y="595" on="1"/>
        <pt x="387" y="620" on="1"/>
        <pt x="410" y="552" on="1"/>
        <pt x="303" y="504" on="1"/>
        <pt x="362" y="403" on="1"/>
        <pt x="304" y="360" on="1"/>
        <pt x="226" y="449" on="1"/>
        <pt x="147" y="360" on="1"/>
      </contour>
    </TTGlyph>
    <TTGlyph name="asterisk.lat" xMin="41" yMin="360" xMax="410" yMax="712">
      <contour>
        <pt x="89" y="403" on="1"/>
        <pt x="147" y="504" on="1"/>
        <pt x="41" y="552" on="1"/>
        <pt x="63" y="620" on="1"/>
        <pt x="177" y="596" on="1"/>
        <pt x="189" y="712" on="1"/>
        <pt x="262" y="712" on="1"/>
        <pt x="274" y="595" on="1"/>
        <pt x="387" y="620" on="1"/>
        <pt x="410" y="552" on="1"/>
        <pt x="303" y="504" on="1"/>
        <pt x="362" y="403" on="1"/>
        <pt x="304" y="360" on="1"/>
        <pt x="226" y="449" on="1"/>
        <pt x="147" y="360" on="1"/>
      </contour>
    </TTGlyph>
    <TTGlyph name="at" xMin="49" yMin="-169" xMax="845" yMax="666">
      <contour>
        <pt x="321" y="-169" on="0"/>
        <pt x="151" y="-85" on="0"/>
        <pt x="49" y="84" on="0"/>
        <pt x="49" y="205" on="1"/>
        <pt x="49" y="340" on="0"/>
        <pt x="170" y="550" on="0"/>
        <pt x="374" y="666" on="0"/>
        <pt x="495" y="666" on="1"/>
        <pt x="600" y="666" on="0"/>
        <pt x="759" y="577" on="0"/>
        <pt x="845" y="417" on="0"/>
        <pt x="845" y="313" on="1"/>
        <pt x="845" y="227" on="0"/>
        <pt x="779" y="103" on="0"/>
        <pt x="676" y="40" on="0"/>
        <pt x="622" y="40" on="1"/>
        <pt x="577" y="40" on="0"/>
        <pt x="515" y="80" on="0"/>
        <pt x="508" y="116" on="1"/>
        <pt x="506" y="116" on="1"/>
        <pt x="485" y="87" on="0"/>
        <pt x="417" y="49" on="0"/>
        <pt x="386" y="49" on="1"/>
        <pt x="328" y="49" on="0"/>
        <pt x="256" y="130" on="0"/>
        <pt x="256" y="198" on="1"/>
        <pt x="256" y="258" on="0"/>
        <pt x="309" y="371" on="0"/>
        <pt x="401" y="441" on="0"/>
        <pt x="456" y="441" on="1"/>
        <pt x="509" y="441" on="0"/>
        <pt x="533" y="392" on="1"/>
        <pt x="535" y="392" on="1"/>
        <pt x="549" y="433" on="1"/>
        <pt x="633" y="433" on="1"/>
        <pt x="589" y="216" on="1"/>
        <pt x="584" y="197" on="0"/>
        <pt x="584" y="177" on="1"/>
        <pt x="584" y="125" on="0"/>
        <pt x="636" y="125" on="1"/>
        <pt x="667" y="125" on="0"/>
        <pt x="723" y="171" on="0"/>
        <pt x="758" y="256" on="0"/>
        <pt x="758" y="310" on="1"/>
        <pt x="758" y="386" on="0"/>
        <pt x="700" y="509" on="0"/>
        <pt x="577" y="582" on="0"/>
        <pt x="484" y="582" on="1"/>
        <pt x="397" y="582" on="0"/>
        <pt x="239" y="488" on="0"/>
        <pt x="142" y="318" on="0"/>
        <pt x="142" y="209" on="1"/>
        <pt x="142" y="114" on="0"/>
        <pt x="221" y="-19" on="0"/>
        <pt x="354" y="-86" on="0"/>
        <pt x="435" y="-86" on="1"/>
        <pt x="474" y="-86" on="0"/>
        <pt x="556" y="-64" on="0"/>
        <pt x="589" y="-46" on="1"/>
        <pt x="619" y="-121" on="1"/>
        <pt x="532" y="-169" on="0"/>
        <pt x="424" y="-169" on="1"/>
      </contour>
      <contour>
        <pt x="432" y="136" on="0"/>
        <pt x="465" y="158" on="0"/>
        <pt x="485" y="183" on="1"/>
        <pt x="510" y="322" on="1"/>
        <pt x="492" y="353" on="0"/>
        <pt x="460" y="353" on="1"/>
        <pt x="431" y="353" on="0"/>
        <pt x="384" y="307" on="0"/>
        <pt x="359" y="239" on="0"/>
        <pt x="359" y="206" on="1"/>
        <pt x="359" y="171" on="0"/>
        <pt x="389" y="136" on="0"/>
        <pt x="415" y="136" on="1"/>
      </contour>
    </TTGlyph>
    <TTGlyph name="at.lat" xMin="49" yMin="-169" xMax="845" yMax="666">
      <contour>
        <pt x="321" y="-169" on="0"/>
        <pt x="151" y="-85" on="0"/>
        <pt x="49" y="84" on="0"/>
        <pt x="49" y="205" on="1"/>
        <pt x="49" y="340" on="0"/>
        <pt x="170" y="550" on="0"/>
        <pt x="374" y="666" on="0"/>
        <pt x="495" y="666" on="1"/>
        <pt x="600" y="666" on="0"/>
        <pt x="759" y="577" on="0"/>
        <pt x="845" y="417" on="0"/>
        <pt x="845" y="313" on="1"/>
        <pt x="845" y="227" on="0"/>
        <pt x="779" y="103" on="0"/>
        <pt x="676" y="40" on="0"/>
        <pt x="622" y="40" on="1"/>
        <pt x="577" y="40" on="0"/>
        <pt x="515" y="80" on="0"/>
        <pt x="508" y="116" on="1"/>
        <pt x="506" y="116" on="1"/>
        <pt x="485" y="87" on="0"/>
        <pt x="417" y="49" on="0"/>
        <pt x="386" y="49" on="1"/>
        <pt x="328" y="49" on="0"/>
        <pt x="256" y="130" on="0"/>
        <pt x="256" y="198" on="1"/>
        <pt x="256" y="258" on="0"/>
        <pt x="309" y="371" on="0"/>
        <pt x="401" y="441" on="0"/>
        <pt x="456" y="441" on="1"/>
        <pt x="509" y="441" on="0"/>
        <pt x="533" y="392" on="1"/>
        <pt x="535" y="392" on="1"/>
        <pt x="549" y="433" on="1"/>
        <pt x="633" y="433" on="1"/>
        <pt x="589" y="216" on="1"/>
        <pt x="584" y="197" on="0"/>
        <pt x="584" y="177" on="1"/>
        <pt x="584" y="125" on="0"/>
        <pt x="636" y="125" on="1"/>
        <pt x="667" y="125" on="0"/>
        <pt x="723" y="171" on="0"/>
        <pt x="758" y="256" on="0"/>
        <pt x="758" y="310" on="1"/>
        <pt x="758" y="386" on="0"/>
        <pt x="700" y="509" on="0"/>
        <pt x="577" y="582" on="0"/>
        <pt x="484" y="582" on="1"/>
        <pt x="397" y="582" on="0"/>
        <pt x="239" y="488" on="0"/>
        <pt x="142" y="318" on="0"/>
        <pt x="142" y="209" on="1"/>
        <pt x="142" y="114" on="0"/>
        <pt x="221" y="-19" on="0"/>
        <pt x="354" y="-86" on="0"/>
        <pt x="435" y="-86" on="1"/>
        <pt x="474" y="-86" on="0"/>
        <pt x="556" y="-64" on="0"/>
        <pt x="589" y="-46" on="1"/>
        <pt x="619" y="-121" on="1"/>
        <pt x="532" y="-169" on="0"/>
        <pt x="424" y="-169" on="1"/>
      </contour>
      <contour>
        <pt x="432" y="136" on="0"/>
        <pt x="465" y="158" on="0"/>
        <pt x="485" y="183" on="1"/>
        <pt x="510" y="322" on="1"/>
        <pt x="492" y="353" on="0"/>
        <pt x="460" y="353" on="1"/>
        <pt x="431" y="353" on="0"/>
        <pt x="384" y="307" on="0"/>
        <pt x="359" y="239" on="0"/>
        <pt x="359" y="206" on="1"/>
        <pt x="359" y="171" on="0"/>
        <pt x="389" y="136" on="0"/>
        <pt x="415" y="136" on="1"/>
      </contour>
    </TTGlyph>
    <TTGlyph name="atilde" xMin="43" yMin="-12" xMax="470" yMax="736">
      <component glyphName="a" x="0" y="0" flags="0x0"/>
      <component glyphName="tildecomb" x="283" y="0" flags="0x0"/>
    </TTGlyph>
    <TTGlyph name="b" xMin="67" yMin="-12" xMax="529" yMax="703">
      <contour>
        <pt x="287" y="-12" on="0"/>
        <pt x="219" y="22" on="0"/>
        <pt x="189" y="53" on="1"/>
        <pt x="186" y="53" on="1"/>
        <pt x="174" y="0" on="1"/>
        <pt x="67" y="0" on="1"/>
        <pt x="67" y="703" on="1"/>
        <pt x="204" y="703" on="1"/>
        <pt x="204" y="528" on="1"/>
        <pt x="200" y="450" on="1"/>
        <pt x="230" y="477" on="0"/>
        <pt x="300" y="507" on="0"/>
        <pt x="335" y="507" on="1"/>
        <pt x="425" y="507" on="0"/>
        <pt x="529" y="371" on="0"/>
        <pt x="529" y="256" on="1"/>
        <pt x="529" y="174" on="0"/>
        <pt x="471" y="52" on="0"/>
        <pt x="375" y="-12" on="0"/>
        <pt x="320" y="-12" on="1"/>
      </contour>
      <contour>
        <pt x="334" y="100" on="0"/>
        <pt x="390" y="178" on="0"/>
        <pt x="390" y="254" on="1"/>
        <pt x="390" y="395" on="0"/>
        <pt x="297" y="395" on="1"/>
        <pt x="251" y="395" on="0"/>
        <pt x="204" y="347" on="1"/>
        <pt x="204" y="135" on="1"/>
        <pt x="243" y="100" on="0"/>
        <pt x="290" y="100" on="1"/>
      </contour>
    </TTGlyph>
    <TTGlyph name="backslash" xMin="26" yMin="-160" xMax="328" yMax="710">
      <contour>
        <pt x="26" y="710" on="1"/>
        <pt x="116" y="710" on="1"/>
        <pt x="328" y="-160" on="1"/>
        <pt x="238" y="-160" on="1"/>
      </contour>
    </TTGlyph>
    <TTGlyph name="backslash.lat" xMin="26" yMin="-160" xMax="328" yMax="710">
      <contour>
        <pt x="26" y="710" on="1"/>
        <pt x="116" y="710" on="1"/>
        <pt x="328" y="-160" on="1"/>
        <pt x="238" y="-160" on="1"/>
      </contour>
    </TTGlyph>
    <TTGlyph name="bar" xMin="87" yMin="-250" xMax="177" yMax="750">
      <contour>
        <pt x="87" y="750" on="1"/>
        <pt x="177" y="750" on="1"/>
        <pt x="177" y="-250" on="1"/>
        <pt x="87" y="-250" on="1"/>
      </contour>
    </TTGlyph>
    <TTGlyph name="braceleft" xMin="31" yMin="-152" xMax="294" yMax="708">
      <contour>
        <pt x="167" y="-152" on="0"/>
        <pt x="108" y="-90" on="0"/>
        <pt x="108" y="-11" on="1"/>
        <pt x="108" y="34" on="0"/>
        <pt x="113" y="81" on="1"/>
        <pt x="117" y="133" on="0"/>
        <pt x="117" y="163" on="1"/>
        <pt x="117" y="194" on="0"/>
        <pt x="77" y="237" on="0"/>
        <pt x="31" y="238" on="1"/>
        <pt x="31" y="319" on="1"/>
        <pt x="77" y="320" on="0"/>
        <pt x="117" y="362" on="0"/>
        <pt x="117" y="393" on="1"/>
        <pt x="117" y="423" on="0"/>
        <pt x="113" y="475" on="1"/>
        <pt x="108" y="522" on="0"/>
        <pt x="108" y="567" on="1"/>
        <pt x="108" y="646" on="0"/>
        <pt x="167" y="708" on="0"/>
        <pt x="234" y="708" on="1"/>
        <pt x="294" y="708" on="1"/>
        <pt x="294" y="635" on="1"/>
        <pt x="274" y="635" on="1"/>
        <pt x="241" y="635" on="0"/>
        <pt x="218" y="605" on="0"/>
        <pt x="218" y="562" on="1"/>
        <pt x="218" y="536" on="0"/>
        <pt x="220" y="484" on="1"/>
        <pt x="222" y="428" on="0"/>
        <pt x="222" y="396" on="1"/>
        <pt x="222" y="342" on="0"/>
        <pt x="188" y="289" on="0"/>
        <pt x="150" y="280" on="1"/>
        <pt x="150" y="276" on="1"/>
        <pt x="188" y="267" on="0"/>
        <pt x="222" y="214" on="0"/>
        <pt x="222" y="161" on="1"/>
        <pt x="222" y="128" on="0"/>
        <pt x="220" y="72" on="1"/>
        <pt x="218" y="20" on="0"/>
        <pt x="218" y="-6" on="1"/>
        <pt x="218" y="-49" on="0"/>
        <pt x="241" y="-79" on="0"/>
        <pt x="274" y="-79" on="1"/>
        <pt x="294" y="-79" on="1"/>
        <pt x="294" y="-152" on="1"/>
        <pt x="234" y="-152" on="1"/>
      </contour>
    </TTGlyph>
    <TTGlyph name="braceleft.lat" xMin="31" yMin="-152" xMax="294" yMax="708">
      <contour>
        <pt x="167" y="-152" on="0"/>
        <pt x="108" y="-90" on="0"/>
        <pt x="108" y="-11" on="1"/>
        <pt x="108" y="34" on="0"/>
        <pt x="113" y="81" on="1"/>
        <pt x="117" y="133" on="0"/>
        <pt x="117" y="163" on="1"/>
        <pt x="117" y="194" on="0"/>
        <pt x="77" y="237" on="0"/>
        <pt x="31" y="238" on="1"/>
        <pt x="31" y="319" on="1"/>
        <pt x="77" y="320" on="0"/>
        <pt x="117" y="362" on="0"/>
        <pt x="117" y="393" on="1"/>
        <pt x="117" y="423" on="0"/>
        <pt x="113" y="475" on="1"/>
        <pt x="108" y="522" on="0"/>
        <pt x="108" y="567" on="1"/>
        <pt x="108" y="646" on="0"/>
        <pt x="167" y="708" on="0"/>
        <pt x="234" y="708" on="1"/>
        <pt x="294" y="708" on="1"/>
        <pt x="294" y="635" on="1"/>
        <pt x="274" y="635" on="1"/>
        <pt x="241" y="635" on="0"/>
        <pt x="218" y="605" on="0"/>
        <pt x="218" y="562" on="1"/>
        <pt x="218" y="536" on="0"/>
        <pt x="220" y="484" on="1"/>
        <pt x="222" y="428" on="0"/>
        <pt x="222" y="396" on="1"/>
        <pt x="222" y="342" on="0"/>
        <pt x="188" y="289" on="0"/>
        <pt x="150" y="280" on="1"/>
        <pt x="150" y="276" on="1"/>
        <pt x="188" y="267" on="0"/>
        <pt x="222" y="214" on="0"/>
        <pt x="222" y="161" on="1"/>
        <pt x="222" y="128" on="0"/>
        <pt x="220" y="72" on="1"/>
        <pt x="218" y="20" on="0"/>
        <pt x="218" y="-6" on="1"/>
        <pt x="218" y="-49" on="0"/>
        <pt x="241" y="-79" on="0"/>
        <pt x="274" y="-79" on="1"/>
        <pt x="294" y="-79" on="1"/>
        <pt x="294" y="-152" on="1"/>
        <pt x="234" y="-152" on="1"/>
      </contour>
    </TTGlyph>
    <TTGlyph name="braceright" xMin="43" yMin="-152" xMax="306" yMax="708">
      <contour>
        <pt x="43" y="-79" on="1"/>
        <pt x="63" y="-79" on="1"/>
        <pt x="96" y="-79" on="0"/>
        <pt x="119" y="-49" on="0"/>
        <pt x="119" y="-6" on="1"/>
        <pt x="119" y="20" on="0"/>
        <pt x="117" y="72" on="1"/>
        <pt x="115" y="128" on="0"/>
        <pt x="115" y="161" on="1"/>
        <pt x="115" y="215" on="0"/>
        <pt x="149" y="267" on="0"/>
        <pt x="187" y="276" on="1"/>
        <pt x="187" y="280" on="1"/>
        <pt x="149" y="289" on="0"/>
        <pt x="115" y="342" on="0"/>
        <pt x="115" y="396" on="1"/>
        <pt x="115" y="428" on="0"/>
        <pt x="117" y="484" on="1"/>
        <pt x="119" y="536" on="0"/>
        <pt x="119" y="562" on="1"/>
        <pt x="119" y="605" on="0"/>
        <pt x="96" y="635" on="0"/>
        <pt x="63" y="635" on="1"/>
        <pt x="43" y="635" on="1"/>
        <pt x="43" y="708" on="1"/>
        <pt x="103" y="708" on="1"/>
        <pt x="170" y="708" on="0"/>
        <pt x="229" y="646" on="0"/>
        <pt x="229" y="567" on="1"/>
        <pt x="229" y="522" on="0"/>
        <pt x="224" y="475" on="1"/>
        <pt x="220" y="423" on="0"/>
        <pt x="220" y="393" on="1"/>
        <pt x="220" y="362" on="0"/>
        <pt x="260" y="320" on="0"/>
        <pt x="306" y="319" on="1"/>
        <pt x="306" y="238" on="1"/>
        <pt x="260" y="237" on="0"/>
        <pt x="220" y="194" on="0"/>
        <pt x="220" y="163" on="1"/>
        <pt x="220" y="133" on="0"/>
        <pt x="224" y="81" on="1"/>
        <pt x="229" y="34" on="0"/>
        <pt x="229" y="-11" on="1"/>
        <pt x="229" y="-90" on="0"/>
        <pt x="170" y="-152" on="0"/>
        <pt x="103" y="-152" on="1"/>
        <pt x="43" y="-152" on="1"/>
      </contour>
    </TTGlyph>
    <TTGlyph name="braceright.lat" xMin="43" yMin="-152" xMax="306" yMax="708">
      <contour>
        <pt x="43" y="-79" on="1"/>
        <pt x="63" y="-79" on="1"/>
        <pt x="96" y="-79" on="0"/>
        <pt x="119" y="-49" on="0"/>
        <pt x="119" y="-6" on="1"/>
        <pt x="119" y="20" on="0"/>
        <pt x="117" y="72" on="1"/>
        <pt x="115" y="128" on="0"/>
        <pt x="115" y="161" on="1"/>
        <pt x="115" y="215" on="0"/>
        <pt x="149" y="267" on="0"/>
        <pt x="187" y="276" on="1"/>
        <pt x="187" y="280" on="1"/>
        <pt x="149" y="289" on="0"/>
        <pt x="115" y="342" on="0"/>
        <pt x="115" y="396" on="1"/>
        <pt x="115" y="428" on="0"/>
        <pt x="117" y="484" on="1"/>
        <pt x="119" y="536" on="0"/>
        <pt x="119" y="562" on="1"/>
        <pt x="119" y="605" on="0"/>
        <pt x="96" y="635" on="0"/>
        <pt x="63" y="635" on="1"/>
        <pt x="43" y="635" on="1"/>
        <pt x="43" y="708" on="1"/>
        <pt x="103" y="708" on="1"/>
        <pt x="170" y="708" on="0"/>
        <pt x="229" y="646" on="0"/>
        <pt x="229" y="567" on="1"/>
        <pt x="229" y="522" on="0"/>
        <pt x="224" y="475" on="1"/>
        <pt x="220" y="423" on="0"/>
        <pt x="220" y="393" on="1"/>
        <pt x="220" y="362" on="0"/>
        <pt x="260" y="320" on="0"/>
        <pt x="306" y="319" on="1"/>
        <pt x="306" y="238" on="1"/>
        <pt x="260" y="237" on="0"/>
        <pt x="220" y="194" on="0"/>
        <pt x="220" y="163" on="1"/>
        <pt x="220" y="133" on="0"/>
        <pt x="224" y="81" on="1"/>
        <pt x="229" y="34" on="0"/>
        <pt x="229" y="-11" on="1"/>
        <pt x="229" y="-90" on="0"/>
        <pt x="170" y="-152" on="0"/>
        <pt x="103" y="-152" on="1"/>
        <pt x="43" y="-152" on="1"/>
      </contour>
    </TTGlyph>
    <TTGlyph name="bracketleft" xMin="88" yMin="-152" xMax="294" yMax="708">
      <contour>
        <pt x="88" y="708" on="1"/>
        <pt x="294" y="708" on="1"/>
        <pt x="294" y="635" on="1"/>
        <pt x="190" y="635" on="1"/>
        <pt x="190" y="-79" on="1"/>
        <pt x="294" y="-79" on="1"/>
        <pt x="294" y="-152" on="1"/>
        <pt x="88" y="-152" on="1"/>
      </contour>
    </TTGlyph>
    <TTGlyph name="bracketleft.lat" xMin="88" yMin="-152" xMax="294" yMax="708">
      <contour>
        <pt x="88" y="708" on="1"/>
        <pt x="294" y="708" on="1"/>
        <pt x="294" y="635" on="1"/>
        <pt x="190" y="635" on="1"/>
        <pt x="190" y="-79" on="1"/>
        <pt x="294" y="-79" on="1"/>
        <pt x="294" y="-152" on="1"/>
        <pt x="88" y="-152" on="1"/>
      </contour>
    </TTGlyph>
    <TTGlyph name="bracketright" xMin="43" yMin="-152" xMax="249" yMax="708">
      <contour>
        <pt x="43" y="-79" on="1"/>
        <pt x="147" y="-79" on="1"/>
        <pt x="147" y="635" on="1"/>
        <pt x="43" y="635" on="1"/>
        <pt x="43" y="708" on="1"/>
        <pt x="249" y="708" on="1"/>
        <pt x="249" y="-152" on="1"/>
        <pt x="43" y="-152" on="1"/>
      </contour>
    </TTGlyph>
    <TTGlyph name="bracketright.lat" xMin="43" yMin="-152" xMax="249" yMax="708">
      <contour>
        <pt x="43" y="-79" on="1"/>
        <pt x="147" y="-79" on="1"/>
        <pt x="147" y="635" on="1"/>
        <pt x="43" y="635" on="1"/>
        <pt x="43" y="708" on="1"/>
        <pt x="249" y="708" on="1"/>
        <pt x="249" y="-152" on="1"/>
        <pt x="43" y="-152" on="1"/>
      </contour>
    </TTGlyph>
    <TTGlyph name="breve" xMin="110" yMin="572" xMax="444" yMax="741">
      <component glyphName="uni0306" x="277" y="0" flags="0x0"/>
    </TTGlyph>
    <TTGlyph name="brokenbar" xMin="87" yMin="-119" xMax="177" yMax="618">
      <contour>
        <pt x="177" y="618" on="1"/>
        <pt x="177" y="-119" on="1"/>
        <pt x="87" y="-119" on="1"/>
        <pt x="87" y="618" on="1"/>
      </contour>
    </TTGlyph>
    <TTGlyph name="bullet" xMin="40" yMin="127" xMax="298" yMax="399">
      <contour>
        <pt x="115" y="127" on="0"/>
        <pt x="40" y="205" on="0"/>
        <pt x="40" y="263" on="1"/>
        <pt x="40" y="321" on="0"/>
        <pt x="115" y="399" on="0"/>
        <pt x="169" y="399" on="1"/>
        <pt x="223" y="399" on="0"/>
        <pt x="298" y="321" on="0"/>
        <pt x="298" y="263" on="1"/>
        <pt x="298" y="205" on="0"/>
        <pt x="223" y="127" on="0"/>
        <pt x="169" y="127" on="1"/>
      </contour>
    </TTGlyph>
    <TTGlyph name="bullet.lat" xMin="40" yMin="127" xMax="298" yMax="399">
      <contour>
        <pt x="115" y="127" on="0"/>
        <pt x="40" y="205" on="0"/>
        <pt x="40" y="263" on="1"/>
        <pt x="40" y="321" on="0"/>
        <pt x="115" y="399" on="0"/>
        <pt x="169" y="399" on="1"/>
        <pt x="223" y="399" on="0"/>
        <pt x="298" y="321" on="0"/>
        <pt x="298" y="263" on="1"/>
        <pt x="298" y="205" on="0"/>
        <pt x="223" y="127" on="0"/>
        <pt x="169" y="127" on="1"/>
      </contour>
    </TTGlyph>
    <TTGlyph name="c" xMin="37" yMin="-12" xMax="442" yMax="507">
      <contour>
        <pt x="211" y="-12" on="0"/>
        <pt x="100" y="50" on="0"/>
        <pt x="37" y="167" on="0"/>
        <pt x="37" y="247" on="1"/>
        <pt x="37" y="327" on="0"/>
        <pt x="107" y="445" on="0"/>
        <pt x="223" y="507" on="0"/>
        <pt x="292" y="507" on="1"/>
        <pt x="373" y="507" on="0"/>
        <pt x="436" y="453" on="1"/>
        <pt x="371" y="365" on="1"/>
        <pt x="336" y="396" on="0"/>
        <pt x="299" y="396" on="1"/>
        <pt x="244" y="396" on="0"/>
        <pt x="177" y="314" on="0"/>
        <pt x="177" y="247" on="1"/>
        <pt x="177" y="180" on="0"/>
        <pt x="243" y="99" on="0"/>
        <pt x="295" y="99" on="1"/>
        <pt x="341" y="99" on="0"/>
        <pt x="388" y="137" on="1"/>
        <pt x="442" y="48" on="1"/>
        <pt x="408" y="18" on="0"/>
        <pt x="323" y="-12" on="0"/>
        <pt x="280" y="-12" on="1"/>
      </contour>
    </TTGlyph>
    <TTGlyph name="caron" xMin="98" yMin="577" xMax="455" yMax="758">
      <component glyphName="uni030C" x="277" y="0" flags="0x0"/>
    </TTGlyph>
    <TTGlyph name="ccaron" xMin="37" yMin="-12" xMax="455" yMax="758">
      <component glyphName="c" x="0" y="0" flags="0x0"/>
      <component glyphName="uni030C" x="277" y="0" flags="0x0"/>
    </TTGlyph>
    <TTGlyph name="ccedilla" xMin="37" yMin="-237" xMax="442" yMax="507">
      <contour>
        <pt x="332" y="-71" on="0"/>
        <pt x="370" y="-105" on="0"/>
        <pt x="370" y="-136" on="1"/>
        <pt x="370" y="-231" on="0"/>
        <pt x="177" y="-237" on="1"/>
        <pt x="167" y="-181" on="1"/>
        <pt x="225" y="-178" on="0"/>
        <pt x="270" y="-158" on="0"/>
        <pt x="270" y="-136" on="1"/>
        <pt x="270" y="-119" on="0"/>
        <pt x="237" y="-99" on="0"/>
        <pt x="194" y="-93" on="1"/>
        <pt x="235" y="-8" on="1"/>
        <pt x="146" y="6" on="0"/>
        <pt x="37" y="140" on="0"/>
        <pt x="37" y="247" on="1"/>
        <pt x="37" y="327" on="0"/>
        <pt x="107" y="445" on="0"/>
        <pt x="223" y="507" on="0"/>
        <pt x="292" y="507" on="1"/>
        <pt x="373" y="507" on="0"/>
        <pt x="436" y="453" on="1"/>
        <pt x="371" y="365" on="1"/>
        <pt x="336" y="396" on="0"/>
        <pt x="299" y="396" on="1"/>
        <pt x="244" y="396" on="0"/>
        <pt x="177" y="314" on="0"/>
        <pt x="177" y="247" on="1"/>
        <pt x="177" y="180" on="0"/>
        <pt x="243" y="99" on="0"/>
        <pt x="295" y="99" on="1"/>
        <pt x="341" y="99" on="0"/>
        <pt x="388" y="137" on="1"/>
        <pt x="442" y="48" on="1"/>
        <pt x="389" y="1" on="0"/>
        <pt x="316" y="-9" on="1"/>
        <pt x="294" y="-62" on="1"/>
      </contour>
    </TTGlyph>
    <TTGlyph name="cedilla" xMin="167" yMin="-237" xMax="370" yMax="4">
      <component glyphName="uni0327" x="277" y="0" flags="0x0"/>
    </TTGlyph>
    <TTGlyph name="cent" xMin="60" yMin="-40" xMax="482" yMax="655">
      <contour>
        <pt x="425" y="68" on="0"/>
        <pt x="349" y="56" on="1"/>
        <pt x="349" y="-40" on="1"/>
        <pt x="273" y="-40" on="1"/>
        <pt x="273" y="57" on="1"/>
        <pt x="175" y="69" on="0"/>
        <pt x="60" y="201" on="0"/>
        <pt x="60" y="308" on="1"/>
        <pt x="60" y="410" on="0"/>
        <pt x="178" y="540" on="0"/>
        <pt x="273" y="556" on="1"/>
        <pt x="273" y="655" on="1"/>
        <pt x="349" y="655" on="1"/>
        <pt x="349" y="560" on="1"/>
        <pt x="387" y="557" on="0"/>
        <pt x="451" y="527" on="0"/>
        <pt x="474" y="504" on="1"/>
        <pt x="411" y="420" on="1"/>
        <pt x="381" y="447" on="0"/>
        <pt x="349" y="450" on="1"/>
        <pt x="349" y="166" on="1"/>
        <pt x="386" y="171" on="0"/>
        <pt x="426" y="203" on="1"/>
        <pt x="482" y="117" on="1"/>
      </contour>
      <contour>
        <pt x="193" y="259" on="0"/>
        <pt x="234" y="190" on="0"/>
        <pt x="273" y="175" on="1"/>
        <pt x="273" y="440" on="1"/>
        <pt x="234" y="425" on="0"/>
        <pt x="193" y="357" on="0"/>
        <pt x="193" y="308" on="1"/>
      </contour>
    </TTGlyph>
    <TTGlyph name="cent.lat" xMin="60" yMin="-40" xMax="482" yMax="655">
      <contour>
        <pt x="425" y="68" on="0"/>
        <pt x="349" y="56" on="1"/>
        <pt x="349" y="-40" on="1"/>
        <pt x="273" y="-40" on="1"/>
        <pt x="273" y="57" on="1"/>
        <pt x="175" y="69" on="0"/>
        <pt x="60" y="201" on="0"/>
        <pt x="60" y="308" on="1"/>
        <pt x="60" y="410" on="0"/>
        <pt x="178" y="540" on="0"/>
        <pt x="273" y="556" on="1"/>
        <pt x="273" y="655" on="1"/>
        <pt x="349" y="655" on="1"/>
        <pt x="349" y="560" on="1"/>
        <pt x="387" y="557" on="0"/>
        <pt x="451" y="527" on="0"/>
        <pt x="474" y="504" on="1"/>
        <pt x="411" y="420" on="1"/>
        <pt x="381" y="447" on="0"/>
        <pt x="349" y="450" on="1"/>
        <pt x="349" y="166" on="1"/>
        <pt x="386" y="171" on="0"/>
        <pt x="426" y="203" on="1"/>
        <pt x="482" y="117" on="1"/>
      </contour>
      <contour>
        <pt x="193" y="259" on="0"/>
        <pt x="234" y="190" on="0"/>
        <pt x="273" y="175" on="1"/>
        <pt x="273" y="440" on="1"/>
        <pt x="234" y="425" on="0"/>
        <pt x="193" y="357" on="0"/>
        <pt x="193" y="308" on="1"/>
      </contour>
    </TTGlyph>
    <TTGlyph name="chi" xMin="8" yMin="-189" xMax="531" yMax="507">
      <contour>
        <pt x="8" y="-177" on="1"/>
        <pt x="197" y="165" on="1"/>
        <pt x="8" y="477" on="1"/>
        <pt x="143" y="507" on="1"/>
        <pt x="263" y="285" on="1"/>
        <pt x="267" y="285" on="1"/>
        <pt x="361" y="495" on="1"/>
        <pt x="503" y="495" on="1"/>
        <pt x="332" y="168" on="1"/>
        <pt x="531" y="-159" on="1"/>
        <pt x="397" y="-189" on="1"/>
        <pt x="267" y="56" on="1"/>
        <pt x="263" y="56" on="1"/>
        <pt x="149" y="-189" on="1"/>
      </contour>
    </TTGlyph>
    <TTGlyph name="circledotted" xMin="37" yMin="-13" xMax="542" yMax="487">
      <contour>
        <pt x="361" y="402" on="1"/>
        <pt x="349" y="395" on="0"/>
        <pt x="336" y="395" on="1"/>
        <pt x="320" y="395" on="0"/>
        <pt x="296" y="419" on="0"/>
        <pt x="296" y="438" on="1"/>
        <pt x="296" y="457" on="0"/>
        <pt x="319" y="479" on="0"/>
        <pt x="336" y="479" on="1"/>
        <pt x="342" y="479" on="1"/>
        <pt x="353" y="487" on="0"/>
        <pt x="367" y="487" on="1"/>
        <pt x="385" y="487" on="0"/>
        <pt x="410" y="464" on="0"/>
        <pt x="410" y="445" on="1"/>
        <pt x="410" y="425" on="0"/>
        <pt x="387" y="402" on="0"/>
        <pt x="367" y="402" on="1"/>
      </contour>
      <contour>
        <pt x="201" y="480" on="0"/>
        <pt x="225" y="458" on="0"/>
        <pt x="225" y="438" on="1"/>
        <pt x="225" y="419" on="0"/>
        <pt x="202" y="396" on="0"/>
        <pt x="184" y="396" on="1"/>
        <pt x="167" y="396" on="0"/>
        <pt x="143" y="419" on="0"/>
        <pt x="143" y="438" on="1"/>
        <pt x="143" y="458" on="0"/>
        <pt x="166" y="480" on="0"/>
        <pt x="184" y="480" on="1"/>
      </contour>
      <contour>
        <pt x="437" y="335" on="0"/>
        <pt x="413" y="358" on="0"/>
        <pt x="413" y="377" on="1"/>
        <pt x="413" y="397" on="0"/>
        <pt x="437" y="419" on="0"/>
        <pt x="455" y="419" on="1"/>
        <pt x="472" y="419" on="0"/>
        <pt x="495" y="397" on="0"/>
        <pt x="495" y="377" on="1"/>
        <pt x="495" y="358" on="0"/>
        <pt x="473" y="335" on="0"/>
        <pt x="455" y="335" on="1"/>
      </contour>
      <contour>
        <pt x="90" y="314" on="0"/>
        <pt x="66" y="338" on="0"/>
        <pt x="66" y="358" on="1"/>
        <pt x="66" y="377" on="0"/>
        <pt x="89" y="399" on="0"/>
        <pt x="106" y="399" on="1"/>
        <pt x="125" y="399" on="0"/>
        <pt x="147" y="378" on="0"/>
        <pt x="147" y="358" on="1"/>
        <pt x="147" y="338" on="0"/>
        <pt x="125" y="314" on="0"/>
        <pt x="106" y="314" on="1"/>
      </contour>
      <contour>
        <pt x="120" y="228" on="0"/>
        <pt x="97" y="205" on="0"/>
        <pt x="77" y="205" on="1"/>
        <pt x="61" y="205" on="0"/>
        <pt x="37" y="229" on="0"/>
        <pt x="37" y="248" on="1"/>
        <pt x="37" y="267" on="0"/>
        <pt x="60" y="289" on="0"/>
        <pt x="77" y="289" on="1"/>
        <pt x="96" y="289" on="0"/>
        <pt x="120" y="267" on="0"/>
        <pt x="120" y="248" on="1"/>
      </contour>
      <contour>
        <pt x="517" y="289" on="0"/>
        <pt x="542" y="267" on="0"/>
        <pt x="542" y="248" on="1"/>
        <pt x="542" y="228" on="0"/>
        <pt x="518" y="205" on="0"/>
        <pt x="500" y="205" on="1"/>
        <pt x="482" y="205" on="0"/>
        <pt x="459" y="228" on="0"/>
        <pt x="459" y="248" on="1"/>
        <pt x="459" y="267" on="0"/>
        <pt x="482" y="289" on="0"/>
        <pt x="500" y="289" on="1"/>
      </contour>
      <contour>
        <pt x="124" y="181" on="0"/>
        <pt x="147" y="158" on="0"/>
        <pt x="147" y="138" on="1"/>
        <pt x="147" y="119" on="0"/>
        <pt x="125" y="96" on="0"/>
        <pt x="106" y="96" on="1"/>
        <pt x="90" y="96" on="0"/>
        <pt x="66" y="119" on="0"/>
        <pt x="66" y="138" on="1"/>
        <pt x="66" y="158" on="0"/>
        <pt x="90" y="181" on="0"/>
        <pt x="106" y="181" on="1"/>
      </contour>
      <contour>
        <pt x="491" y="181" on="0"/>
        <pt x="514" y="158" on="0"/>
        <pt x="514" y="138" on="1"/>
        <pt x="514" y="119" on="0"/>
        <pt x="492" y="96" on="0"/>
        <pt x="474" y="96" on="1"/>
        <pt x="456" y="96" on="0"/>
        <pt x="432" y="119" on="0"/>
        <pt x="432" y="138" on="1"/>
        <pt x="432" y="158" on="0"/>
        <pt x="456" y="181" on="0"/>
        <pt x="474" y="181" on="1"/>
      </contour>
      <contour>
        <pt x="201" y="98" on="0"/>
        <pt x="225" y="77" on="0"/>
        <pt x="225" y="58" on="1"/>
        <pt x="225" y="37" on="0"/>
        <pt x="202" y="14" on="0"/>
        <pt x="184" y="14" on="1"/>
        <pt x="167" y="14" on="0"/>
        <pt x="143" y="38" on="0"/>
        <pt x="143" y="58" on="1"/>
        <pt x="143" y="77" on="0"/>
        <pt x="167" y="98" on="0"/>
        <pt x="184" y="98" on="1"/>
      </contour>
      <contour>
        <pt x="412" y="98" on="0"/>
        <pt x="436" y="77" on="0"/>
        <pt x="436" y="58" on="1"/>
        <pt x="436" y="37" on="0"/>
        <pt x="414" y="14" on="0"/>
        <pt x="394" y="14" on="1"/>
        <pt x="377" y="14" on="0"/>
        <pt x="354" y="38" on="0"/>
        <pt x="354" y="58" on="1"/>
        <pt x="354" y="77" on="0"/>
        <pt x="377" y="98" on="0"/>
        <pt x="394" y="98" on="1"/>
      </contour>
      <contour>
        <pt x="307" y="71" on="0"/>
        <pt x="330" y="50" on="0"/>
        <pt x="330" y="31" on="1"/>
        <pt x="330" y="10" on="0"/>
        <pt x="307" y="-13" on="0"/>
        <pt x="289" y="-13" on="1"/>
        <pt x="272" y="-13" on="0"/>
        <pt x="249" y="11" on="0"/>
        <pt x="249" y="31" on="1"/>
        <pt x="249" y="50" on="0"/>
        <pt x="272" y="71" on="0"/>
        <pt x="289" y="71" on="1"/>
      </contour>
    </TTGlyph>
    <TTGlyph name="circumflex" xMin="98" yMin="562" xMax="455" yMax="744">
      <component glyphName="uni0302" x="277" y="0" flags="0x0"/>
    </TTGlyph>
    <TTGlyph name="colon" xMin="62" yMin="-12" xMax="230" yMax="494">
      <component glyphName="period" x="0" y="330" flags="0x4"/>
      <component glyphName="period" x="0" y="0" flags="0x0"/>
    </TTGlyph>
    <TTGlyph name="comma" xMin="46" yMin="-191" xMax="246" yMax="164">
      <contour>
        <pt x="196" y="164" on="0"/>
        <pt x="246" y="94" on="0"/>
        <pt x="246" y="31" on="1"/>
        <pt x="246" y="-49" on="0"/>
        <pt x="157" y="-165" on="0"/>
        <pt x="75" y="-191" on="1"/>
        <pt x="46" y="-117" on="1"/>
        <pt x="98" y="-98" on="0"/>
        <pt x="155" y="-34" on="0"/>
        <pt x="155" y="5" on="1"/>
        <pt x="147" y="5" on="1"/>
        <pt x="112" y="5" on="0"/>
        <pt x="63" y="47" on="0"/>
        <pt x="63" y="84" on="1"/>
        <pt x="63" y="119" on="0"/>
        <pt x="113" y="164" on="0"/>
        <pt x="150" y="164" on="1"/>
      </contour>
    </TTGlyph>
    <TTGlyph name="copyright" xMin="46" yMin="-9" xMax="703" yMax="655">
      <contour>
        <pt x="286" y="-9" on="0"/>
        <pt x="135" y="73" on="0"/>
        <pt x="46" y="225" on="0"/>
        <pt x="46" y="325" on="1"/>
        <pt x="46" y="425" on="0"/>
        <pt x="135" y="575" on="0"/>
        <pt x="286" y="655" on="0"/>
        <pt x="375" y="655" on="1"/>
        <pt x="464" y="655" on="0"/>
        <pt x="614" y="574" on="0"/>
        <pt x="703" y="424" on="0"/>
        <pt x="703" y="325" on="1"/>
        <pt x="703" y="225" on="0"/>
        <pt x="614" y="73" on="0"/>
        <pt x="464" y="-9" on="0"/>
        <pt x="375" y="-9" on="1"/>
      </contour>
      <contour>
        <pt x="448" y="49" on="0"/>
        <pt x="568" y="118" on="0"/>
        <pt x="638" y="244" on="0"/>
        <pt x="638" y="325" on="1"/>
        <pt x="638" y="406" on="0"/>
        <pt x="568" y="530" on="0"/>
        <pt x="448" y="598" on="0"/>
        <pt x="374" y="598" on="1"/>
        <pt x="300" y="598" on="0"/>
        <pt x="180" y="530" on="0"/>
        <pt x="110" y="406" on="0"/>
        <pt x="110" y="325" on="1"/>
        <pt x="110" y="244" on="0"/>
        <pt x="180" y="118" on="0"/>
        <pt x="300" y="49" on="0"/>
        <pt x="374" y="49" on="1"/>
      </contour>
      <contour>
        <pt x="331" y="127" on="0"/>
        <pt x="244" y="175" on="0"/>
        <pt x="194" y="264" on="0"/>
        <pt x="194" y="324" on="1"/>
        <pt x="194" y="381" on="0"/>
        <pt x="247" y="468" on="0"/>
        <pt x="336" y="516" on="0"/>
        <pt x="386" y="516" on="1"/>
        <pt x="428" y="516" on="0"/>
        <pt x="489" y="485" on="0"/>
        <pt x="517" y="457" on="1"/>
        <pt x="465" y="399" on="1"/>
        <pt x="447" y="417" on="0"/>
        <pt x="415" y="435" on="0"/>
        <pt x="394" y="435" on="1"/>
        <pt x="347" y="435" on="0"/>
        <pt x="293" y="372" on="0"/>
        <pt x="293" y="324" on="1"/>
        <pt x="293" y="271" on="0"/>
        <pt x="345" y="208" on="0"/>
        <pt x="389" y="208" on="1"/>
        <pt x="413" y="208" on="0"/>
        <pt x="450" y="226" on="0"/>
        <pt x="473" y="244" on="1"/>
        <pt x="518" y="180" on="1"/>
        <pt x="487" y="154" on="0"/>
        <pt x="423" y="127" on="0"/>
        <pt x="386" y="127" on="1"/>
      </contour>
    </TTGlyph>
    <TTGlyph name="copyright.lat" xMin="46" yMin="-9" xMax="703" yMax="655">
      <contour>
        <pt x="286" y="-9" on="0"/>
        <pt x="135" y="73" on="0"/>
        <pt x="46" y="225" on="0"/>
        <pt x="46" y="325" on="1"/>
        <pt x="46" y="425" on="0"/>
        <pt x="135" y="575" on="0"/>
        <pt x="286" y="655" on="0"/>
        <pt x="375" y="655" on="1"/>
        <pt x="464" y="655" on="0"/>
        <pt x="614" y="574" on="0"/>
        <pt x="703" y="424" on="0"/>
        <pt x="703" y="325" on="1"/>
        <pt x="703" y="225" on="0"/>
        <pt x="614" y="73" on="0"/>
        <pt x="464" y="-9" on="0"/>
        <pt x="375" y="-9" on="1"/>
      </contour>
      <contour>
        <pt x="448" y="49" on="0"/>
        <pt x="568" y="118" on="0"/>
        <pt x="638" y="244" on="0"/>
        <pt x="638" y="325" on="1"/>
        <pt x="638" y="406" on="0"/>
        <pt x="568" y="530" on="0"/>
        <pt x="448" y="598" on="0"/>
        <pt x="374" y="598" on="1"/>
        <pt x="300" y="598" on="0"/>
        <pt x="180" y="530" on="0"/>
        <pt x="110" y="406" on="0"/>
        <pt x="110" y="325" on="1"/>
        <pt x="110" y="244" on="0"/>
        <pt x="180" y="118" on="0"/>
        <pt x="300" y="49" on="0"/>
        <pt x="374" y="49" on="1"/>
      </contour>
      <contour>
        <pt x="331" y="127" on="0"/>
        <pt x="244" y="175" on="0"/>
        <pt x="194" y="264" on="0"/>
        <pt x="194" y="324" on="1"/>
        <pt x="194" y="381" on="0"/>
        <pt x="247" y="468" on="0"/>
        <pt x="336" y="516" on="0"/>
        <pt x="386" y="516" on="1"/>
        <pt x="428" y="516" on="0"/>
        <pt x="489" y="485" on="0"/>
        <pt x="517" y="457" on="1"/>
        <pt x="465" y="399" on="1"/>
        <pt x="447" y="417" on="0"/>
        <pt x="415" y="435" on="0"/>
        <pt x="394" y="435" on="1"/>
        <pt x="347" y="435" on="0"/>
        <pt x="293" y="372" on="0"/>
        <pt x="293" y="324" on="1"/>
        <pt x="293" y="271" on="0"/>
        <pt x="345" y="208" on="0"/>
        <pt x="389" y="208" on="1"/>
        <pt x="413" y="208" on="0"/>
        <pt x="450" y="226" on="0"/>
        <pt x="473" y="244" on="1"/>
        <pt x="518" y="180" on="1"/>
        <pt x="487" y="154" on="0"/>
        <pt x="423" y="127" on="0"/>
        <pt x="386" y="127" on="1"/>
      </contour>
    </TTGlyph>
    <TTGlyph name="currency" xMin="21" yMin="87" xMax="503" yMax="572">
      <contour>
        <pt x="21" y="156" on="1"/>
        <pt x="83" y="218" on="1"/>
        <pt x="48" y="266" on="0"/>
        <pt x="48" y="330" on="1"/>
        <pt x="48" y="392" on="0"/>
        <pt x="82" y="441" on="1"/>
        <pt x="21" y="503" on="1"/>
        <pt x="90" y="572" on="1"/>
        <pt x="159" y="502" on="1"/>
        <pt x="205" y="529" on="0"/>
        <pt x="262" y="529" on="1"/>
        <pt x="319" y="529" on="0"/>
        <pt x="365" y="502" on="1"/>
        <pt x="434" y="572" on="1"/>
        <pt x="503" y="503" on="1"/>
        <pt x="441" y="441" on="1"/>
        <pt x="475" y="395" on="0"/>
        <pt x="475" y="330" on="1"/>
        <pt x="475" y="266" on="0"/>
        <pt x="440" y="218" on="1"/>
        <pt x="503" y="156" on="1"/>
        <pt x="434" y="87" on="1"/>
        <pt x="364" y="157" on="1"/>
        <pt x="319" y="131" on="0"/>
        <pt x="262" y="131" on="1"/>
        <pt x="205" y="131" on="0"/>
        <pt x="159" y="157" on="1"/>
        <pt x="90" y="87" on="1"/>
      </contour>
      <contour>
        <pt x="301" y="226" on="0"/>
        <pt x="353" y="284" on="0"/>
        <pt x="353" y="330" on="1"/>
        <pt x="353" y="376" on="0"/>
        <pt x="301" y="434" on="0"/>
        <pt x="262" y="434" on="1"/>
        <pt x="223" y="434" on="0"/>
        <pt x="170" y="376" on="0"/>
        <pt x="170" y="330" on="1"/>
        <pt x="170" y="284" on="0"/>
        <pt x="223" y="226" on="0"/>
        <pt x="262" y="226" on="1"/>
      </contour>
    </TTGlyph>
    <TTGlyph name="d" xMin="40" yMin="-12" xMax="502" yMax="703">
      <contour>
        <pt x="150" y="-12" on="0"/>
        <pt x="40" y="126" on="0"/>
        <pt x="40" y="247" on="1"/>
        <pt x="40" y="325" on="0"/>
        <pt x="98" y="443" on="0"/>
        <pt x="193" y="507" on="0"/>
        <pt x="247" y="507" on="1"/>
        <pt x="286" y="507" on="0"/>
        <pt x="342" y="481" on="0"/>
        <pt x="371" y="454" on="1"/>
        <pt x="366" y="531" on="1"/>
        <pt x="366" y="703" on="1"/>
        <pt x="502" y="703" on="1"/>
        <pt x="502" y="0" on="1"/>
        <pt x="391" y="0" on="1"/>
        <pt x="381" y="51" on="1"/>
        <pt x="377" y="51" on="1"/>
        <pt x="350" y="23" on="0"/>
        <pt x="278" y="-12" on="0"/>
        <pt x="243" y="-12" on="1"/>
      </contour>
      <contour>
        <pt x="328" y="100" on="0"/>
        <pt x="366" y="148" on="1"/>
        <pt x="366" y="360" on="1"/>
        <pt x="327" y="395" on="0"/>
        <pt x="278" y="395" on="1"/>
        <pt x="236" y="395" on="0"/>
        <pt x="180" y="319" on="0"/>
        <pt x="180" y="249" on="1"/>
        <pt x="180" y="174" on="0"/>
        <pt x="231" y="100" on="0"/>
        <pt x="278" y="100" on="1"/>
      </contour>
    </TTGlyph>
    <TTGlyph name="dagger" xMin="45" yMin="-80" xMax="455" yMax="712">
      <contour>
        <pt x="203" y="447" on="1"/>
        <pt x="45" y="439" on="1"/>
        <pt x="45" y="549" on="1"/>
        <pt x="203" y="541" on="1"/>
        <pt x="195" y="712" on="1"/>
        <pt x="305" y="712" on="1"/>
        <pt x="297" y="541" on="1"/>
        <pt x="455" y="549" on="1"/>
        <pt x="455" y="439" on="1"/>
        <pt x="297" y="447" on="1"/>
        <pt x="305" y="-80" on="1"/>
        <pt x="195" y="-80" on="1"/>
      </contour>
    </TTGlyph>
    <TTGlyph name="dagger.lat" xMin="45" yMin="-80" xMax="455" yMax="712">
      <contour>
        <pt x="203" y="447" on="1"/>
        <pt x="45" y="439" on="1"/>
        <pt x="45" y="549" on="1"/>
        <pt x="203" y="541" on="1"/>
        <pt x="195" y="712" on="1"/>
        <pt x="305" y="712" on="1"/>
        <pt x="297" y="541" on="1"/>
        <pt x="455" y="549" on="1"/>
        <pt x="455" y="439" on="1"/>
        <pt x="297" y="447" on="1"/>
        <pt x="305" y="-80" on="1"/>
        <pt x="195" y="-80" on="1"/>
      </contour>
    </TTGlyph>
    <TTGlyph name="daggerdbl" xMin="45" yMin="-80" xMax="455" yMax="712">
      <contour>
        <pt x="203" y="91" on="1"/>
        <pt x="45" y="83" on="1"/>
        <pt x="45" y="193" on="1"/>
        <pt x="203" y="182" on="1"/>
        <pt x="195" y="316" on="1"/>
        <pt x="203" y="450" on="1"/>
        <pt x="45" y="439" on="1"/>
        <pt x="45" y="549" on="1"/>
        <pt x="203" y="541" on="1"/>
        <pt x="195" y="712" on="1"/>
        <pt x="305" y="712" on="1"/>
        <pt x="297" y="541" on="1"/>
        <pt x="455" y="549" on="1"/>
        <pt x="455" y="439" on="1"/>
        <pt x="297" y="450" on="1"/>
        <pt x="305" y="316" on="1"/>
        <pt x="297" y="182" on="1"/>
        <pt x="455" y="193" on="1"/>
        <pt x="455" y="83" on="1"/>
        <pt x="297" y="91" on="1"/>
        <pt x="305" y="-80" on="1"/>
        <pt x="195" y="-80" on="1"/>
      </contour>
    </TTGlyph>
    <TTGlyph name="daggerdbl.lat" xMin="45" yMin="-80" xMax="455" yMax="712">
      <contour>
        <pt x="203" y="91" on="1"/>
        <pt x="45" y="83" on="1"/>
        <pt x="45" y="193" on="1"/>
        <pt x="203" y="182" on="1"/>
        <pt x="195" y="316" on="1"/>
        <pt x="203" y="450" on="1"/>
        <pt x="45" y="439" on="1"/>
        <pt x="45" y="549" on="1"/>
        <pt x="203" y="541" on="1"/>
        <pt x="195" y="712" on="1"/>
        <pt x="305" y="712" on="1"/>
        <pt x="297" y="541" on="1"/>
        <pt x="455" y="549" on="1"/>
        <pt x="455" y="439" on="1"/>
        <pt x="297" y="450" on="1"/>
        <pt x="305" y="316" on="1"/>
        <pt x="297" y="182" on="1"/>
        <pt x="455" y="193" on="1"/>
        <pt x="455" y="83" on="1"/>
        <pt x="297" y="91" on="1"/>
        <pt x="305" y="-80" on="1"/>
        <pt x="195" y="-80" on="1"/>
      </contour>
    </TTGlyph>
    <TTGlyph name="degree" xMin="39" yMin="403" xMax="322" yMax="686">
      <contour>
        <pt x="142" y="403" on="0"/>
        <pt x="77" y="439" on="0"/>
        <pt x="39" y="504" on="0"/>
        <pt x="39" y="544" on="1"/>
        <pt x="39" y="585" on="0"/>
        <pt x="77" y="649" on="0"/>
        <pt x="142" y="686" on="0"/>
        <pt x="181" y="686" on="1"/>
        <pt x="220" y="686" on="0"/>
        <pt x="284" y="649" on="0"/>
        <pt x="322" y="585" on="0"/>
        <pt x="322" y="544" on="1"/>
        <pt x="322" y="504" on="0"/>
        <pt x="284" y="439" on="0"/>
        <pt x="220" y="403" on="0"/>
        <pt x="181" y="403" on="1"/>
      </contour>
      <contour>
        <pt x="211" y="470" on="0"/>
        <pt x="249" y="511" on="0"/>
        <pt x="249" y="544" on="1"/>
        <pt x="249" y="578" on="0"/>
        <pt x="211" y="619" on="0"/>
        <pt x="181" y="619" on="1"/>
        <pt x="150" y="619" on="0"/>
        <pt x="112" y="578" on="0"/>
        <pt x="112" y="544" on="1"/>
        <pt x="112" y="511" on="0"/>
        <pt x="150" y="470" on="0"/>
        <pt x="181" y="470" on="1"/>
      </contour>
    </TTGlyph>
    <TTGlyph name="degree.lat" xMin="39" yMin="403" xMax="322" yMax="686">
      <contour>
        <pt x="142" y="403" on="0"/>
        <pt x="77" y="439" on="0"/>
        <pt x="39" y="504" on="0"/>
        <pt x="39" y="544" on="1"/>
        <pt x="39" y="585" on="0"/>
        <pt x="77" y="649" on="0"/>
        <pt x="142" y="686" on="0"/>
        <pt x="181" y="686" on="1"/>
        <pt x="220" y="686" on="0"/>
        <pt x="284" y="649" on="0"/>
        <pt x="322" y="585" on="0"/>
        <pt x="322" y="544" on="1"/>
        <pt x="322" y="504" on="0"/>
        <pt x="284" y="439" on="0"/>
        <pt x="220" y="403" on="0"/>
        <pt x="181" y="403" on="1"/>
      </contour>
      <contour>
        <pt x="211" y="470" on="0"/>
        <pt x="249" y="511" on="0"/>
        <pt x="249" y="544" on="1"/>
        <pt x="249" y="578" on="0"/>
        <pt x="211" y="619" on="0"/>
        <pt x="181" y="619" on="1"/>
        <pt x="150" y="619" on="0"/>
        <pt x="112" y="578" on="0"/>
        <pt x="112" y="544" on="1"/>
        <pt x="112" y="511" on="0"/>
        <pt x="150" y="470" on="0"/>
        <pt x="181" y="470" on="1"/>
      </contour>
    </TTGlyph>
    <TTGlyph name="dieresis" xMin="102" yMin="572" xMax="452" yMax="708">
      <component glyphName="uni0308" x="277" y="0" flags="0x0"/>
    </TTGlyph>
    <TTGlyph name="divide" xMin="34" yMin="77" xMax="489" yMax="583">
      <contour>
        <pt x="228" y="437" on="0"/>
        <pt x="184" y="478" on="0"/>
        <pt x="184" y="510" on="1"/>
        <pt x="184" y="542" on="0"/>
        <pt x="228" y="583" on="0"/>
        <pt x="261" y="583" on="1"/>
        <pt x="294" y="583" on="0"/>
        <pt x="338" y="542" on="0"/>
        <pt x="338" y="510" on="1"/>
        <pt x="338" y="478" on="0"/>
        <pt x="294" y="437" on="0"/>
        <pt x="261" y="437" on="1"/>
      </contour>
      <contour>
        <pt x="34" y="379" on="1"/>
        <pt x="489" y="379" on="1"/>
        <pt x="489" y="282" on="1"/>
        <pt x="34" y="282" on="1"/>
      </contour>
      <contour>
        <pt x="228" y="77" on="0"/>
        <pt x="184" y="118" on="0"/>
        <pt x="184" y="150" on="1"/>
        <pt x="184" y="182" on="0"/>
        <pt x="228" y="223" on="0"/>
        <pt x="261" y="223" on="1"/>
        <pt x="294" y="223" on="0"/>
        <pt x="338" y="182" on="0"/>
        <pt x="338" y="150" on="1"/>
        <pt x="338" y="118" on="0"/>
        <pt x="294" y="77" on="0"/>
        <pt x="261" y="77" on="1"/>
      </contour>
    </TTGlyph>
    <TTGlyph name="dollar" xMin="41" yMin="-110" xMax="463" yMax="746">
      <contour>
        <pt x="463" y="110" on="0"/>
        <pt x="382" y="9" on="0"/>
        <pt x="308" y="-6" on="1"/>
        <pt x="308" y="-110" on="1"/>
        <pt x="216" y="-110" on="1"/>
        <pt x="216" y="-10" on="1"/>
        <pt x="169" y="-4" on="0"/>
        <pt x="75" y="35" on="0"/>
        <pt x="41" y="66" on="1"/>
        <pt x="101" y="159" on="1"/>
        <pt x="140" y="129" on="0"/>
        <pt x="210" y="99" on="0"/>
        <pt x="246" y="99" on="1"/>
        <pt x="332" y="99" on="0"/>
        <pt x="332" y="173" on="1"/>
        <pt x="332" y="206" on="0"/>
        <pt x="279" y="249" on="0"/>
        <pt x="223" y="278" on="1"/>
        <pt x="173" y="304" on="0"/>
        <pt x="110" y="346" on="0"/>
        <pt x="66" y="414" on="0"/>
        <pt x="66" y="461" on="1"/>
        <pt x="66" y="533" on="0"/>
        <pt x="146" y="629" on="0"/>
        <pt x="216" y="643" on="1"/>
        <pt x="216" y="746" on="1"/>
        <pt x="308" y="746" on="1"/>
        <pt x="308" y="645" on="1"/>
        <pt x="391" y="633" on="0"/>
        <pt x="455" y="564" on="1"/>
        <pt x="386" y="486" on="1"/>
        <pt x="357" y="512" on="0"/>
        <pt x="306" y="537" on="0"/>
        <pt x="275" y="537" on="1"/>
        <pt x="197" y="537" on="0"/>
        <pt x="197" y="468" on="1"/>
        <pt x="197" y="438" on="0"/>
        <pt x="247" y="400" on="0"/>
        <pt x="299" y="375" on="1"/>
        <pt x="350" y="350" on="0"/>
        <pt x="416" y="307" on="0"/>
        <pt x="463" y="235" on="0"/>
        <pt x="463" y="183" on="1"/>
      </contour>
    </TTGlyph>
    <TTGlyph name="dollar.lat" xMin="41" yMin="-110" xMax="463" yMax="746">
      <contour>
        <pt x="463" y="110" on="0"/>
        <pt x="382" y="9" on="0"/>
        <pt x="308" y="-6" on="1"/>
        <pt x="308" y="-110" on="1"/>
        <pt x="216" y="-110" on="1"/>
        <pt x="216" y="-10" on="1"/>
        <pt x="169" y="-4" on="0"/>
        <pt x="75" y="35" on="0"/>
        <pt x="41" y="66" on="1"/>
        <pt x="101" y="159" on="1"/>
        <pt x="140" y="129" on="0"/>
        <pt x="210" y="99" on="0"/>
        <pt x="246" y="99" on="1"/>
        <pt x="332" y="99" on="0"/>
        <pt x="332" y="173" on="1"/>
        <pt x="332" y="206" on="0"/>
        <pt x="279" y="249" on="0"/>
        <pt x="223" y="278" on="1"/>
        <pt x="173" y="304" on="0"/>
        <pt x="110" y="346" on="0"/>
        <pt x="66" y="414" on="0"/>
        <pt x="66" y="461" on="1"/>
        <pt x="66" y="533" on="0"/>
        <pt x="146" y="629" on="0"/>
        <pt x="216" y="643" on="1"/>
        <pt x="216" y="746" on="1"/>
        <pt x="308" y="746" on="1"/>
        <pt x="308" y="645" on="1"/>
        <pt x="391" y="633" on="0"/>
        <pt x="455" y="564" on="1"/>
        <pt x="386" y="486" on="1"/>
        <pt x="357" y="512" on="0"/>
        <pt x="306" y="537" on="0"/>
        <pt x="275" y="537" on="1"/>
        <pt x="197" y="537" on="0"/>
        <pt x="197" y="468" on="1"/>
        <pt x="197" y="438" on="0"/>
        <pt x="247" y="400" on="0"/>
        <pt x="299" y="375" on="1"/>
        <pt x="350" y="350" on="0"/>
        <pt x="416" y="307" on="0"/>
        <pt x="463" y="235" on="0"/>
        <pt x="463" y="183" on="1"/>
      </contour>
    </TTGlyph>
    <TTGlyph name="dotaccent" xMin="200" yMin="572" xMax="354" yMax="718">
      <component glyphName="uni0307" x="277" y="0" flags="0x0"/>
    </TTGlyph>
    <TTGlyph name="dotbelowcomb" xMin="-77" yMin="-223" xMax="77" yMax="-77">
      <contour>
        <pt x="-34" y="-223" on="0"/>
        <pt x="-77" y="-182" on="0"/>
        <pt x="-77" y="-150" on="1"/>
        <pt x="-77" y="-118" on="0"/>
        <pt x="-34" y="-77" on="0"/>
        <pt x="0" y="-77" on="1"/>
        <pt x="34" y="-77" on="0"/>
        <pt x="77" y="-118" on="0"/>
        <pt x="77" y="-150" on="1"/>
        <pt x="77" y="-182" on="0"/>
        <pt x="34" y="-223" on="0"/>
        <pt x="0" y="-223" on="1"/>
      </contour>
    </TTGlyph>
    <TTGlyph name="dotlessi" xMin="67" yMin="0" xMax="204" yMax="495">
      <contour>
        <pt x="67" y="495" on="1"/>
        <pt x="204" y="495" on="1"/>
        <pt x="204" y="0" on="1"/>
        <pt x="67" y="0" on="1"/>
      </contour>
    </TTGlyph>
    <TTGlyph name="dotlessj" xMin="-45" yMin="-200" xMax="212" yMax="495">
      <contour>
        <pt x="-10" y="-200" on="0"/>
        <pt x="-45" y="-186" on="1"/>
        <pt x="-21" y="-85" on="1"/>
        <pt x="4" y="-92" on="0"/>
        <pt x="20" y="-92" on="1"/>
        <pt x="50" y="-92" on="0"/>
        <pt x="74" y="-53" on="0"/>
        <pt x="74" y="-10" on="1"/>
        <pt x="75" y="495" on="1"/>
        <pt x="212" y="495" on="1"/>
        <pt x="210" y="-6" on="1"/>
        <pt x="210" y="-94" on="0"/>
        <pt x="131" y="-200" on="0"/>
        <pt x="40" y="-200" on="1"/>
      </contour>
    </TTGlyph>
    <TTGlyph name="e" xMin="37" yMin="-12" xMax="477" yMax="507">
      <contour>
        <pt x="477" y="232" on="0"/>
        <pt x="471" y="208" on="1"/>
        <pt x="165" y="208" on="1"/>
        <pt x="175" y="149" on="0"/>
        <pt x="252" y="93" on="0"/>
        <pt x="304" y="93" on="1"/>
        <pt x="356" y="93" on="0"/>
        <pt x="413" y="126" on="1"/>
        <pt x="459" y="43" on="1"/>
        <pt x="421" y="17" on="0"/>
        <pt x="330" y="-12" on="0"/>
        <pt x="285" y="-12" on="1"/>
        <pt x="215" y="-12" on="0"/>
        <pt x="102" y="50" on="0"/>
        <pt x="37" y="168" on="0"/>
        <pt x="37" y="247" on="1"/>
        <pt x="37" y="324" on="0"/>
        <pt x="102" y="443" on="0"/>
        <pt x="209" y="507" on="0"/>
        <pt x="269" y="507" on="1"/>
        <pt x="369" y="507" on="0"/>
        <pt x="477" y="376" on="0"/>
        <pt x="477" y="270" on="1"/>
      </contour>
      <contour>
        <pt x="360" y="299" on="1"/>
        <pt x="360" y="347" on="0"/>
        <pt x="316" y="402" on="0"/>
        <pt x="272" y="402" on="1"/>
        <pt x="234" y="402" on="0"/>
        <pt x="177" y="351" on="0"/>
        <pt x="167" y="299" on="1"/>
      </contour>
    </TTGlyph>
    <TTGlyph name="e.sups" xMin="24" yMin="371" xMax="322" yMax="715">
      <contour>
        <pt x="145" y="371" on="0"/>
        <pt x="68" y="412" on="0"/>
        <pt x="24" y="490" on="0"/>
        <pt x="24" y="543" on="1"/>
        <pt x="24" y="594" on="0"/>
        <pt x="67" y="672" on="0"/>
        <pt x="139" y="715" on="0"/>
        <pt x="181" y="715" on="1"/>
        <pt x="251" y="715" on="0"/>
        <pt x="322" y="624" on="0"/>
        <pt x="322" y="558" on="1"/>
        <pt x="322" y="541" on="0"/>
        <pt x="317" y="518" on="1"/>
        <pt x="117" y="518" on="1"/>
        <pt x="123" y="481" on="0"/>
        <pt x="169" y="445" on="0"/>
        <pt x="204" y="445" on="1"/>
        <pt x="244" y="445" on="0"/>
        <pt x="278" y="466" on="1"/>
        <pt x="311" y="408" on="1"/>
        <pt x="285" y="390" on="0"/>
        <pt x="222" y="371" on="0"/>
        <pt x="192" y="371" on="1"/>
      </contour>
      <contour>
        <pt x="240" y="574" on="1"/>
        <pt x="240" y="603" on="0"/>
        <pt x="212" y="641" on="0"/>
        <pt x="182" y="641" on="1"/>
        <pt x="156" y="641" on="0"/>
        <pt x="121" y="607" on="0"/>
        <pt x="116" y="574" on="1"/>
      </contour>
    </TTGlyph>
    <TTGlyph name="eacute" xMin="37" yMin="-12" xMax="477" yMax="819">
      <component glyphName="e" x="0" y="0" flags="0x0"/>
      <component glyphName="acutecomb" x="275" y="0" flags="0x0"/>
    </TTGlyph>
    <TTGlyph name="ebreve" xMin="37" yMin="-12" xMax="477" yMax="741">
      <component glyphName="e" x="0" y="0" flags="0x0"/>
      <component glyphName="uni0306" x="275" y="0" flags="0x0"/>
    </TTGlyph>
    <TTGlyph name="ecircumflex" xMin="37" yMin="-12" xMax="477" yMax="744">
      <component glyphName="e" x="0" y="0" flags="0x0"/>
      <component glyphName="uni0302" x="275" y="0" flags="0x0"/>
    </TTGlyph>
    <TTGlyph name="edieresis" xMin="37" yMin="-12" xMax="477" yMax="708">
      <component glyphName="e" x="0" y="0" flags="0x0"/>
      <component glyphName="uni0308" x="275" y="0" flags="0x0"/>
    </TTGlyph>
    <TTGlyph name="egrave" xMin="37" yMin="-12" xMax="477" yMax="819">
      <component glyphName="e" x="0" y="0" flags="0x0"/>
      <component glyphName="gravecomb" x="275" y="0" flags="0x0"/>
    </TTGlyph>
    <TTGlyph name="eight" xMin="41" yMin="-12" xMax="482" yMax="648">
      <contour>
        <pt x="199" y="-12" on="0"/>
        <pt x="98" y="33" on="0"/>
        <pt x="41" y="112" on="0"/>
        <pt x="41" y="163" on="1"/>
        <pt x="41" y="262" on="0"/>
        <pt x="152" y="321" on="1"/>
        <pt x="152" y="325" on="1"/>
        <pt x="66" y="388" on="0"/>
        <pt x="66" y="474" on="1"/>
        <pt x="66" y="553" on="0"/>
        <pt x="177" y="648" on="0"/>
        <pt x="265" y="648" on="1"/>
        <pt x="352" y="648" on="0"/>
        <pt x="456" y="553" on="0"/>
        <pt x="456" y="474" on="1"/>
        <pt x="456" y="431" on="0"/>
        <pt x="408" y="357" on="0"/>
        <pt x="372" y="333" on="1"/>
        <pt x="372" y="329" on="1"/>
        <pt x="423" y="301" on="0"/>
        <pt x="482" y="222" on="0"/>
        <pt x="482" y="163" on="1"/>
        <pt x="482" y="114" on="0"/>
        <pt x="426" y="34" on="0"/>
        <pt x="326" y="-12" on="0"/>
        <pt x="261" y="-12" on="1"/>
      </contour>
      <contour>
        <pt x="345" y="415" on="0"/>
        <pt x="345" y="465" on="1"/>
        <pt x="345" y="504" on="0"/>
        <pt x="301" y="552" on="0"/>
        <pt x="262" y="552" on="1"/>
        <pt x="229" y="552" on="0"/>
        <pt x="186" y="511" on="0"/>
        <pt x="186" y="474" on="1"/>
        <pt x="186" y="436" on="0"/>
        <pt x="243" y="390" on="0"/>
        <pt x="301" y="366" on="1"/>
      </contour>
      <contour>
        <pt x="305" y="84" on="0"/>
        <pt x="356" y="128" on="0"/>
        <pt x="356" y="168" on="1"/>
        <pt x="356" y="196" on="0"/>
        <pt x="322" y="236" on="0"/>
        <pt x="269" y="263" on="0"/>
        <pt x="215" y="285" on="1"/>
        <pt x="190" y="263" on="0"/>
        <pt x="160" y="208" on="0"/>
        <pt x="160" y="178" on="1"/>
        <pt x="160" y="136" on="0"/>
        <pt x="220" y="84" on="0"/>
        <pt x="264" y="84" on="1"/>
      </contour>
    </TTGlyph>
    <TTGlyph name="eight.heb" xMin="41" yMin="-12" xMax="482" yMax="648">
      <contour>
        <pt x="199" y="-12" on="0"/>
        <pt x="98" y="33" on="0"/>
        <pt x="41" y="112" on="0"/>
        <pt x="41" y="163" on="1"/>
        <pt x="41" y="262" on="0"/>
        <pt x="152" y="321" on="1"/>
        <pt x="152" y="325" on="1"/>
        <pt x="66" y="388" on="0"/>
        <pt x="66" y="474" on="1"/>
        <pt x="66" y="553" on="0"/>
        <pt x="177" y="648" on="0"/>
        <pt x="265" y="648" on="1"/>
        <pt x="352" y="648" on="0"/>
        <pt x="456" y="553" on="0"/>
        <pt x="456" y="474" on="1"/>
        <pt x="456" y="431" on="0"/>
        <pt x="408" y="357" on="0"/>
        <pt x="372" y="333" on="1"/>
        <pt x="372" y="329" on="1"/>
        <pt x="423" y="301" on="0"/>
        <pt x="482" y="222" on="0"/>
        <pt x="482" y="163" on="1"/>
        <pt x="482" y="114" on="0"/>
        <pt x="426" y="34" on="0"/>
        <pt x="326" y="-12" on="0"/>
        <pt x="261" y="-12" on="1"/>
      </contour>
      <contour>
        <pt x="345" y="415" on="0"/>
        <pt x="345" y="465" on="1"/>
        <pt x="345" y="504" on="0"/>
        <pt x="301" y="552" on="0"/>
        <pt x="262" y="552" on="1"/>
        <pt x="229" y="552" on="0"/>
        <pt x="186" y="511" on="0"/>
        <pt x="186" y="474" on="1"/>
        <pt x="186" y="436" on="0"/>
        <pt x="243" y="390" on="0"/>
        <pt x="301" y="366" on="1"/>
      </contour>
      <contour>
        <pt x="305" y="84" on="0"/>
        <pt x="356" y="128" on="0"/>
        <pt x="356" y="168" on="1"/>
        <pt x="356" y="196" on="0"/>
        <pt x="322" y="236" on="0"/>
        <pt x="269" y="263" on="0"/>
        <pt x="215" y="285" on="1"/>
        <pt x="190" y="263" on="0"/>
        <pt x="160" y="208" on="0"/>
        <pt x="160" y="178" on="1"/>
        <pt x="160" y="136" on="0"/>
        <pt x="220" y="84" on="0"/>
        <pt x="264" y="84" on="1"/>
      </contour>
    </TTGlyph>
    <TTGlyph name="eight.lat" xMin="41" yMin="-12" xMax="482" yMax="648">
      <contour>
        <pt x="199" y="-12" on="0"/>
        <pt x="98" y="33" on="0"/>
        <pt x="41" y="112" on="0"/>
        <pt x="41" y="163" on="1"/>
        <pt x="41" y="262" on="0"/>
        <pt x="152" y="321" on="1"/>
        <pt x="152" y="325" on="1"/>
        <pt x="66" y="388" on="0"/>
        <pt x="66" y="474" on="1"/>
        <pt x="66" y="553" on="0"/>
        <pt x="177" y="648" on="0"/>
        <pt x="265" y="648" on="1"/>
        <pt x="352" y="648" on="0"/>
        <pt x="456" y="553" on="0"/>
        <pt x="456" y="474" on="1"/>
        <pt x="456" y="431" on="0"/>
        <pt x="408" y="357" on="0"/>
        <pt x="372" y="333" on="1"/>
        <pt x="372" y="329" on="1"/>
        <pt x="423" y="301" on="0"/>
        <pt x="482" y="222" on="0"/>
        <pt x="482" y="163" on="1"/>
        <pt x="482" y="114" on="0"/>
        <pt x="426" y="34" on="0"/>
        <pt x="326" y="-12" on="0"/>
        <pt x="261" y="-12" on="1"/>
      </contour>
      <contour>
        <pt x="345" y="415" on="0"/>
        <pt x="345" y="465" on="1"/>
        <pt x="345" y="504" on="0"/>
        <pt x="301" y="552" on="0"/>
        <pt x="262" y="552" on="1"/>
        <pt x="229" y="552" on="0"/>
        <pt x="186" y="511" on="0"/>
        <pt x="186" y="474" on="1"/>
        <pt x="186" y="436" on="0"/>
        <pt x="243" y="390" on="0"/>
        <pt x="301" y="366" on="1"/>
      </contour>
      <contour>
        <pt x="305" y="84" on="0"/>
        <pt x="356" y="128" on="0"/>
        <pt x="356" y="168" on="1"/>
        <pt x="356" y="196" on="0"/>
        <pt x="322" y="236" on="0"/>
        <pt x="269" y="263" on="0"/>
        <pt x="215" y="285" on="1"/>
        <pt x="190" y="263" on="0"/>
        <pt x="160" y="208" on="0"/>
        <pt x="160" y="178" on="1"/>
        <pt x="160" y="136" on="0"/>
        <pt x="220" y="84" on="0"/>
        <pt x="264" y="84" on="1"/>
      </contour>
    </TTGlyph>
    <TTGlyph name="ellipsis" xMin="82" yMin="-12" xMax="918" yMax="164">
      <component glyphName="period" x="20" y="0" flags="0x0"/>
      <component glyphName="period" x="354" y="0" flags="0x0"/>
      <component glyphName="period" x="688" y="0" flags="0x0"/>
    </TTGlyph>
    <TTGlyph name="emacron" xMin="37" yMin="-12" xMax="477" yMax="681">
      <component glyphName="e" x="0" y="0" flags="0x0"/>
      <component glyphName="uni0304" x="275" y="0" flags="0x0"/>
    </TTGlyph>
    <TTGlyph name="emdash" xMin="43" yMin="209" xMax="757" yMax="297">
      <contour>
        <pt x="43" y="297" on="1"/>
        <pt x="757" y="297" on="1"/>
        <pt x="757" y="209" on="1"/>
        <pt x="43" y="209" on="1"/>
      </contour>
    </TTGlyph>
    <TTGlyph name="emdash.lat" xMin="43" yMin="209" xMax="757" yMax="297">
      <contour>
        <pt x="43" y="297" on="1"/>
        <pt x="757" y="297" on="1"/>
        <pt x="757" y="209" on="1"/>
        <pt x="43" y="209" on="1"/>
      </contour>
    </TTGlyph>
    <TTGlyph name="endash" xMin="43" yMin="209" xMax="437" yMax="297">
      <contour>
        <pt x="43" y="297" on="1"/>
        <pt x="437" y="297" on="1"/>
        <pt x="437" y="209" on="1"/>
        <pt x="43" y="209" on="1"/>
      </contour>
    </TTGlyph>
    <TTGlyph name="endash.lat" xMin="43" yMin="209" xMax="437" yMax="297">
      <contour>
        <pt x="43" y="297" on="1"/>
        <pt x="437" y="297" on="1"/>
        <pt x="437" y="209" on="1"/>
        <pt x="43" y="209" on="1"/>
      </contour>
    </TTGlyph>
    <TTGlyph name="eogonek" xMin="37" yMin="-210" xMax="477" yMax="507">
      <contour>
        <pt x="316" y="-210" on="0"/>
        <pt x="259" y="-162" on="0"/>
        <pt x="259" y="-119" on="1"/>
        <pt x="259" y="-87" on="0"/>
        <pt x="293" y="-29" on="0"/>
        <pt x="316" y="-8" on="1"/>
        <pt x="303" y="-12" on="0"/>
        <pt x="285" y="-12" on="1"/>
        <pt x="215" y="-12" on="0"/>
        <pt x="102" y="50" on="0"/>
        <pt x="37" y="168" on="0"/>
        <pt x="37" y="247" on="1"/>
        <pt x="37" y="324" on="0"/>
        <pt x="102" y="443" on="0"/>
        <pt x="209" y="507" on="0"/>
        <pt x="269" y="507" on="1"/>
        <pt x="369" y="507" on="0"/>
        <pt x="477" y="376" on="0"/>
        <pt x="477" y="270" on="1"/>
        <pt x="477" y="232" on="0"/>
        <pt x="471" y="208" on="1"/>
        <pt x="170" y="208" on="1"/>
        <pt x="179" y="151" on="0"/>
        <pt x="249" y="93" on="0"/>
        <pt x="304" y="93" on="1"/>
        <pt x="356" y="93" on="0"/>
        <pt x="413" y="126" on="1"/>
        <pt x="459" y="43" on="1"/>
        <pt x="395" y="-1" on="0"/>
        <pt x="351" y="-58" on="0"/>
        <pt x="351" y="-89" on="1"/>
        <pt x="351" y="-108" on="0"/>
        <pt x="375" y="-128" on="0"/>
        <pt x="394" y="-128" on="1"/>
        <pt x="410" y="-128" on="0"/>
        <pt x="430" y="-115" on="1"/>
        <pt x="459" y="-177" on="1"/>
        <pt x="441" y="-192" on="0"/>
        <pt x="385" y="-210" on="0"/>
        <pt x="361" y="-210" on="1"/>
      </contour>
      <contour>
        <pt x="360" y="299" on="1"/>
        <pt x="360" y="347" on="0"/>
        <pt x="316" y="402" on="0"/>
        <pt x="272" y="402" on="1"/>
        <pt x="233" y="402" on="0"/>
        <pt x="175" y="348" on="0"/>
        <pt x="168" y="299" on="1"/>
      </contour>
    </TTGlyph>
    <TTGlyph name="eogonek.sups" xMin="24" yMin="371" xMax="322" yMax="715">
      <contour>
        <pt x="145" y="371" on="0"/>
        <pt x="68" y="412" on="0"/>
        <pt x="24" y="490" on="0"/>
        <pt x="24" y="543" on="1"/>
        <pt x="24" y="594" on="0"/>
        <pt x="67" y="672" on="0"/>
        <pt x="139" y="715" on="0"/>
        <pt x="181" y="715" on="1"/>
        <pt x="251" y="715" on="0"/>
        <pt x="322" y="624" on="0"/>
        <pt x="322" y="558" on="1"/>
        <pt x="322" y="541" on="0"/>
        <pt x="317" y="518" on="1"/>
        <pt x="117" y="518" on="1"/>
        <pt x="123" y="481" on="0"/>
        <pt x="169" y="445" on="0"/>
        <pt x="204" y="445" on="1"/>
        <pt x="244" y="445" on="0"/>
        <pt x="278" y="466" on="1"/>
        <pt x="311" y="408" on="1"/>
        <pt x="285" y="390" on="0"/>
        <pt x="222" y="371" on="0"/>
        <pt x="192" y="371" on="1"/>
      </contour>
      <contour>
        <pt x="240" y="574" on="1"/>
        <pt x="240" y="603" on="0"/>
        <pt x="212" y="641" on="0"/>
        <pt x="182" y="641" on="1"/>
        <pt x="156" y="641" on="0"/>
        <pt x="121" y="607" on="0"/>
        <pt x="116" y="574" on="1"/>
      </contour>
    </TTGlyph>
    <TTGlyph name="equal" xMin="34" yMin="167" xMax="489" yMax="494">
      <component glyphName="minus" x="0" y="115" flags="0x4"/>
      <component glyphName="minus" x="0" y="-115" flags="0x4"/>
    </TTGlyph>
    <TTGlyph name="estimated" xMin="46" yMin="-11" xMax="755" yMax="661">
      <contour>
        <pt x="305" y="-11" on="0"/>
        <pt x="142" y="79" on="0"/>
        <pt x="46" y="234" on="0"/>
        <pt x="46" y="325" on="1"/>
        <pt x="46" y="416" on="0"/>
        <pt x="142" y="571" on="0"/>
        <pt x="305" y="661" on="0"/>
        <pt x="401" y="661" on="1"/>
        <pt x="497" y="661" on="0"/>
        <pt x="660" y="571" on="0"/>
        <pt x="755" y="417" on="0"/>
        <pt x="755" y="325" on="1"/>
        <pt x="755" y="316" on="1"/>
        <pt x="180" y="316" on="1"/>
        <pt x="176" y="316" on="0"/>
        <pt x="176" y="312" on="1"/>
        <pt x="176" y="129" on="1"/>
        <pt x="176" y="120" on="0"/>
        <pt x="184" y="108" on="1"/>
        <pt x="225" y="61" on="0"/>
        <pt x="339" y="9" on="0"/>
        <pt x="402" y="9" on="1"/>
        <pt x="469" y="9" on="0"/>
        <pt x="588" y="68" on="0"/>
        <pt x="630" y="120" on="1"/>
        <pt x="682" y="120" on="1"/>
        <pt x="632" y="59" on="0"/>
        <pt x="485" y="-11" on="0"/>
        <pt x="401" y="-11" on="1"/>
      </contour>
      <contour>
        <pt x="621" y="335" on="1"/>
        <pt x="626" y="335" on="0"/>
        <pt x="626" y="340" on="1"/>
        <pt x="626" y="524" on="1"/>
        <pt x="626" y="535" on="0"/>
        <pt x="617" y="546" on="1"/>
        <pt x="574" y="591" on="0"/>
        <pt x="463" y="641" on="0"/>
        <pt x="402" y="641" on="1"/>
        <pt x="339" y="641" on="0"/>
        <pt x="227" y="589" on="0"/>
        <pt x="185" y="543" on="1"/>
        <pt x="176" y="532" on="0"/>
        <pt x="176" y="520" on="1"/>
        <pt x="176" y="340" on="1"/>
        <pt x="176" y="335" on="0"/>
        <pt x="180" y="335" on="1"/>
      </contour>
    </TTGlyph>
    <TTGlyph name="eth" xMin="44" yMin="-12" xMax="506" yMax="739">
      <contour>
        <pt x="506" y="467" on="0"/>
        <pt x="506" y="265" on="1"/>
        <pt x="506" y="185" on="0"/>
        <pt x="449" y="59" on="0"/>
        <pt x="343" y="-12" on="0"/>
        <pt x="272" y="-12" on="1"/>
        <pt x="211" y="-12" on="0"/>
        <pt x="106" y="47" on="0"/>
        <pt x="44" y="156" on="0"/>
        <pt x="44" y="227" on="1"/>
        <pt x="44" y="296" on="0"/>
        <pt x="100" y="399" on="0"/>
        <pt x="194" y="454" on="0"/>
        <pt x="248" y="454" on="1"/>
        <pt x="316" y="454" on="0"/>
        <pt x="357" y="409" on="1"/>
        <pt x="331" y="490" on="0"/>
        <pt x="269" y="551" on="1"/>
        <pt x="127" y="479" on="1"/>
        <pt x="91" y="540" on="1"/>
        <pt x="209" y="600" on="1"/>
        <pt x="170" y="626" on="0"/>
        <pt x="116" y="655" on="1"/>
        <pt x="176" y="739" on="1"/>
        <pt x="254" y="699" on="0"/>
        <pt x="314" y="653" on="1"/>
        <pt x="456" y="725" on="1"/>
        <pt x="492" y="663" on="1"/>
        <pt x="371" y="602" on="1"/>
      </contour>
      <contour>
        <pt x="325" y="99" on="0"/>
        <pt x="378" y="180" on="0"/>
        <pt x="378" y="258" on="1"/>
        <pt x="378" y="274" on="0"/>
        <pt x="376" y="304" on="1"/>
        <pt x="336" y="352" on="0"/>
        <pt x="275" y="352" on="1"/>
        <pt x="227" y="352" on="0"/>
        <pt x="169" y="287" on="0"/>
        <pt x="169" y="227" on="1"/>
        <pt x="169" y="168" on="0"/>
        <pt x="231" y="99" on="0"/>
        <pt x="277" y="99" on="1"/>
      </contour>
    </TTGlyph>
    <TTGlyph name="exclam" xMin="82" yMin="-12" xMax="250" yMax="670">
      <contour>
        <pt x="102" y="544" on="1"/>
        <pt x="97" y="670" on="1"/>
        <pt x="234" y="670" on="1"/>
        <pt x="230" y="544" on="1"/>
        <pt x="211" y="226" on="1"/>
        <pt x="121" y="226" on="1"/>
      </contour>
      <contour>
        <pt x="130" y="-12" on="0"/>
        <pt x="82" y="38" on="0"/>
        <pt x="82" y="76" on="1"/>
        <pt x="82" y="114" on="0"/>
        <pt x="130" y="164" on="0"/>
        <pt x="166" y="164" on="1"/>
        <pt x="202" y="164" on="0"/>
        <pt x="250" y="114" on="0"/>
        <pt x="250" y="76" on="1"/>
        <pt x="250" y="38" on="0"/>
        <pt x="202" y="-12" on="0"/>
        <pt x="166" y="-12" on="1"/>
      </contour>
    </TTGlyph>
    <TTGlyph name="exclam.lat" xMin="82" yMin="-12" xMax="250" yMax="670">
      <contour>
        <pt x="102" y="544" on="1"/>
        <pt x="97" y="670" on="1"/>
        <pt x="234" y="670" on="1"/>
        <pt x="230" y="544" on="1"/>
        <pt x="211" y="226" on="1"/>
        <pt x="121" y="226" on="1"/>
      </contour>
      <contour>
        <pt x="130" y="-12" on="0"/>
        <pt x="82" y="38" on="0"/>
        <pt x="82" y="76" on="1"/>
        <pt x="82" y="114" on="0"/>
        <pt x="130" y="164" on="0"/>
        <pt x="166" y="164" on="1"/>
        <pt x="202" y="164" on="0"/>
        <pt x="250" y="114" on="0"/>
        <pt x="250" y="76" on="1"/>
        <pt x="250" y="38" on="0"/>
        <pt x="202" y="-12" on="0"/>
        <pt x="166" y="-12" on="1"/>
      </contour>
    </TTGlyph>
    <TTGlyph name="exclamdown" xMin="82" yMin="-176" xMax="250" yMax="507">
      <contour>
        <pt x="130" y="331" on="0"/>
        <pt x="82" y="381" on="0"/>
        <pt x="82" y="419" on="1"/>
        <pt x="82" y="457" on="0"/>
        <pt x="130" y="507" on="0"/>
        <pt x="166" y="507" on="1"/>
        <pt x="202" y="507" on="0"/>
        <pt x="250" y="457" on="0"/>
        <pt x="250" y="419" on="1"/>
        <pt x="250" y="381" on="0"/>
        <pt x="202" y="331" on="0"/>
        <pt x="166" y="331" on="1"/>
      </contour>
      <contour>
        <pt x="102" y="-49" on="1"/>
        <pt x="121" y="269" on="1"/>
        <pt x="211" y="269" on="1"/>
        <pt x="230" y="-49" on="1"/>
        <pt x="234" y="-176" on="1"/>
        <pt x="97" y="-176" on="1"/>
      </contour>
    </TTGlyph>
    <TTGlyph name="f" xMin="25" yMin="0" xMax="363" yMax="715">
      <contour>
        <pt x="228" y="607" on="0"/>
        <pt x="228" y="532" on="1"/>
        <pt x="228" y="495" on="1"/>
        <pt x="319" y="495" on="1"/>
        <pt x="319" y="387" on="1"/>
        <pt x="228" y="387" on="1"/>
        <pt x="228" y="0" on="1"/>
        <pt x="91" y="0" on="1"/>
        <pt x="91" y="387" on="1"/>
        <pt x="25" y="387" on="1"/>
        <pt x="25" y="489" on="1"/>
        <pt x="91" y="494" on="1"/>
        <pt x="91" y="529" on="1"/>
        <pt x="91" y="613" on="0"/>
        <pt x="176" y="715" on="0"/>
        <pt x="267" y="715" on="1"/>
        <pt x="319" y="715" on="0"/>
        <pt x="363" y="697" on="1"/>
        <pt x="338" y="596" on="1"/>
        <pt x="311" y="607" on="0"/>
        <pt x="286" y="607" on="1"/>
      </contour>
    </TTGlyph>
    <TTGlyph name="fi" xMin="25" yMin="0" xMax="546" yMax="718">
      <component glyphName="f" x="0" y="0" flags="0x0"/>
      <component glyphName="dotlessi" x="333" y="0" flags="0x0"/>
      <component glyphName="uni0307" x="469" y="0" flags="0x0"/>
    </TTGlyph>
    <TTGlyph name="five" xMin="23" yMin="-12" xMax="475" yMax="636">
      <contour>
        <pt x="112" y="-12" on="0"/>
        <pt x="23" y="77" on="1"/>
        <pt x="85" y="164" on="1"/>
        <pt x="154" y="99" on="0"/>
        <pt x="226" y="99" on="1"/>
        <pt x="277" y="99" on="0"/>
        <pt x="338" y="155" on="0"/>
        <pt x="338" y="206" on="1"/>
        <pt x="338" y="255" on="0"/>
        <pt x="280" y="311" on="0"/>
        <pt x="233" y="311" on="1"/>
        <pt x="205" y="311" on="0"/>
        <pt x="166" y="297" on="0"/>
        <pt x="136" y="277" on="1"/>
        <pt x="74" y="317" on="1"/>
        <pt x="92" y="636" on="1"/>
        <pt x="446" y="636" on="1"/>
        <pt x="446" y="521" on="1"/>
        <pt x="210" y="521" on="1"/>
        <pt x="199" y="390" on="1"/>
        <pt x="238" y="407" on="0"/>
        <pt x="274" y="407" on="1"/>
        <pt x="361" y="407" on="0"/>
        <pt x="475" y="306" on="0"/>
        <pt x="475" y="209" on="1"/>
        <pt x="475" y="141" on="0"/>
        <pt x="412" y="41" on="0"/>
        <pt x="307" y="-12" on="0"/>
        <pt x="245" y="-12" on="1"/>
      </contour>
    </TTGlyph>
    <TTGlyph name="five.heb" xMin="23" yMin="-12" xMax="475" yMax="636">
      <contour>
        <pt x="112" y="-12" on="0"/>
        <pt x="23" y="77" on="1"/>
        <pt x="85" y="164" on="1"/>
        <pt x="154" y="99" on="0"/>
        <pt x="226" y="99" on="1"/>
        <pt x="277" y="99" on="0"/>
        <pt x="338" y="155" on="0"/>
        <pt x="338" y="206" on="1"/>
        <pt x="338" y="255" on="0"/>
        <pt x="280" y="311" on="0"/>
        <pt x="233" y="311" on="1"/>
        <pt x="205" y="311" on="0"/>
        <pt x="166" y="297" on="0"/>
        <pt x="136" y="277" on="1"/>
        <pt x="74" y="317" on="1"/>
        <pt x="92" y="636" on="1"/>
        <pt x="446" y="636" on="1"/>
        <pt x="446" y="521" on="1"/>
        <pt x="210" y="521" on="1"/>
        <pt x="199" y="390" on="1"/>
        <pt x="238" y="407" on="0"/>
        <pt x="274" y="407" on="1"/>
        <pt x="361" y="407" on="0"/>
        <pt x="475" y="306" on="0"/>
        <pt x="475" y="209" on="1"/>
        <pt x="475" y="141" on="0"/>
        <pt x="412" y="41" on="0"/>
        <pt x="307" y="-12" on="0"/>
        <pt x="245" y="-12" on="1"/>
      </contour>
    </TTGlyph>
    <TTGlyph name="five.lat" xMin="23" yMin="-12" xMax="475" yMax="636">
      <contour>
        <pt x="112" y="-12" on="0"/>
        <pt x="23" y="77" on="1"/>
        <pt x="85" y="164" on="1"/>
        <pt x="154" y="99" on="0"/>
        <pt x="226" y="99" on="1"/>
        <pt x="277" y="99" on="0"/>
        <pt x="338" y="155" on="0"/>
        <pt x="338" y="206" on="1"/>
        <pt x="338" y="255" on="0"/>
        <pt x="280" y="311" on="0"/>
        <pt x="233" y="311" on="1"/>
        <pt x="205" y="311" on="0"/>
        <pt x="166" y="297" on="0"/>
        <pt x="136" y="277" on="1"/>
        <pt x="74" y="317" on="1"/>
        <pt x="92" y="636" on="1"/>
        <pt x="446" y="636" on="1"/>
        <pt x="446" y="521" on="1"/>
        <pt x="210" y="521" on="1"/>
        <pt x="199" y="390" on="1"/>
        <pt x="238" y="407" on="0"/>
        <pt x="274" y="407" on="1"/>
        <pt x="361" y="407" on="0"/>
        <pt x="475" y="306" on="0"/>
        <pt x="475" y="209" on="1"/>
        <pt x="475" y="141" on="0"/>
        <pt x="412" y="41" on="0"/>
        <pt x="307" y="-12" on="0"/>
        <pt x="245" y="-12" on="1"/>
      </contour>
    </TTGlyph>
    <TTGlyph name="fl" xMin="25" yMin="-12" xMax="597" yMax="715">
      <component glyphName="f" x="0" y="0" flags="0x0"/>
      <component glyphName="l" x="333" y="0" flags="0x0"/>
    </TTGlyph>
    <TTGlyph name="florin" xMin="28" yMin="-97" xMax="488" yMax="665">
      <contour>
        <pt x="380" y="556" on="0"/>
        <pt x="343" y="509" on="0"/>
        <pt x="338" y="469" on="1"/>
        <pt x="331" y="413" on="1"/>
        <pt x="438" y="413" on="1"/>
        <pt x="438" y="313" on="1"/>
        <pt x="320" y="313" on="1"/>
        <pt x="297" y="117" on="1"/>
        <pt x="285" y="15" on="0"/>
        <pt x="204" y="-97" on="0"/>
        <pt x="112" y="-97" on="1"/>
        <pt x="52" y="-95" on="0"/>
        <pt x="28" y="-81" on="1"/>
        <pt x="47" y="20" on="1"/>
        <pt x="64" y="13" on="0"/>
        <pt x="92" y="11" on="1"/>
        <pt x="118" y="12" on="0"/>
        <pt x="148" y="38" on="0"/>
        <pt x="166" y="98" on="0"/>
        <pt x="172" y="155" on="1"/>
        <pt x="190" y="313" on="1"/>
        <pt x="113" y="313" on="1"/>
        <pt x="113" y="408" on="1"/>
        <pt x="187" y="413" on="1"/>
        <pt x="201" y="413" on="1"/>
        <pt x="206" y="458" on="1"/>
        <pt x="218" y="568" on="0"/>
        <pt x="309" y="665" on="0"/>
        <pt x="404" y="665" on="1"/>
        <pt x="422" y="665" on="0"/>
        <pt x="473" y="654" on="0"/>
        <pt x="488" y="647" on="1"/>
        <pt x="463" y="544" on="1"/>
        <pt x="461" y="545" on="0"/>
        <pt x="433" y="556" on="0"/>
        <pt x="414" y="556" on="1"/>
      </contour>
    </TTGlyph>
    <TTGlyph name="florin.lat" xMin="28" yMin="-97" xMax="488" yMax="665">
      <contour>
        <pt x="380" y="556" on="0"/>
        <pt x="343" y="509" on="0"/>
        <pt x="338" y="469" on="1"/>
        <pt x="331" y="413" on="1"/>
        <pt x="438" y="413" on="1"/>
        <pt x="438" y="313" on="1"/>
        <pt x="320" y="313" on="1"/>
        <pt x="297" y="117" on="1"/>
        <pt x="285" y="15" on="0"/>
        <pt x="204" y="-97" on="0"/>
        <pt x="112" y="-97" on="1"/>
        <pt x="52" y="-95" on="0"/>
        <pt x="28" y="-81" on="1"/>
        <pt x="47" y="20" on="1"/>
        <pt x="64" y="13" on="0"/>
        <pt x="92" y="11" on="1"/>
        <pt x="118" y="12" on="0"/>
        <pt x="148" y="38" on="0"/>
        <pt x="166" y="98" on="0"/>
        <pt x="172" y="155" on="1"/>
        <pt x="190" y="313" on="1"/>
        <pt x="113" y="313" on="1"/>
        <pt x="113" y="408" on="1"/>
        <pt x="187" y="413" on="1"/>
        <pt x="201" y="413" on="1"/>
        <pt x="206" y="458" on="1"/>
        <pt x="218" y="568" on="0"/>
        <pt x="309" y="665" on="0"/>
        <pt x="404" y="665" on="1"/>
        <pt x="422" y="665" on="0"/>
        <pt x="473" y="654" on="0"/>
        <pt x="488" y="647" on="1"/>
        <pt x="463" y="544" on="1"/>
        <pt x="461" y="545" on="0"/>
        <pt x="433" y="556" on="0"/>
        <pt x="414" y="556" on="1"/>
      </contour>
    </TTGlyph>
    <TTGlyph name="four" xMin="19" yMin="0" xMax="499" yMax="636">
      <contour>
        <pt x="499" y="156" on="1"/>
        <pt x="423" y="156" on="1"/>
        <pt x="423" y="0" on="1"/>
        <pt x="296" y="0" on="1"/>
        <pt x="296" y="156" on="1"/>
        <pt x="19" y="156" on="1"/>
        <pt x="19" y="250" on="1"/>
        <pt x="258" y="636" on="1"/>
        <pt x="423" y="636" on="1"/>
        <pt x="423" y="260" on="1"/>
        <pt x="499" y="260" on="1"/>
      </contour>
      <contour>
        <pt x="296" y="260" on="1"/>
        <pt x="296" y="377" on="1"/>
        <pt x="296" y="419" on="0"/>
        <pt x="301" y="516" on="1"/>
        <pt x="297" y="516" on="1"/>
        <pt x="287" y="495" on="0"/>
        <pt x="254" y="430" on="1"/>
        <pt x="245" y="412" on="1"/>
        <pt x="151" y="260" on="1"/>
      </contour>
    </TTGlyph>
    <TTGlyph name="four.heb" xMin="19" yMin="0" xMax="499" yMax="636">
      <contour>
        <pt x="499" y="156" on="1"/>
        <pt x="423" y="156" on="1"/>
        <pt x="423" y="0" on="1"/>
        <pt x="296" y="0" on="1"/>
        <pt x="296" y="156" on="1"/>
        <pt x="19" y="156" on="1"/>
        <pt x="19" y="250" on="1"/>
        <pt x="258" y="636" on="1"/>
        <pt x="423" y="636" on="1"/>
        <pt x="423" y="260" on="1"/>
        <pt x="499" y="260" on="1"/>
      </contour>
      <contour>
        <pt x="296" y="260" on="1"/>
        <pt x="296" y="377" on="1"/>
        <pt x="296" y="419" on="0"/>
        <pt x="301" y="516" on="1"/>
        <pt x="297" y="516" on="1"/>
        <pt x="287" y="495" on="0"/>
        <pt x="254" y="430" on="1"/>
        <pt x="245" y="412" on="1"/>
        <pt x="151" y="260" on="1"/>
      </contour>
    </TTGlyph>
    <TTGlyph name="four.lat" xMin="19" yMin="0" xMax="499" yMax="636">
      <contour>
        <pt x="499" y="156" on="1"/>
        <pt x="423" y="156" on="1"/>
        <pt x="423" y="0" on="1"/>
        <pt x="296" y="0" on="1"/>
        <pt x="296" y="156" on="1"/>
        <pt x="19" y="156" on="1"/>
        <pt x="19" y="250" on="1"/>
        <pt x="258" y="636" on="1"/>
        <pt x="423" y="636" on="1"/>
        <pt x="423" y="260" on="1"/>
        <pt x="499" y="260" on="1"/>
      </contour>
      <contour>
        <pt x="296" y="260" on="1"/>
        <pt x="296" y="377" on="1"/>
        <pt x="296" y="419" on="0"/>
        <pt x="301" y="516" on="1"/>
        <pt x="297" y="516" on="1"/>
        <pt x="287" y="495" on="0"/>
        <pt x="254" y="430" on="1"/>
        <pt x="245" y="412" on="1"/>
        <pt x="151" y="260" on="1"/>
      </contour>
    </TTGlyph>
    <TTGlyph name="fraction" xMin="-170" yMin="-12" xMax="264" yMax="665">
      <contour>
        <pt x="184" y="665" on="1"/>
        <pt x="264" y="665" on="1"/>
        <pt x="-90" y="-12" on="1"/>
        <pt x="-170" y="-12" on="1"/>
      </contour>
    </TTGlyph>
    <TTGlyph name="fraction.lat" xMin="-170" yMin="-12" xMax="264" yMax="665">
      <contour>
        <pt x="184" y="665" on="1"/>
        <pt x="264" y="665" on="1"/>
        <pt x="-90" y="-12" on="1"/>
        <pt x="-170" y="-12" on="1"/>
      </contour>
    </TTGlyph>
    <TTGlyph name="g" xMin="36" yMin="-213" xMax="515" yMax="507">
      <contour>
        <pt x="151" y="-213" on="0"/>
        <pt x="36" y="-149" on="0"/>
        <pt x="36" y="-87" on="1"/>
        <pt x="36" y="-25" on="0"/>
        <pt x="107" y="15" on="1"/>
        <pt x="107" y="19" on="1"/>
        <pt x="62" y="48" on="0"/>
        <pt x="62" y="103" on="1"/>
        <pt x="62" y="129" on="0"/>
        <pt x="93" y="179" on="0"/>
        <pt x="117" y="195" on="1"/>
        <pt x="117" y="199" on="1"/>
        <pt x="88" y="219" on="0"/>
        <pt x="51" y="287" on="0"/>
        <pt x="51" y="328" on="1"/>
        <pt x="51" y="384" on="0"/>
        <pt x="106" y="465" on="0"/>
        <pt x="198" y="507" on="0"/>
        <pt x="252" y="507" on="1"/>
        <pt x="290" y="507" on="0"/>
        <pt x="328" y="495" on="1"/>
        <pt x="507" y="495" on="1"/>
        <pt x="507" y="395" on="1"/>
        <pt x="424" y="395" on="1"/>
        <pt x="433" y="383" on="0"/>
        <pt x="445" y="344" on="0"/>
        <pt x="445" y="324" on="1"/>
        <pt x="445" y="243" on="0"/>
        <pt x="337" y="157" on="0"/>
        <pt x="252" y="157" on="1"/>
        <pt x="221" y="157" on="0"/>
        <pt x="190" y="167" on="1"/>
        <pt x="180" y="158" on="0"/>
        <pt x="170" y="141" on="0"/>
        <pt x="170" y="127" on="1"/>
        <pt x="170" y="108" on="0"/>
        <pt x="205" y="88" on="0"/>
        <pt x="246" y="88" on="1"/>
        <pt x="329" y="88" on="1"/>
        <pt x="421" y="88" on="0"/>
        <pt x="515" y="28" on="0"/>
        <pt x="515" y="-37" on="1"/>
        <pt x="515" y="-87" on="0"/>
        <pt x="448" y="-168" on="0"/>
        <pt x="325" y="-213" on="0"/>
        <pt x="243" y="-213" on="1"/>
      </contour>
      <contour>
        <pt x="284" y="240" on="0"/>
        <pt x="325" y="287" on="0"/>
        <pt x="325" y="328" on="1"/>
        <pt x="325" y="369" on="0"/>
        <pt x="285" y="414" on="0"/>
        <pt x="252" y="414" on="1"/>
        <pt x="219" y="414" on="0"/>
        <pt x="178" y="369" on="0"/>
        <pt x="178" y="328" on="1"/>
        <pt x="178" y="286" on="0"/>
        <pt x="219" y="240" on="0"/>
        <pt x="252" y="240" on="1"/>
      </contour>
      <contour>
        <pt x="316" y="-127" on="0"/>
        <pt x="384" y="-88" on="0"/>
        <pt x="384" y="-60" on="1"/>
        <pt x="384" y="-36" on="0"/>
        <pt x="346" y="-18" on="0"/>
        <pt x="305" y="-18" on="1"/>
        <pt x="248" y="-18" on="1"/>
        <pt x="204" y="-18" on="0"/>
        <pt x="180" y="-11" on="1"/>
        <pt x="149" y="-36" on="0"/>
        <pt x="149" y="-65" on="1"/>
        <pt x="149" y="-95" on="0"/>
        <pt x="211" y="-127" on="0"/>
        <pt x="264" y="-127" on="1"/>
      </contour>
    </TTGlyph>
    <TTGlyph name="gammalatin" xMin="12" yMin="-206" xMax="502" yMax="495">
      <contour>
        <pt x="341" y="66" on="1"/>
        <pt x="360" y="21" on="0"/>
        <pt x="376" y="-41" on="0"/>
        <pt x="376" y="-74" on="1"/>
        <pt x="376" y="-133" on="0"/>
        <pt x="311" y="-206" on="0"/>
        <pt x="260" y="-206" on="1"/>
        <pt x="208" y="-206" on="0"/>
        <pt x="143" y="-133" on="0"/>
        <pt x="143" y="-74" on="1"/>
        <pt x="143" y="-41" on="0"/>
        <pt x="159" y="21" on="0"/>
        <pt x="178" y="65" on="1"/>
        <pt x="12" y="495" on="1"/>
        <pt x="150" y="495" on="1"/>
        <pt x="219" y="279" on="1"/>
        <pt x="222" y="269" on="0"/>
        <pt x="237" y="224" on="1"/>
        <pt x="249" y="189" on="0"/>
        <pt x="258" y="159" on="1"/>
        <pt x="262" y="159" on="1"/>
        <pt x="267" y="175" on="0"/>
        <pt x="283" y="224" on="1"/>
        <pt x="292" y="246" on="0"/>
        <pt x="302" y="279" on="1"/>
        <pt x="371" y="495" on="1"/>
        <pt x="502" y="495" on="1"/>
      </contour>
      <contour>
        <pt x="261" y="-134" on="0"/>
        <pt x="265" y="-103" on="0"/>
        <pt x="265" y="-82" on="1"/>
        <pt x="265" y="-30" on="0"/>
        <pt x="259" y="10" on="1"/>
        <pt x="255" y="-30" on="0"/>
        <pt x="255" y="-82" on="1"/>
        <pt x="255" y="-102" on="0"/>
        <pt x="259" y="-130" on="0"/>
        <pt x="260" y="-134" on="1"/>
      </contour>
    </TTGlyph>
    <TTGlyph name="gcaron" xMin="36" yMin="-213" xMax="515" yMax="758">
      <component glyphName="g" x="0" y="0" flags="0x0"/>
      <component glyphName="uni030C" x="272" y="0" flags="0x0"/>
    </TTGlyph>
    <TTGlyph name="gdotaccent" xMin="36" yMin="-213" xMax="515" yMax="718">
      <component glyphName="g" x="0" y="0" flags="0x0"/>
      <component glyphName="uni0307" x="272" y="0" flags="0x0"/>
    </TTGlyph>
    <TTGlyph name="germandbls" xMin="67" yMin="-12" xMax="596" yMax="713">
      <contour>
        <pt x="374" y="-12" on="0"/>
        <pt x="304" y="11" on="0"/>
        <pt x="266" y="34" on="1"/>
        <pt x="314" y="127" on="1"/>
        <pt x="362" y="90" on="0"/>
        <pt x="411" y="90" on="1"/>
        <pt x="438" y="90" on="0"/>
        <pt x="471" y="120" on="0"/>
        <pt x="471" y="143" on="1"/>
        <pt x="471" y="167" on="0"/>
        <pt x="436" y="198" on="0"/>
        <pt x="397" y="220" on="1"/>
        <pt x="363" y="238" on="0"/>
        <pt x="321" y="269" on="0"/>
        <pt x="291" y="318" on="0"/>
        <pt x="291" y="352" on="1"/>
        <pt x="291" y="379" on="0"/>
        <pt x="310" y="419" on="0"/>
        <pt x="329" y="446" on="1"/>
        <pt x="347" y="471" on="0"/>
        <pt x="365" y="509" on="0"/>
        <pt x="365" y="534" on="1"/>
        <pt x="365" y="566" on="0"/>
        <pt x="329" y="605" on="0"/>
        <pt x="298" y="605" on="1"/>
        <pt x="251" y="605" on="0"/>
        <pt x="202" y="537" on="0"/>
        <pt x="202" y="475" on="1"/>
        <pt x="202" y="0" on="1"/>
        <pt x="67" y="0" on="1"/>
        <pt x="67" y="492" on="1"/>
        <pt x="67" y="592" on="0"/>
        <pt x="185" y="713" on="0"/>
        <pt x="298" y="713" on="1"/>
        <pt x="361" y="713" on="0"/>
        <pt x="450" y="668" on="0"/>
        <pt x="496" y="593" on="0"/>
        <pt x="496" y="550" on="1"/>
        <pt x="496" y="513" on="0"/>
        <pt x="471" y="462" on="0"/>
        <pt x="447" y="432" on="1"/>
        <pt x="431" y="411" on="0"/>
        <pt x="416" y="384" on="0"/>
        <pt x="416" y="369" on="1"/>
        <pt x="416" y="349" on="0"/>
        <pt x="447" y="323" on="0"/>
        <pt x="480" y="305" on="1"/>
        <pt x="516" y="286" on="0"/>
        <pt x="562" y="251" on="0"/>
        <pt x="596" y="193" on="0"/>
        <pt x="596" y="150" on="1"/>
        <pt x="596" y="80" on="0"/>
        <pt x="500" y="-12" on="0"/>
        <pt x="415" y="-12" on="1"/>
      </contour>
    </TTGlyph>
    <TTGlyph name="glottalstopreversedsupmod" xMin="27" yMin="379" xMax="319" yMax="850">
      <contour>
        <pt x="132" y="552" on="1"/>
        <pt x="79" y="592" on="0"/>
        <pt x="27" y="664" on="0"/>
        <pt x="27" y="714" on="1"/>
        <pt x="27" y="779" on="0"/>
        <pt x="116" y="850" on="0"/>
        <pt x="183" y="850" on="1"/>
        <pt x="264" y="850" on="0"/>
        <pt x="319" y="790" on="1"/>
        <pt x="271" y="730" on="1"/>
        <pt x="236" y="772" on="0"/>
        <pt x="193" y="772" on="1"/>
        <pt x="161" y="772" on="0"/>
        <pt x="124" y="740" on="0"/>
        <pt x="124" y="711" on="1"/>
        <pt x="124" y="678" on="0"/>
        <pt x="170" y="624" on="0"/>
        <pt x="228" y="588" on="1"/>
        <pt x="228" y="379" on="1"/>
        <pt x="132" y="379" on="1"/>
      </contour>
    </TTGlyph>
    <TTGlyph name="grave" xMin="93" yMin="573" xMax="338" yMax="819">
      <component glyphName="gravecomb" x="277" y="0" flags="0x0"/>
    </TTGlyph>
    <TTGlyph name="gravecomb" xMin="-184" yMin="573" xMax="61" yMax="819">
      <contour>
        <pt x="-184" y="729" on="1"/>
        <pt x="-91" y="819" on="1"/>
        <pt x="61" y="640" on="1"/>
        <pt x="-7" y="573" on="1"/>
      </contour>
    </TTGlyph>
    <TTGlyph name="gravecomb.cap" xMin="-167" yMin="683" xMax="72" yMax="890">
      <contour>
        <pt x="-167" y="801" on="1"/>
        <pt x="-94" y="890" on="1"/>
        <pt x="72" y="752" on="1"/>
        <pt x="12" y="683" on="1"/>
      </contour>
    </TTGlyph>
    <TTGlyph name="greater" xMin="34" yMin="109" xMax="489" yMax="556">
      <contour>
        <pt x="34" y="222" on="1"/>
        <pt x="216" y="283" on="1"/>
        <pt x="351" y="330" on="1"/>
        <pt x="351" y="334" on="1"/>
        <pt x="216" y="382" on="1"/>
        <pt x="34" y="443" on="1"/>
        <pt x="34" y="556" on="1"/>
        <pt x="489" y="380" on="1"/>
        <pt x="489" y="284" on="1"/>
        <pt x="34" y="109" on="1"/>
      </contour>
    </TTGlyph>
    <TTGlyph name="greaterequal" xMin="34" yMin="0" xMax="489" yMax="556">
      <contour>
        <pt x="34" y="267" on="1"/>
        <pt x="213" y="317" on="1"/>
        <pt x="351" y="353" on="1"/>
        <pt x="351" y="357" on="1"/>
        <pt x="213" y="392" on="1"/>
        <pt x="34" y="443" on="1"/>
        <pt x="34" y="556" on="1"/>
        <pt x="489" y="412" on="1"/>
        <pt x="489" y="298" on="1"/>
        <pt x="34" y="154" on="1"/>
      </contour>
      <contour>
        <pt x="34" y="97" on="1"/>
        <pt x="489" y="97" on="1"/>
        <pt x="489" y="0" on="1"/>
        <pt x="34" y="0" on="1"/>
      </contour>
    </TTGlyph>
    <TTGlyph name="guillemotleft" xMin="48" yMin="58" xMax="419" yMax="447">
      <component glyphName="guilsinglleft" x="0" y="0" flags="0x0"/>
      <component glyphName="guilsinglleft" x="184" y="0" flags="0x0"/>
    </TTGlyph>
    <TTGlyph name="guillemotleft.lat" xMin="48" yMin="58" xMax="418" yMax="447">
      <contour>
        <pt x="48" y="204" on="1"/>
        <pt x="48" y="301" on="1"/>
        <pt x="183" y="447" on="1"/>
        <pt x="235" y="405" on="1"/>
        <pt x="123" y="252" on="1"/>
        <pt x="235" y="99" on="1"/>
        <pt x="183" y="58" on="1"/>
      </contour>
      <contour>
        <pt x="231" y="204" on="1"/>
        <pt x="231" y="301" on="1"/>
        <pt x="366" y="447" on="1"/>
        <pt x="418" y="405" on="1"/>
        <pt x="306" y="252" on="1"/>
        <pt x="418" y="99" on="1"/>
        <pt x="366" y="58" on="1"/>
      </contour>
    </TTGlyph>
    <TTGlyph name="guillemotright" xMin="54" yMin="58" xMax="425" yMax="447">
      <component glyphName="guilsinglright" x="0" y="0" flags="0x0"/>
      <component glyphName="guilsinglright" x="184" y="0" flags="0x0"/>
    </TTGlyph>
    <TTGlyph name="guillemotright.lat" xMin="54" yMin="58" xMax="424" yMax="447">
      <contour>
        <pt x="54" y="99" on="1"/>
        <pt x="166" y="252" on="1"/>
        <pt x="54" y="405" on="1"/>
        <pt x="106" y="447" on="1"/>
        <pt x="241" y="301" on="1"/>
        <pt x="241" y="204" on="1"/>
        <pt x="106" y="58" on="1"/>
      </contour>
      <contour>
        <pt x="237" y="99" on="1"/>
        <pt x="349" y="252" on="1"/>
        <pt x="237" y="405" on="1"/>
        <pt x="289" y="447" on="1"/>
        <pt x="424" y="301" on="1"/>
        <pt x="424" y="204" on="1"/>
        <pt x="289" y="58" on="1"/>
      </contour>
    </TTGlyph>
    <TTGlyph name="guilsinglleft" xMin="48" yMin="58" xMax="235" yMax="447">
      <contour>
        <pt x="48" y="204" on="1"/>
        <pt x="48" y="301" on="1"/>
        <pt x="183" y="447" on="1"/>
        <pt x="235" y="405" on="1"/>
        <pt x="123" y="252" on="1"/>
        <pt x="235" y="99" on="1"/>
        <pt x="183" y="58" on="1"/>
      </contour>
    </TTGlyph>
    <TTGlyph name="guilsinglleft.lat" xMin="48" yMin="58" xMax="235" yMax="447">
      <contour>
        <pt x="48" y="204" on="1"/>
        <pt x="48" y="301" on="1"/>
        <pt x="183" y="447" on="1"/>
        <pt x="235" y="405" on="1"/>
        <pt x="123" y="252" on="1"/>
        <pt x="235" y="99" on="1"/>
        <pt x="183" y="58" on="1"/>
      </contour>
    </TTGlyph>
    <TTGlyph name="guilsinglright" xMin="54" yMin="58" xMax="241" yMax="447">
      <contour>
        <pt x="54" y="99" on="1"/>
        <pt x="166" y="252" on="1"/>
        <pt x="54" y="405" on="1"/>
        <pt x="106" y="447" on="1"/>
        <pt x="241" y="301" on="1"/>
        <pt x="241" y="204" on="1"/>
        <pt x="106" y="58" on="1"/>
      </contour>
    </TTGlyph>
    <TTGlyph name="guilsinglright.lat" xMin="54" yMin="58" xMax="241" yMax="447">
      <contour>
        <pt x="54" y="99" on="1"/>
        <pt x="166" y="252" on="1"/>
        <pt x="54" y="405" on="1"/>
        <pt x="106" y="447" on="1"/>
        <pt x="241" y="301" on="1"/>
        <pt x="241" y="204" on="1"/>
        <pt x="106" y="58" on="1"/>
      </contour>
    </TTGlyph>
    <TTGlyph name="h" xMin="67" yMin="0" xMax="505" yMax="703">
      <contour>
        <pt x="67" y="703" on="1"/>
        <pt x="204" y="703" on="1"/>
        <pt x="204" y="528" on="1"/>
        <pt x="198" y="436" on="1"/>
        <pt x="232" y="468" on="0"/>
        <pt x="306" y="507" on="0"/>
        <pt x="352" y="507" on="1"/>
        <pt x="430" y="507" on="0"/>
        <pt x="505" y="404" on="0"/>
        <pt x="505" y="308" on="1"/>
        <pt x="505" y="0" on="1"/>
        <pt x="369" y="0" on="1"/>
        <pt x="369" y="291" on="1"/>
        <pt x="369" y="345" on="0"/>
        <pt x="337" y="390" on="0"/>
        <pt x="302" y="390" on="1"/>
        <pt x="275" y="390" on="0"/>
        <pt x="233" y="366" on="0"/>
        <pt x="204" y="338" on="1"/>
        <pt x="204" y="0" on="1"/>
        <pt x="67" y="0" on="1"/>
      </contour>
    </TTGlyph>
    <TTGlyph name="hbar" xMin="-2" yMin="0" xMax="505" yMax="703">
      <contour>
        <pt x="430" y="460" on="0"/>
        <pt x="505" y="357" on="0"/>
        <pt x="505" y="261" on="1"/>
        <pt x="505" y="0" on="1"/>
        <pt x="369" y="0" on="1"/>
        <pt x="369" y="244" on="1"/>
        <pt x="369" y="298" on="0"/>
        <pt x="337" y="343" on="0"/>
        <pt x="302" y="343" on="1"/>
        <pt x="275" y="343" on="0"/>
        <pt x="233" y="319" on="0"/>
        <pt x="204" y="291" on="1"/>
        <pt x="204" y="0" on="1"/>
        <pt x="67" y="0" on="1"/>
        <pt x="67" y="559" on="1"/>
        <pt x="-2" y="559" on="1"/>
        <pt x="-2" y="620" on="1"/>
        <pt x="67" y="625" on="1"/>
        <pt x="67" y="703" on="1"/>
        <pt x="204" y="703" on="1"/>
        <pt x="204" y="626" on="1"/>
        <pt x="375" y="626" on="1"/>
        <pt x="375" y="559" on="1"/>
        <pt x="204" y="559" on="1"/>
        <pt x="204" y="481" on="1"/>
        <pt x="198" y="389" on="1"/>
        <pt x="232" y="421" on="0"/>
        <pt x="306" y="460" on="0"/>
        <pt x="352" y="460" on="1"/>
      </contour>
    </TTGlyph>
    <TTGlyph name="hungarumlaut" xMin="153" yMin="566" xMax="507" yMax="778">
      <component glyphName="uni030B" x="277" y="0" flags="0x0"/>
    </TTGlyph>
    <TTGlyph name="hyphen" xMin="43" yMin="204" xMax="286" yMax="302">
      <contour>
        <pt x="43" y="302" on="1"/>
        <pt x="286" y="302" on="1"/>
        <pt x="286" y="204" on="1"/>
        <pt x="43" y="204" on="1"/>
      </contour>
    </TTGlyph>
    <TTGlyph name="i" xMin="59" yMin="0" xMax="213" yMax="718">
      <component glyphName="dotlessi" x="0" y="0" flags="0x0"/>
      <component glyphName="uni0307" x="136" y="0" flags="0x0"/>
    </TTGlyph>
    <TTGlyph name="iacute" xMin="67" yMin="0" xMax="320" yMax="819">
      <component glyphName="dotlessi" x="0" y="0" flags="0x0"/>
      <component glyphName="acutecomb" x="136" y="0" flags="0x0"/>
    </TTGlyph>
    <TTGlyph name="icircumflex" xMin="-43" yMin="0" xMax="314" yMax="744">
      <component glyphName="dotlessi" x="0" y="0" flags="0x0"/>
      <component glyphName="uni0302" x="136" y="0" flags="0x0"/>
    </TTGlyph>
    <TTGlyph name="idieresis" xMin="-39" yMin="0" xMax="311" yMax="708">
      <component glyphName="dotlessi" x="0" y="0" flags="0x0"/>
      <component glyphName="uni0308" x="136" y="0" flags="0x0"/>
    </TTGlyph>
    <TTGlyph name="igrave" xMin="-48" yMin="0" xMax="204" yMax="819">
      <component glyphName="dotlessi" x="0" y="0" flags="0x0"/>
      <component glyphName="gravecomb" x="136" y="0" flags="0x0"/>
    </TTGlyph>
    <TTGlyph name="imacron" xMin="-10" yMin="0" xMax="281" yMax="681">
      <component glyphName="dotlessi" x="0" y="0" flags="0x0"/>
      <component glyphName="uni0304" x="136" y="0" flags="0x0"/>
    </TTGlyph>
    <TTGlyph name="infinity" xMin="37" yMin="119" xMax="771" yMax="535">
      <contour>
        <pt x="516" y="119" on="0"/>
        <pt x="422" y="175" on="0"/>
        <pt x="374" y="237" on="1"/>
        <pt x="370" y="237" on="1"/>
        <pt x="295" y="143" on="0"/>
        <pt x="204" y="143" on="1"/>
        <pt x="158" y="143" on="0"/>
        <pt x="81" y="191" on="0"/>
        <pt x="37" y="272" on="0"/>
        <pt x="37" y="318" on="1"/>
        <pt x="37" y="412" on="0"/>
        <pt x="139" y="519" on="0"/>
        <pt x="223" y="519" on="1"/>
        <pt x="318" y="519" on="0"/>
        <pt x="388" y="424" on="1"/>
        <pt x="392" y="424" on="1"/>
        <pt x="476" y="535" on="0"/>
        <pt x="584" y="535" on="1"/>
        <pt x="636" y="535" on="0"/>
        <pt x="722" y="485" on="0"/>
        <pt x="771" y="395" on="0"/>
        <pt x="771" y="340" on="1"/>
        <pt x="771" y="272" on="0"/>
        <pt x="719" y="172" on="0"/>
        <pt x="631" y="119" on="0"/>
        <pt x="577" y="119" on="1"/>
      </contour>
      <contour>
        <pt x="620" y="245" on="0"/>
        <pt x="671" y="298" on="0"/>
        <pt x="671" y="336" on="1"/>
        <pt x="671" y="381" on="0"/>
        <pt x="617" y="435" on="0"/>
        <pt x="571" y="435" on="1"/>
        <pt x="500" y="435" on="0"/>
        <pt x="438" y="349" on="1"/>
        <pt x="476" y="297" on="0"/>
        <pt x="539" y="245" on="0"/>
        <pt x="578" y="245" on="1"/>
      </contour>
      <contour>
        <pt x="276" y="243" on="0"/>
        <pt x="324" y="313" on="1"/>
        <pt x="299" y="350" on="0"/>
        <pt x="242" y="392" on="0"/>
        <pt x="212" y="392" on="1"/>
        <pt x="177" y="392" on="0"/>
        <pt x="138" y="354" on="0"/>
        <pt x="138" y="322" on="1"/>
        <pt x="138" y="289" on="0"/>
        <pt x="181" y="243" on="0"/>
        <pt x="217" y="243" on="1"/>
      </contour>
    </TTGlyph>
    <TTGlyph name="integral" xMin="43" yMin="-158" xMax="353" yMax="791">
      <contour>
        <pt x="69" y="-158" on="0"/>
        <pt x="43" y="-151" on="1"/>
        <pt x="57" y="-51" on="1"/>
        <pt x="69" y="-55" on="0"/>
        <pt x="92" y="-55" on="1"/>
        <pt x="130" y="-55" on="0"/>
        <pt x="156" y="6" on="0"/>
        <pt x="156" y="82" on="1"/>
        <pt x="156" y="133" on="0"/>
        <pt x="146" y="236" on="0"/>
        <pt x="137" y="307" on="1"/>
        <pt x="127" y="393" on="0"/>
        <pt x="118" y="493" on="0"/>
        <pt x="118" y="547" on="1"/>
        <pt x="118" y="665" on="0"/>
        <pt x="194" y="791" on="0"/>
        <pt x="298" y="791" on="1"/>
        <pt x="330" y="791" on="0"/>
        <pt x="353" y="784" on="1"/>
        <pt x="340" y="684" on="1"/>
        <pt x="327" y="688" on="0"/>
        <pt x="304" y="688" on="1"/>
        <pt x="267" y="688" on="0"/>
        <pt x="241" y="626" on="0"/>
        <pt x="241" y="551" on="1"/>
        <pt x="241" y="470" on="0"/>
        <pt x="260" y="327" on="1"/>
        <pt x="270" y="237" on="0"/>
        <pt x="279" y="140" on="0"/>
        <pt x="279" y="86" on="1"/>
        <pt x="279" y="-32" on="0"/>
        <pt x="203" y="-158" on="0"/>
        <pt x="99" y="-158" on="1"/>
      </contour>
    </TTGlyph>
    <TTGlyph name="ismall" xMin="51" yMin="0" xMax="336" yMax="495">
      <contour>
        <pt x="51" y="108" on="1"/>
        <pt x="125" y="108" on="1"/>
        <pt x="125" y="387" on="1"/>
        <pt x="51" y="387" on="1"/>
        <pt x="51" y="495" on="1"/>
        <pt x="336" y="495" on="1"/>
        <pt x="336" y="387" on="1"/>
        <pt x="262" y="387" on="1"/>
        <pt x="262" y="108" on="1"/>
        <pt x="336" y="108" on="1"/>
        <pt x="336" y="0" on="1"/>
        <pt x="51" y="0" on="1"/>
      </contour>
    </TTGlyph>
    <TTGlyph name="j" xMin="-45" yMin="-200" xMax="215" yMax="718">
      <contour>
        <pt x="104" y="572" on="0"/>
        <pt x="61" y="613" on="0"/>
        <pt x="61" y="645" on="1"/>
        <pt x="61" y="677" on="0"/>
        <pt x="104" y="718" on="0"/>
        <pt x="138" y="718" on="1"/>
        <pt x="172" y="718" on="0"/>
        <pt x="215" y="677" on="0"/>
        <pt x="215" y="645" on="1"/>
        <pt x="215" y="613" on="0"/>
        <pt x="172" y="572" on="0"/>
        <pt x="138" y="572" on="1"/>
      </contour>
      <contour>
        <pt x="75" y="495" on="1"/>
        <pt x="212" y="495" on="1"/>
        <pt x="210" y="-6" on="1"/>
        <pt x="210" y="-94" on="0"/>
        <pt x="131" y="-200" on="0"/>
        <pt x="40" y="-200" on="1"/>
        <pt x="-10" y="-200" on="0"/>
        <pt x="-45" y="-186" on="1"/>
        <pt x="-21" y="-85" on="1"/>
        <pt x="4" y="-92" on="0"/>
        <pt x="20" y="-92" on="1"/>
        <pt x="50" y="-92" on="0"/>
        <pt x="74" y="-53" on="0"/>
        <pt x="74" y="-10" on="1"/>
      </contour>
    </TTGlyph>
    <TTGlyph name="j.sups" xMin="-32" yMin="242" xMax="151" yMax="855">
      <contour>
        <pt x="70" y="754" on="0"/>
        <pt x="38" y="782" on="0"/>
        <pt x="38" y="805" on="1"/>
        <pt x="38" y="827" on="0"/>
        <pt x="70" y="855" on="0"/>
        <pt x="95" y="855" on="1"/>
        <pt x="119" y="855" on="0"/>
        <pt x="151" y="827" on="0"/>
        <pt x="151" y="805" on="1"/>
        <pt x="151" y="783" on="0"/>
        <pt x="119" y="754" on="0"/>
        <pt x="95" y="754" on="1"/>
      </contour>
      <contour>
        <pt x="-10" y="242" on="0"/>
        <pt x="-32" y="250" on="1"/>
        <pt x="-15" y="322" on="1"/>
        <pt x="-1" y="318" on="0"/>
        <pt x="12" y="318" on="1"/>
        <pt x="31" y="318" on="0"/>
        <pt x="46" y="342" on="0"/>
        <pt x="46" y="370" on="1"/>
        <pt x="46" y="707" on="1"/>
        <pt x="143" y="707" on="1"/>
        <pt x="143" y="374" on="1"/>
        <pt x="143" y="314" on="0"/>
        <pt x="88" y="242" on="0"/>
        <pt x="26" y="242" on="1"/>
      </contour>
    </TTGlyph>
    <TTGlyph name="k" xMin="67" yMin="0" xMax="533" yMax="703">
      <contour>
        <pt x="67" y="703" on="1"/>
        <pt x="201" y="703" on="1"/>
        <pt x="201" y="288" on="1"/>
        <pt x="204" y="288" on="1"/>
        <pt x="370" y="495" on="1"/>
        <pt x="518" y="495" on="1"/>
        <pt x="346" y="292" on="1"/>
        <pt x="533" y="0" on="1"/>
        <pt x="385" y="0" on="1"/>
        <pt x="268" y="200" on="1"/>
        <pt x="201" y="123" on="1"/>
        <pt x="201" y="0" on="1"/>
        <pt x="67" y="0" on="1"/>
      </contour>
    </TTGlyph>
    <TTGlyph name="l" xMin="67" yMin="-12" xMax="264" yMax="703">
      <contour>
        <pt x="127" y="-12" on="0"/>
        <pt x="67" y="69" on="0"/>
        <pt x="67" y="145" on="1"/>
        <pt x="67" y="703" on="1"/>
        <pt x="204" y="703" on="1"/>
        <pt x="204" y="139" on="1"/>
        <pt x="204" y="118" on="0"/>
        <pt x="220" y="99" on="0"/>
        <pt x="230" y="99" on="1"/>
        <pt x="239" y="99" on="0"/>
        <pt x="248" y="101" on="1"/>
        <pt x="264" y="-1" on="1"/>
        <pt x="237" y="-12" on="0"/>
        <pt x="195" y="-12" on="1"/>
      </contour>
    </TTGlyph>
    <TTGlyph name="lefttorightembed" xMin="-129" yMin="767" xMax="144" yMax="984">
      <contour>
        <pt x="14" y="792" on="1"/>
        <pt x="77" y="858" on="1"/>
        <pt x="1" y="858" on="1"/>
        <pt x="1" y="894" on="1"/>
        <pt x="77" y="894" on="1"/>
        <pt x="14" y="957" on="1"/>
        <pt x="39" y="984" on="1"/>
        <pt x="144" y="875" on="1"/>
        <pt x="39" y="767" on="1"/>
      </contour>
      <contour>
        <pt x="-129" y="894" on="1"/>
        <pt x="-41" y="894" on="1"/>
        <pt x="-41" y="858" on="1"/>
        <pt x="-129" y="858" on="1"/>
      </contour>
    </TTGlyph>
    <TTGlyph name="less" xMin="34" yMin="109" xMax="489" yMax="556">
      <contour>
        <pt x="34" y="284" on="1"/>
        <pt x="34" y="380" on="1"/>
        <pt x="489" y="556" on="1"/>
        <pt x="489" y="443" on="1"/>
        <pt x="308" y="382" on="1"/>
        <pt x="173" y="334" on="1"/>
        <pt x="173" y="330" on="1"/>
        <pt x="308" y="283" on="1"/>
        <pt x="489" y="222" on="1"/>
        <pt x="489" y="109" on="1"/>
      </contour>
    </TTGlyph>
    <TTGlyph name="lessequal" xMin="34" yMin="0" xMax="489" yMax="556">
      <contour>
        <pt x="34" y="298" on="1"/>
        <pt x="34" y="412" on="1"/>
        <pt x="489" y="556" on="1"/>
        <pt x="489" y="443" on="1"/>
        <pt x="311" y="392" on="1"/>
        <pt x="173" y="357" on="1"/>
        <pt x="173" y="353" on="1"/>
        <pt x="311" y="317" on="1"/>
        <pt x="489" y="267" on="1"/>
        <pt x="489" y="154" on="1"/>
      </contour>
      <contour>
        <pt x="34" y="97" on="1"/>
        <pt x="489" y="97" on="1"/>
        <pt x="489" y="0" on="1"/>
        <pt x="34" y="0" on="1"/>
      </contour>
    </TTGlyph>
    <TTGlyph name="litre" xMin="12" yMin="-12" xMax="464" yMax="715">
      <contour>
        <pt x="464" y="63" on="1"/>
        <pt x="425" y="29" on="0"/>
        <pt x="345" y="-12" on="0"/>
        <pt x="299" y="-12" on="1"/>
        <pt x="229" y="-12" on="0"/>
        <pt x="125" y="67" on="0"/>
        <pt x="112" y="139" on="1"/>
        <pt x="63" y="109" on="1"/>
        <pt x="12" y="193" on="1"/>
        <pt x="65" y="225" on="0"/>
        <pt x="108" y="253" on="1"/>
        <pt x="108" y="476" on="1"/>
        <pt x="108" y="595" on="0"/>
        <pt x="207" y="715" on="0"/>
        <pt x="289" y="715" on="1"/>
        <pt x="360" y="715" on="0"/>
        <pt x="446" y="626" on="0"/>
        <pt x="446" y="549" on="1"/>
        <pt x="446" y="457" on="0"/>
        <pt x="348" y="306" on="0"/>
        <pt x="241" y="226" on="1"/>
        <pt x="241" y="200" on="1"/>
        <pt x="241" y="150" on="0"/>
        <pt x="285" y="102" on="0"/>
        <pt x="320" y="102" on="1"/>
        <pt x="346" y="102" on="0"/>
        <pt x="390" y="126" on="0"/>
        <pt x="413" y="146" on="1"/>
      </contour>
      <contour>
        <pt x="241" y="355" on="1"/>
        <pt x="288" y="400" on="0"/>
        <pt x="334" y="494" on="0"/>
        <pt x="334" y="548" on="1"/>
        <pt x="334" y="581" on="0"/>
        <pt x="312" y="615" on="0"/>
        <pt x="293" y="615" on="1"/>
        <pt x="271" y="615" on="0"/>
        <pt x="241" y="556" on="0"/>
        <pt x="241" y="495" on="1"/>
      </contour>
    </TTGlyph>
    <TTGlyph name="logicalnot" xMin="34" yMin="96" xMax="489" yMax="379">
      <contour>
        <pt x="388" y="282" on="1"/>
        <pt x="34" y="282" on="1"/>
        <pt x="34" y="379" on="1"/>
        <pt x="489" y="379" on="1"/>
        <pt x="489" y="96" on="1"/>
        <pt x="388" y="96" on="1"/>
      </contour>
    </TTGlyph>
    <TTGlyph name="lozenge" xMin="52" yMin="-10" xMax="490" yMax="670">
      <contour>
        <pt x="52" y="330" on="1"/>
        <pt x="215" y="670" on="1"/>
        <pt x="327" y="670" on="1"/>
        <pt x="490" y="330" on="1"/>
        <pt x="327" y="-10" on="1"/>
        <pt x="215" y="-10" on="1"/>
      </contour>
      <contour>
        <pt x="274" y="105" on="1"/>
        <pt x="329" y="227" on="1"/>
        <pt x="377" y="330" on="1"/>
        <pt x="329" y="433" on="1"/>
        <pt x="274" y="556" on="1"/>
        <pt x="270" y="556" on="1"/>
        <pt x="215" y="433" on="1"/>
        <pt x="166" y="330" on="1"/>
        <pt x="215" y="227" on="1"/>
        <pt x="270" y="105" on="1"/>
      </contour>
    </TTGlyph>
    <TTGlyph name="lslash" xMin="-18" yMin="-12" xMax="309" yMax="703">
      <contour>
        <pt x="248" y="99" on="0"/>
        <pt x="257" y="101" on="1"/>
        <pt x="273" y="-1" on="1"/>
        <pt x="246" y="-12" on="0"/>
        <pt x="204" y="-12" on="1"/>
        <pt x="136" y="-12" on="0"/>
        <pt x="76" y="69" on="0"/>
        <pt x="76" y="145" on="1"/>
        <pt x="76" y="286" on="1"/>
        <pt x="29" y="257" on="1"/>
        <pt x="-18" y="342" on="1"/>
        <pt x="76" y="396" on="1"/>
        <pt x="76" y="703" on="1"/>
        <pt x="213" y="703" on="1"/>
        <pt x="213" y="463" on="1"/>
        <pt x="262" y="492" on="1"/>
        <pt x="309" y="407" on="1"/>
        <pt x="213" y="352" on="1"/>
        <pt x="213" y="139" on="1"/>
        <pt x="213" y="118" on="0"/>
        <pt x="229" y="99" on="0"/>
        <pt x="239" y="99" on="1"/>
      </contour>
    </TTGlyph>
    <TTGlyph name="m" xMin="67" yMin="0" xMax="790" yMax="507">
      <contour>
        <pt x="67" y="495" on="1"/>
        <pt x="179" y="495" on="1"/>
        <pt x="189" y="430" on="1"/>
        <pt x="192" y="430" on="1"/>
        <pt x="228" y="466" on="0"/>
        <pt x="299" y="507" on="0"/>
        <pt x="343" y="507" on="1"/>
        <pt x="441" y="507" on="0"/>
        <pt x="479" y="422" on="1"/>
        <pt x="518" y="463" on="0"/>
        <pt x="591" y="507" on="0"/>
        <pt x="636" y="507" on="1"/>
        <pt x="714" y="507" on="0"/>
        <pt x="790" y="403" on="0"/>
        <pt x="790" y="308" on="1"/>
        <pt x="790" y="0" on="1"/>
        <pt x="653" y="0" on="1"/>
        <pt x="653" y="291" on="1"/>
        <pt x="653" y="345" on="0"/>
        <pt x="622" y="390" on="0"/>
        <pt x="587" y="390" on="1"/>
        <pt x="546" y="390" on="0"/>
        <pt x="497" y="338" on="1"/>
        <pt x="497" y="0" on="1"/>
        <pt x="360" y="0" on="1"/>
        <pt x="360" y="291" on="1"/>
        <pt x="360" y="345" on="0"/>
        <pt x="329" y="390" on="0"/>
        <pt x="294" y="390" on="1"/>
        <pt x="253" y="390" on="0"/>
        <pt x="204" y="338" on="1"/>
        <pt x="204" y="0" on="1"/>
        <pt x="67" y="0" on="1"/>
      </contour>
    </TTGlyph>
    <TTGlyph name="macron" xMin="131" yMin="593" xMax="422" yMax="681">
      <component glyphName="uni0304" x="277" y="0" flags="0x0"/>
    </TTGlyph>
    <TTGlyph name="minus" xMin="34" yMin="282" xMax="489" yMax="379">
      <contour>
        <pt x="34" y="379" on="1"/>
        <pt x="489" y="379" on="1"/>
        <pt x="489" y="282" on="1"/>
        <pt x="34" y="282" on="1"/>
      </contour>
    </TTGlyph>
    <TTGlyph name="multiply" xMin="48" yMin="114" xMax="475" yMax="545">
      <contour>
        <pt x="48" y="183" on="1"/>
        <pt x="193" y="329" on="1"/>
        <pt x="48" y="475" on="1"/>
        <pt x="117" y="545" on="1"/>
        <pt x="261" y="398" on="1"/>
        <pt x="406" y="545" on="1"/>
        <pt x="475" y="475" on="1"/>
        <pt x="330" y="329" on="1"/>
        <pt x="475" y="183" on="1"/>
        <pt x="406" y="114" on="1"/>
        <pt x="261" y="261" on="1"/>
        <pt x="117" y="114" on="1"/>
      </contour>
    </TTGlyph>
    <TTGlyph name="n" xMin="67" yMin="0" xMax="505" yMax="507">
      <contour>
        <pt x="67" y="495" on="1"/>
        <pt x="179" y="495" on="1"/>
        <pt x="189" y="431" on="1"/>
        <pt x="192" y="431" on="1"/>
        <pt x="229" y="467" on="0"/>
        <pt x="306" y="507" on="0"/>
        <pt x="352" y="507" on="1"/>
        <pt x="430" y="507" on="0"/>
        <pt x="505" y="404" on="0"/>
        <pt x="505" y="308" on="1"/>
        <pt x="505" y="0" on="1"/>
        <pt x="369" y="0" on="1"/>
        <pt x="369" y="291" on="1"/>
        <pt x="369" y="345" on="0"/>
        <pt x="337" y="390" on="0"/>
        <pt x="302" y="390" on="1"/>
        <pt x="275" y="390" on="0"/>
        <pt x="233" y="366" on="0"/>
        <pt x="204" y="338" on="1"/>
        <pt x="204" y="0" on="1"/>
        <pt x="67" y="0" on="1"/>
      </contour>
    </TTGlyph>
    <TTGlyph name="nine" xMin="35" yMin="-12" xMax="480" yMax="648">
      <contour>
        <pt x="307" y="648" on="0"/>
        <pt x="415" y="580" on="0"/>
        <pt x="480" y="439" on="0"/>
        <pt x="480" y="334" on="1"/>
        <pt x="480" y="219" on="0"/>
        <pt x="410" y="63" on="0"/>
        <pt x="294" y="-12" on="0"/>
        <pt x="225" y="-12" on="1"/>
        <pt x="168" y="-12" on="0"/>
        <pt x="78" y="30" on="0"/>
        <pt x="45" y="63" on="1"/>
        <pt x="117" y="145" on="1"/>
        <pt x="134" y="125" on="0"/>
        <pt x="189" y="99" on="0"/>
        <pt x="217" y="99" on="1"/>
        <pt x="277" y="99" on="0"/>
        <pt x="351" y="199" on="0"/>
        <pt x="355" y="311" on="1"/>
        <pt x="330" y="278" on="0"/>
        <pt x="256" y="240" on="0"/>
        <pt x="223" y="240" on="1"/>
        <pt x="138" y="240" on="0"/>
        <pt x="35" y="339" on="0"/>
        <pt x="35" y="436" on="1"/>
        <pt x="35" y="500" on="0"/>
        <pt x="91" y="596" on="0"/>
        <pt x="186" y="648" on="0"/>
        <pt x="243" y="648" on="1"/>
      </contour>
      <contour>
        <pt x="277" y="337" on="0"/>
        <pt x="330" y="369" on="0"/>
        <pt x="351" y="404" on="1"/>
        <pt x="342" y="478" on="0"/>
        <pt x="286" y="545" on="0"/>
        <pt x="245" y="545" on="1"/>
        <pt x="208" y="545" on="0"/>
        <pt x="160" y="489" on="0"/>
        <pt x="160" y="436" on="1"/>
        <pt x="160" y="385" on="0"/>
        <pt x="207" y="337" on="0"/>
        <pt x="249" y="337" on="1"/>
      </contour>
    </TTGlyph>
    <TTGlyph name="nine.heb" xMin="35" yMin="-12" xMax="480" yMax="648">
      <contour>
        <pt x="307" y="648" on="0"/>
        <pt x="415" y="580" on="0"/>
        <pt x="480" y="439" on="0"/>
        <pt x="480" y="334" on="1"/>
        <pt x="480" y="219" on="0"/>
        <pt x="410" y="63" on="0"/>
        <pt x="294" y="-12" on="0"/>
        <pt x="225" y="-12" on="1"/>
        <pt x="168" y="-12" on="0"/>
        <pt x="78" y="30" on="0"/>
        <pt x="45" y="63" on="1"/>
        <pt x="117" y="145" on="1"/>
        <pt x="134" y="125" on="0"/>
        <pt x="189" y="99" on="0"/>
        <pt x="217" y="99" on="1"/>
        <pt x="277" y="99" on="0"/>
        <pt x="351" y="199" on="0"/>
        <pt x="355" y="311" on="1"/>
        <pt x="330" y="278" on="0"/>
        <pt x="256" y="240" on="0"/>
        <pt x="223" y="240" on="1"/>
        <pt x="138" y="240" on="0"/>
        <pt x="35" y="339" on="0"/>
        <pt x="35" y="436" on="1"/>
        <pt x="35" y="500" on="0"/>
        <pt x="91" y="596" on="0"/>
        <pt x="186" y="648" on="0"/>
        <pt x="243" y="648" on="1"/>
      </contour>
      <contour>
        <pt x="277" y="337" on="0"/>
        <pt x="330" y="369" on="0"/>
        <pt x="351" y="404" on="1"/>
        <pt x="342" y="478" on="0"/>
        <pt x="286" y="545" on="0"/>
        <pt x="245" y="545" on="1"/>
        <pt x="208" y="545" on="0"/>
        <pt x="160" y="489" on="0"/>
        <pt x="160" y="436" on="1"/>
        <pt x="160" y="385" on="0"/>
        <pt x="207" y="337" on="0"/>
        <pt x="249" y="337" on="1"/>
      </contour>
    </TTGlyph>
    <TTGlyph name="nine.lat" xMin="35" yMin="-12" xMax="480" yMax="648">
      <contour>
        <pt x="307" y="648" on="0"/>
        <pt x="415" y="580" on="0"/>
        <pt x="480" y="439" on="0"/>
        <pt x="480" y="334" on="1"/>
        <pt x="480" y="219" on="0"/>
        <pt x="410" y="63" on="0"/>
        <pt x="294" y="-12" on="0"/>
        <pt x="225" y="-12" on="1"/>
        <pt x="168" y="-12" on="0"/>
        <pt x="78" y="30" on="0"/>
        <pt x="45" y="63" on="1"/>
        <pt x="117" y="145" on="1"/>
        <pt x="134" y="125" on="0"/>
        <pt x="189" y="99" on="0"/>
        <pt x="217" y="99" on="1"/>
        <pt x="277" y="99" on="0"/>
        <pt x="351" y="199" on="0"/>
        <pt x="355" y="311" on="1"/>
        <pt x="330" y="278" on="0"/>
        <pt x="256" y="240" on="0"/>
        <pt x="223" y="240" on="1"/>
        <pt x="138" y="240" on="0"/>
        <pt x="35" y="339" on="0"/>
        <pt x="35" y="436" on="1"/>
        <pt x="35" y="500" on="0"/>
        <pt x="91" y="596" on="0"/>
        <pt x="186" y="648" on="0"/>
        <pt x="243" y="648" on="1"/>
      </contour>
      <contour>
        <pt x="277" y="337" on="0"/>
        <pt x="330" y="369" on="0"/>
        <pt x="351" y="404" on="1"/>
        <pt x="342" y="478" on="0"/>
        <pt x="286" y="545" on="0"/>
        <pt x="245" y="545" on="1"/>
        <pt x="208" y="545" on="0"/>
        <pt x="160" y="489" on="0"/>
        <pt x="160" y="436" on="1"/>
        <pt x="160" y="385" on="0"/>
        <pt x="207" y="337" on="0"/>
        <pt x="249" y="337" on="1"/>
      </contour>
    </TTGlyph>
    <TTGlyph name="notequal" xMin="34" yMin="44" xMax="489" yMax="616">
      <contour>
        <pt x="126" y="167" on="1"/>
        <pt x="34" y="167" on="1"/>
        <pt x="34" y="264" on="1"/>
        <pt x="180" y="264" on="1"/>
        <pt x="256" y="397" on="1"/>
        <pt x="34" y="397" on="1"/>
        <pt x="34" y="494" on="1"/>
        <pt x="310" y="494" on="1"/>
        <pt x="382" y="616" on="1"/>
        <pt x="470" y="616" on="1"/>
        <pt x="398" y="494" on="1"/>
        <pt x="489" y="494" on="1"/>
        <pt x="489" y="397" on="1"/>
        <pt x="344" y="397" on="1"/>
        <pt x="268" y="264" on="1"/>
        <pt x="489" y="264" on="1"/>
        <pt x="489" y="167" on="1"/>
        <pt x="214" y="167" on="1"/>
        <pt x="141" y="44" on="1"/>
        <pt x="53" y="44" on="1"/>
      </contour>
    </TTGlyph>
    <TTGlyph name="ntilde" xMin="67" yMin="0" xMax="505" yMax="736">
      <component glyphName="n" x="0" y="0" flags="0x0"/>
      <component glyphName="tildecomb" x="310" y="0" flags="0x0"/>
    </TTGlyph>
    <TTGlyph name="numbersign" xMin="34" yMin="0" xMax="493" yMax="650">
      <contour>
        <pt x="109" y="190" on="1"/>
        <pt x="34" y="190" on="1"/>
        <pt x="34" y="278" on="1"/>
        <pt x="119" y="278" on="1"/>
        <pt x="134" y="394" on="1"/>
        <pt x="54" y="394" on="1"/>
        <pt x="54" y="482" on="1"/>
        <pt x="145" y="482" on="1"/>
        <pt x="166" y="650" on="1"/>
        <pt x="245" y="650" on="1"/>
        <pt x="225" y="482" on="1"/>
        <pt x="333" y="482" on="1"/>
        <pt x="355" y="650" on="1"/>
        <pt x="434" y="650" on="1"/>
        <pt x="414" y="482" on="1"/>
        <pt x="493" y="482" on="1"/>
        <pt x="493" y="394" on="1"/>
        <pt x="403" y="394" on="1"/>
        <pt x="388" y="278" on="1"/>
        <pt x="473" y="278" on="1"/>
        <pt x="473" y="190" on="1"/>
        <pt x="378" y="190" on="1"/>
        <pt x="355" y="0" on="1"/>
        <pt x="275" y="0" on="1"/>
        <pt x="298" y="190" on="1"/>
        <pt x="190" y="190" on="1"/>
        <pt x="167" y="0" on="1"/>
        <pt x="86" y="0" on="1"/>
      </contour>
      <contour>
        <pt x="308" y="278" on="1"/>
        <pt x="323" y="394" on="1"/>
        <pt x="215" y="394" on="1"/>
        <pt x="200" y="278" on="1"/>
      </contour>
    </TTGlyph>
    <TTGlyph name="numbersign.lat" xMin="34" yMin="0" xMax="493" yMax="650">
      <contour>
        <pt x="109" y="190" on="1"/>
        <pt x="34" y="190" on="1"/>
        <pt x="34" y="278" on="1"/>
        <pt x="119" y="278" on="1"/>
        <pt x="134" y="394" on="1"/>
        <pt x="54" y="394" on="1"/>
        <pt x="54" y="482" on="1"/>
        <pt x="145" y="482" on="1"/>
        <pt x="166" y="650" on="1"/>
        <pt x="245" y="650" on="1"/>
        <pt x="225" y="482" on="1"/>
        <pt x="333" y="482" on="1"/>
        <pt x="355" y="650" on="1"/>
        <pt x="434" y="650" on="1"/>
        <pt x="414" y="482" on="1"/>
        <pt x="493" y="482" on="1"/>
        <pt x="493" y="394" on="1"/>
        <pt x="403" y="394" on="1"/>
        <pt x="388" y="278" on="1"/>
        <pt x="473" y="278" on="1"/>
        <pt x="473" y="190" on="1"/>
        <pt x="378" y="190" on="1"/>
        <pt x="355" y="0" on="1"/>
        <pt x="275" y="0" on="1"/>
        <pt x="298" y="190" on="1"/>
        <pt x="190" y="190" on="1"/>
        <pt x="167" y="0" on="1"/>
        <pt x="86" y="0" on="1"/>
      </contour>
      <contour>
        <pt x="308" y="278" on="1"/>
        <pt x="323" y="394" on="1"/>
        <pt x="215" y="394" on="1"/>
        <pt x="200" y="278" on="1"/>
      </contour>
    </TTGlyph>
    <TTGlyph name="o" xMin="37" yMin="-12" xMax="515" yMax="507">
      <contour>
        <pt x="213" y="-12" on="0"/>
        <pt x="103" y="50" on="0"/>
        <pt x="37" y="168" on="0"/>
        <pt x="37" y="247" on="1"/>
        <pt x="37" y="326" on="0"/>
        <pt x="103" y="445" on="0"/>
        <pt x="213" y="507" on="0"/>
        <pt x="276" y="507" on="1"/>
        <pt x="340" y="507" on="0"/>
        <pt x="449" y="445" on="0"/>
        <pt x="515" y="327" on="0"/>
        <pt x="515" y="247" on="1"/>
        <pt x="515" y="168" on="0"/>
        <pt x="449" y="50" on="0"/>
        <pt x="340" y="-12" on="0"/>
        <pt x="276" y="-12" on="1"/>
      </contour>
      <contour>
        <pt x="324" y="99" on="0"/>
        <pt x="375" y="178" on="0"/>
        <pt x="375" y="247" on="1"/>
        <pt x="375" y="316" on="0"/>
        <pt x="324" y="396" on="0"/>
        <pt x="276" y="396" on="1"/>
        <pt x="229" y="396" on="0"/>
        <pt x="177" y="316" on="0"/>
        <pt x="177" y="247" on="1"/>
        <pt x="177" y="178" on="0"/>
        <pt x="229" y="99" on="0"/>
        <pt x="276" y="99" on="1"/>
      </contour>
    </TTGlyph>
    <TTGlyph name="o.sups" xMin="25" yMin="371" xMax="346" yMax="715">
      <contour>
        <pt x="143" y="371" on="0"/>
        <pt x="69" y="412" on="0"/>
        <pt x="25" y="490" on="0"/>
        <pt x="25" y="542" on="1"/>
        <pt x="25" y="595" on="0"/>
        <pt x="69" y="673" on="0"/>
        <pt x="143" y="715" on="0"/>
        <pt x="186" y="715" on="1"/>
        <pt x="229" y="715" on="0"/>
        <pt x="302" y="673" on="0"/>
        <pt x="346" y="595" on="0"/>
        <pt x="346" y="542" on="1"/>
        <pt x="346" y="490" on="0"/>
        <pt x="302" y="412" on="0"/>
        <pt x="229" y="371" on="0"/>
        <pt x="186" y="371" on="1"/>
      </contour>
      <contour>
        <pt x="216" y="448" on="0"/>
        <pt x="247" y="498" on="0"/>
        <pt x="247" y="542" on="1"/>
        <pt x="247" y="587" on="0"/>
        <pt x="216" y="638" on="0"/>
        <pt x="186" y="638" on="1"/>
        <pt x="155" y="638" on="0"/>
        <pt x="124" y="587" on="0"/>
        <pt x="124" y="542" on="1"/>
        <pt x="124" y="498" on="0"/>
        <pt x="155" y="448" on="0"/>
        <pt x="186" y="448" on="1"/>
      </contour>
    </TTGlyph>
    <TTGlyph name="oacute" xMin="37" yMin="-12" xMax="515" yMax="819">
      <component glyphName="o" x="0" y="0" flags="0x0"/>
      <component glyphName="acutecomb" x="277" y="0" flags="0x0"/>
    </TTGlyph>
    <TTGlyph name="obreve" xMin="37" yMin="-12" xMax="515" yMax="741">
      <component glyphName="o" x="0" y="0" flags="0x0"/>
      <component glyphName="uni0306" x="277" y="0" flags="0x0"/>
    </TTGlyph>
    <TTGlyph name="ocircumflex" xMin="37" yMin="-12" xMax="515" yMax="744">
      <component glyphName="o" x="0" y="0" flags="0x0"/>
      <component glyphName="uni0302" x="277" y="0" flags="0x0"/>
    </TTGlyph>
    <TTGlyph name="odieresis" xMin="37" yMin="-12" xMax="515" yMax="708">
      <component glyphName="o" x="0" y="0" flags="0x0"/>
      <component glyphName="uni0308" x="277" y="0" flags="0x0"/>
    </TTGlyph>
    <TTGlyph name="oe" xMin="37" yMin="-12" xMax="788" yMax="507">
      <contour>
        <pt x="203" y="-12" on="0"/>
        <pt x="98" y="50" on="0"/>
        <pt x="37" y="167" on="0"/>
        <pt x="37" y="247" on="1"/>
        <pt x="37" y="327" on="0"/>
        <pt x="100" y="445" on="0"/>
        <pt x="206" y="507" on="0"/>
        <pt x="269" y="507" on="1"/>
        <pt x="321" y="507" on="0"/>
        <pt x="404" y="459" on="0"/>
        <pt x="432" y="414" on="1"/>
        <pt x="462" y="458" on="0"/>
        <pt x="546" y="507" on="0"/>
        <pt x="592" y="507" on="1"/>
        <pt x="686" y="507" on="0"/>
        <pt x="788" y="373" on="0"/>
        <pt x="788" y="267" on="1"/>
        <pt x="788" y="232" on="0"/>
        <pt x="782" y="208" on="1"/>
        <pt x="490" y="208" on="1"/>
        <pt x="497" y="154" on="0"/>
        <pt x="565" y="96" on="0"/>
        <pt x="615" y="96" on="1"/>
        <pt x="642" y="96" on="0"/>
        <pt x="693" y="114" on="0"/>
        <pt x="723" y="132" on="1"/>
        <pt x="770" y="43" on="1"/>
        <pt x="732" y="17" on="0"/>
        <pt x="641" y="-12" on="0"/>
        <pt x="596" y="-12" on="1"/>
        <pt x="549" y="-12" on="0"/>
        <pt x="464" y="37" on="0"/>
        <pt x="434" y="81" on="1"/>
        <pt x="403" y="34" on="0"/>
        <pt x="321" y="-12" on="0"/>
        <pt x="266" y="-12" on="1"/>
      </contour>
      <contour>
        <pt x="671" y="293" on="1"/>
        <pt x="671" y="344" on="0"/>
        <pt x="629" y="402" on="0"/>
        <pt x="587" y="402" on="1"/>
        <pt x="549" y="402" on="0"/>
        <pt x="497" y="346" on="0"/>
        <pt x="490" y="293" on="1"/>
      </contour>
      <contour>
        <pt x="313" y="99" on="0"/>
        <pt x="365" y="179" on="0"/>
        <pt x="365" y="247" on="1"/>
        <pt x="365" y="315" on="0"/>
        <pt x="313" y="396" on="0"/>
        <pt x="270" y="396" on="1"/>
        <pt x="227" y="396" on="0"/>
        <pt x="176" y="315" on="0"/>
        <pt x="176" y="247" on="1"/>
        <pt x="176" y="179" on="0"/>
        <pt x="227" y="99" on="0"/>
        <pt x="270" y="99" on="1"/>
      </contour>
    </TTGlyph>
    <TTGlyph name="ograve" xMin="37" yMin="-12" xMax="515" yMax="819">
      <component glyphName="o" x="0" y="0" flags="0x0"/>
      <component glyphName="gravecomb" x="277" y="0" flags="0x0"/>
    </TTGlyph>
    <TTGlyph name="omacron" xMin="37" yMin="-12" xMax="515" yMax="681">
      <component glyphName="o" x="0" y="0" flags="0x0"/>
      <component glyphName="uni0304" x="277" y="0" flags="0x0"/>
    </TTGlyph>
    <TTGlyph name="one" xMin="71" yMin="0" xMax="469" yMax="636">
      <contour>
        <pt x="71" y="111" on="1"/>
        <pt x="211" y="111" on="1"/>
        <pt x="211" y="495" on="1"/>
        <pt x="93" y="495" on="1"/>
        <pt x="93" y="580" on="1"/>
        <pt x="142" y="589" on="0"/>
        <pt x="214" y="615" on="0"/>
        <pt x="247" y="636" on="1"/>
        <pt x="348" y="636" on="1"/>
        <pt x="348" y="111" on="1"/>
        <pt x="469" y="111" on="1"/>
        <pt x="469" y="0" on="1"/>
        <pt x="71" y="0" on="1"/>
      </contour>
    </TTGlyph>
    <TTGlyph name="one.heb" xMin="71" yMin="0" xMax="469" yMax="636">
      <contour>
        <pt x="71" y="111" on="1"/>
        <pt x="211" y="111" on="1"/>
        <pt x="211" y="495" on="1"/>
        <pt x="93" y="495" on="1"/>
        <pt x="93" y="580" on="1"/>
        <pt x="142" y="589" on="0"/>
        <pt x="214" y="615" on="0"/>
        <pt x="247" y="636" on="1"/>
        <pt x="348" y="636" on="1"/>
        <pt x="348" y="111" on="1"/>
        <pt x="469" y="111" on="1"/>
        <pt x="469" y="0" on="1"/>
        <pt x="71" y="0" on="1"/>
      </contour>
    </TTGlyph>
    <TTGlyph name="one.lat" xMin="71" yMin="0" xMax="469" yMax="636">
      <contour>
        <pt x="71" y="111" on="1"/>
        <pt x="211" y="111" on="1"/>
        <pt x="211" y="495" on="1"/>
        <pt x="93" y="495" on="1"/>
        <pt x="93" y="580" on="1"/>
        <pt x="142" y="589" on="0"/>
        <pt x="214" y="615" on="0"/>
        <pt x="247" y="636" on="1"/>
        <pt x="348" y="636" on="1"/>
        <pt x="348" y="111" on="1"/>
        <pt x="469" y="111" on="1"/>
        <pt x="469" y="0" on="1"/>
        <pt x="71" y="0" on="1"/>
      </contour>
    </TTGlyph>
    <TTGlyph name="one.pnumlat" xMin="40" yMin="0" xMax="295" yMax="636">
      <contour>
        <pt x="159" y="495" on="1"/>
        <pt x="40" y="495" on="1"/>
        <pt x="40" y="580" on="1"/>
        <pt x="89" y="589" on="0"/>
        <pt x="161" y="615" on="0"/>
        <pt x="194" y="636" on="1"/>
        <pt x="295" y="636" on="1"/>
        <pt x="295" y="0" on="1"/>
        <pt x="159" y="0" on="1"/>
      </contour>
    </TTGlyph>
    <TTGlyph name="onehalf" xMin="194" yMin="-12" xMax="628" yMax="665">
      <contour>
        <pt x="548" y="665" on="1"/>
        <pt x="628" y="665" on="1"/>
        <pt x="274" y="-12" on="1"/>
        <pt x="194" y="-12" on="1"/>
      </contour>
    </TTGlyph>
    <TTGlyph name="onehalf.lat" xMin="73" yMin="-12" xMax="796" yMax="665">
      <contour>
        <pt x="628" y="665" on="1"/>
        <pt x="274" y="-12" on="1"/>
        <pt x="194" y="-12" on="1"/>
        <pt x="236" y="68" on="1"/>
        <pt x="161" y="68" on="1"/>
        <pt x="161" y="353" on="1"/>
        <pt x="73" y="353" on="1"/>
        <pt x="73" y="415" on="1"/>
        <pt x="111" y="421" on="0"/>
        <pt x="156" y="439" on="0"/>
        <pt x="183" y="458" on="1"/>
        <pt x="263" y="458" on="1"/>
        <pt x="263" y="120" on="1"/>
        <pt x="548" y="665" on="1"/>
      </contour>
      <contour>
        <pt x="796" y="85" on="1"/>
        <pt x="796" y="0" on="1"/>
        <pt x="510" y="0" on="1"/>
        <pt x="510" y="55" on="1"/>
        <pt x="600" y="130" on="0"/>
        <pt x="684" y="220" on="0"/>
        <pt x="684" y="254" on="1"/>
        <pt x="684" y="285" on="0"/>
        <pt x="652" y="319" on="0"/>
        <pt x="624" y="319" on="1"/>
        <pt x="587" y="319" on="0"/>
        <pt x="551" y="270" on="1"/>
        <pt x="493" y="323" on="1"/>
        <pt x="553" y="402" on="0"/>
        <pt x="639" y="402" on="1"/>
        <pt x="704" y="402" on="0"/>
        <pt x="781" y="333" on="0"/>
        <pt x="781" y="271" on="1"/>
        <pt x="781" y="227" on="0"/>
        <pt x="728" y="148" on="0"/>
        <pt x="671" y="85" on="1"/>
      </contour>
    </TTGlyph>
    <TTGlyph name="onequarter" xMin="200" yMin="-12" xMax="634" yMax="665">
      <contour>
        <pt x="554" y="665" on="1"/>
        <pt x="634" y="665" on="1"/>
        <pt x="280" y="-12" on="1"/>
        <pt x="200" y="-12" on="1"/>
      </contour>
    </TTGlyph>
</ttFont>
